<?xml version="1.0" encoding="utf-8"?>
<!-- Generator: Adobe Illustrator 23.0.4, SVG Export Plug-In . SVG Version: 6.00 Build 0)  -->
<svg version="1.1" id="Layer_1" xmlns="http://www.w3.org/2000/svg" xmlns:xlink="http://www.w3.org/1999/xlink" x="0px" y="0px"
	 viewBox="0 0 595.3 156.4" style="enable-background:new 0 0 595.3 156.4;" xml:space="preserve">
<style type="text/css">
	.st0{clip-path:url(#SVGID_2_);}
	.st1{fill:#F1F1F2;}
	.st2{fill:#00C0F3;}
	.st3{clip-path:url(#SVGID_4_);}
	.st4{fill:none;stroke:#00C0F3;stroke-width:1.46;stroke-miterlimit:10;}
	.st5{clip-path:url(#SVGID_6_);}
	.st6{clip-path:url(#SVGID_8_);}
	.st7{clip-path:url(#SVGID_10_);}
	.st8{fill:#FFFFFF;}
	.st9{fill:none;stroke:#00C0F3;}
</style>
<g>
	<defs>
		<rect id="SVGID_1_" y="0" width="595.3" height="156.4"/>
	</defs>
	<clipPath id="SVGID_2_">
		<use xlink:href="#SVGID_1_"  style="overflow:visible;"/>
	</clipPath>
	<g class="st0">
		<rect x="-8.5" y="-8.5" class="st1" width="612.3" height="164.4"/>
		<path class="st2" d="M35.9,120.6c1.6,0,3.1-0.5,4.4-1.4v1.9c-1.4,0.7-2.9,1-4.5,1c-1.2,0-2.4-0.2-3.5-0.8
			c-0.9-0.5-1.7-1.3-2.3-2.3c-0.6-1-0.8-2-0.8-3.1c0-1.7,0.7-3.3,1.9-4.5c1.3-1.2,3-1.9,4.7-1.8c1.5,0,2.9,0.4,4.3,1v1.9
			c-1.3-0.8-2.7-1.2-4.2-1.2c-1.3,0-2.6,0.4-3.5,1.3c-1,0.9-1.5,2.1-1.4,3.4c0,1.3,0.5,2.5,1.4,3.3
			C33.3,120.2,34.6,120.7,35.9,120.6L35.9,120.6z M46,114c1.1,0,2.2,0.4,3.1,1.2c0.8,0.8,1.3,1.9,1.2,3c0,1.1-0.4,2.2-1.2,2.9
			c-0.9,0.8-2,1.2-3.1,1.1c-1.1,0-2.2-0.4-3-1.2c-1.6-1.6-1.6-4.2,0-5.9c0,0,0,0,0,0C43.8,114.4,44.9,114,46,114z M45.9,115.4
			c-0.7,0-1.4,0.3-1.9,0.8c-0.5,0.5-0.8,1.2-0.7,1.9c0,0.7,0.2,1.4,0.7,1.9c0.5,0.5,1.2,0.8,1.9,0.7c0.7,0,1.4-0.2,1.9-0.7
			c0.5-0.5,0.8-1.2,0.7-1.9c0-0.7-0.3-1.4-0.8-1.9C47.3,115.7,46.6,115.4,45.9,115.4L45.9,115.4z M53.7,114v1.8l0.1-0.1
			c0.8-1.2,1.5-1.9,2.3-1.9c0.7,0.1,1.4,0.4,1.9,0.9l-0.8,1.4c-0.4-0.4-1-0.7-1.5-0.8c-0.5,0-1,0.3-1.3,0.7
			c-0.4,0.5-0.6,1.1-0.6,1.7v4.2h-1.6V114H53.7z M65.8,118.2h-5.7c0,0.7,0.3,1.4,0.8,1.8c0.5,0.5,1.2,0.7,1.8,0.7
			c1.1,0,2.1-0.4,2.9-1v1.6c-0.5,0.3-0.9,0.5-1.5,0.7c-0.6,0.1-1.1,0.2-1.7,0.2c-0.8,0-1.5-0.2-2.2-0.6c-0.6-0.4-1-0.9-1.3-1.5
			c-0.3-0.7-0.5-1.4-0.5-2.2c0-1.1,0.3-2.2,1-3c0.7-0.8,1.7-1.2,2.7-1.1c1,0,1.9,0.4,2.6,1.1c0.7,0.8,1,1.9,1,3L65.8,118.2z
			 M60.1,117.2h4.1c0-0.5-0.2-1.1-0.6-1.5c-0.4-0.4-0.9-0.5-1.4-0.5c-0.5,0-1,0.2-1.4,0.5C60.5,116.1,60.2,116.6,60.1,117.2
			L60.1,117.2z M77.4,119c0-0.7-0.5-1.4-1.6-2.1l-1.3-0.8c-0.7-0.4-1.3-0.9-1.8-1.5c-0.4-0.5-0.5-1.1-0.5-1.7c0-0.9,0.3-1.8,1-2.4
			c0.7-0.6,1.7-0.9,2.6-0.9c1,0,2,0.3,2.8,0.9v2c-0.7-0.8-1.8-1.2-2.9-1.3c-0.5,0-1,0.1-1.4,0.4c-0.3,0.2-0.6,0.6-0.6,1
			c0,0.4,0.2,0.7,0.4,1c0.4,0.4,0.8,0.7,1.3,1l1.3,0.8c1.3,0.6,2.2,2,2.2,3.4c0,0.9-0.3,1.8-1,2.4c-0.7,0.6-1.6,1-2.6,0.9
			c-1.2,0-2.4-0.4-3.3-1.1v-2.2c0.7,1.1,2,1.8,3.3,1.8c0.5,0,1-0.1,1.4-0.5C77.2,119.8,77.4,119.4,77.4,119L77.4,119z M80.9,109.7
			h1.6V122h-1.6V109.7z M86.2,114h1.9l-3.4,4l4.1,4.1h-2.1l-4-4.1L86.2,114z M90.6,110.6c0.3,0,0.5,0.1,0.7,0.3
			c0.4,0.4,0.4,0.9,0,1.3c0,0,0,0,0,0c-0.2,0.2-0.4,0.3-0.7,0.3c-0.5,0-0.9-0.4-0.9-0.9c0-0.3,0.1-0.5,0.3-0.7
			C90.1,110.7,90.4,110.6,90.6,110.6L90.6,110.6z M89.8,114h1.6v8.1h-1.6V114z M93.7,109.8h1.6v12.3h-1.6V109.8z M97.6,109.8h1.6
			v12.3h-1.6V109.8z M101.1,121.5v-1.7c0.4,0.3,0.9,0.6,1.4,0.8c0.4,0.2,0.8,0.3,1.2,0.3c0.3,0,0.6-0.1,0.9-0.2
			c0.2-0.1,0.4-0.3,0.4-0.6c0-0.2-0.1-0.4-0.2-0.6c-0.3-0.3-0.6-0.5-1-0.7c-0.7-0.4-1.4-0.9-2-1.5c-0.3-0.4-0.5-0.8-0.5-1.3
			c0-0.6,0.3-1.2,0.7-1.5c0.5-0.4,1.2-0.6,1.9-0.6c0.9,0,1.7,0.2,2.4,0.7v1.6c-0.7-0.5-1.5-0.8-2.3-0.9c-0.3,0-0.5,0.1-0.8,0.2
			c-0.2,0.1-0.3,0.3-0.3,0.5c0,0.2,0.1,0.4,0.3,0.5c0.3,0.2,0.6,0.4,0.9,0.6l0.6,0.3c1.3,0.8,2,1.6,2,2.5c0,0.6-0.3,1.2-0.8,1.6
			c-0.6,0.4-1.3,0.7-2,0.6c-0.4,0-0.9,0-1.3-0.2C102,121.9,101.6,121.7,101.1,121.5L101.1,121.5z M113.6,122.1v-12.3h3.9
			c1,0,2,0.3,2.8,1c0.7,0.7,1.1,1.6,1,2.5c0,0.7-0.2,1.3-0.5,1.9c-0.4,0.5-0.9,1-1.5,1.2c-0.9,0.3-1.8,0.4-2.7,0.4h-1.3v5.3
			L113.6,122.1z M119.5,113.2c0-1.3-0.8-1.9-2.3-1.9h-1.8v3.8h1.9c0.6,0,1.2-0.1,1.7-0.5C119.3,114.3,119.5,113.8,119.5,113.2z
			 M124.3,114v1.8l0.1-0.1c0.8-1.2,1.5-1.9,2.3-1.9c0.7,0.1,1.4,0.4,1.9,0.9l-0.8,1.4c-0.4-0.5-0.9-0.7-1.5-0.8
			c-0.5,0-1,0.3-1.3,0.7c-0.4,0.5-0.6,1.1-0.6,1.7v4.2h-1.6V114L124.3,114z M133.3,114c1.1,0,2.2,0.4,3.1,1.2c0.8,0.8,1.3,1.9,1.2,3
			c0,1.1-0.4,2.2-1.2,2.9c-0.9,0.8-2,1.2-3.1,1.1c-1.1,0-2.2-0.4-3-1.2c-1.6-1.6-1.6-4.2,0-5.8c0,0,0,0,0,0
			C131.1,114.4,132.2,114,133.3,114L133.3,114z M133.2,115.4c-0.7,0-1.4,0.2-1.9,0.8c-0.5,0.5-0.8,1.2-0.7,1.9
			c0,0.7,0.2,1.4,0.8,1.9c1.1,1,2.8,1,3.9,0c0.5-0.5,0.8-1.2,0.8-1.9c0-0.7-0.3-1.4-0.8-1.9C134.7,115.7,134,115.4,133.2,115.4
			L133.2,115.4z M141.2,113.7c0,0.1,0,0.2,0,0.3h1.8v1.4h-1.8v6.7h-1.6v-6.7h-1.2V114h1.2v-0.3c-0.1-1.1,0.2-2.1,0.9-3
			c1.3-1.2,3.2-1.4,4.7-0.4c0.5,0.5,0.8,1.2,0.8,1.9h-1.5c-0.1-0.4-0.3-0.7-0.6-0.9c-0.3-0.2-0.6-0.3-0.9-0.3
			C141.8,111.1,141.2,112,141.2,113.7L141.2,113.7z M144.5,114h1.5v8.1h-1.5L144.5,114z M148.4,109.8h1.6v12.3h-1.6L148.4,109.8z
			 M159.1,118.2h-5.7c0,0.7,0.3,1.4,0.8,1.8c0.5,0.5,1.2,0.7,1.8,0.7c1.1,0,2.1-0.4,2.9-1v1.6c-0.5,0.3-0.9,0.5-1.5,0.7
			c-0.6,0.1-1.1,0.2-1.7,0.2c-0.8,0-1.5-0.2-2.2-0.6c-0.6-0.4-1-0.9-1.3-1.5c-0.3-0.7-0.5-1.4-0.5-2.2c-0.1-1.1,0.3-2.2,1-3
			c0.7-0.8,1.7-1.2,2.7-1.1c1,0,1.9,0.4,2.6,1.1c0.7,0.8,1,1.9,1,3L159.1,118.2z M153.4,117.2h4.1c0-0.5-0.2-1.1-0.6-1.5
			c-0.4-0.4-0.9-0.5-1.4-0.5c-0.5,0-1,0.2-1.4,0.5C153.8,116.1,153.6,116.6,153.4,117.2L153.4,117.2z M166.1,114v-0.5
			c-0.1-1,0.2-2.1,0.8-2.9c0.5-0.6,1.2-1,2-1c0.4,0,0.8,0.1,1.2,0.2v1.6c-0.2-0.1-0.5-0.1-0.7-0.1c-0.5-0.1-1,0.1-1.3,0.5
			c-0.3,0.5-0.4,1.2-0.4,1.8v0.5h1.4v1.4h-1.4v6.6h-1.6v-6.6h-1.2V114H166.1z M174.1,114c1.1,0,2.2,0.4,3.1,1.2
			c0.8,0.8,1.3,1.9,1.2,3c0,1.1-0.4,2.2-1.2,2.9c-0.9,0.8-2,1.2-3.1,1.1c-1.1,0-2.2-0.4-3-1.2c-0.8-0.8-1.3-1.8-1.2-2.9
			c0-1.1,0.4-2.2,1.2-3C171.9,114.4,173,114,174.1,114L174.1,114z M174,115.4c-0.7,0-1.4,0.2-1.9,0.8c-0.5,0.5-0.8,1.2-0.7,1.9
			c0,0.7,0.2,1.4,0.8,1.9c1.1,1,2.8,1,3.9,0c0.5-0.5,0.8-1.2,0.8-1.9c0-0.7-0.3-1.4-0.8-1.9C175.4,115.7,174.7,115.4,174,115.4z
			 M181.8,114v1.8l0.1-0.1c0.8-1.2,1.5-1.9,2.3-1.9c0.7,0.1,1.4,0.4,1.9,0.9l-0.8,1.4c-0.4-0.5-1-0.7-1.5-0.8c-0.5,0-1,0.3-1.3,0.7
			c-0.4,0.5-0.6,1.1-0.6,1.7v4.2h-1.6V114H181.8z M196.4,109.7h1.2l5.5,12.3h-1.8l-1.6-3.6h-5.2l-1.5,3.6h-1.8L196.4,109.7z
			 M198.9,116.9l-2-4.4l-1.8,4.4H198.9z M209.4,109.8h1.6v12.3h-3.4c-1.1,0-2.1-0.4-2.9-1.1c-0.7-0.8-1.1-1.9-1.1-3
			c0-1.1,0.4-2.1,1.1-2.9c0.7-0.8,1.8-1.2,2.9-1.1c0.6,0,1.2,0.1,1.8,0.3L209.4,109.8z M209.4,120.7v-5.1c-0.5-0.2-1-0.4-1.5-0.4
			c-0.7,0-1.4,0.3-1.9,0.8c-0.5,0.6-0.8,1.3-0.7,2.1c0,0.7,0.2,1.4,0.6,1.9c0.2,0.2,0.5,0.4,0.8,0.5c0.5,0.1,1,0.2,1.5,0.1H209.4z
			 M218.4,122.1v-1c-0.3,0.4-0.7,0.7-1.2,0.9c-0.4,0.2-0.8,0.3-1.3,0.3c-0.5,0-1-0.1-1.4-0.4c-0.4-0.2-0.8-0.6-1-1
			c-0.3-0.7-0.4-1.4-0.3-2.2V114h1.6v4.6c-0.1,0.6,0.1,1.2,0.4,1.8c0.3,0.4,0.8,0.6,1.3,0.5c0.8,0,1.5-0.4,1.9-1.1V114h1.6v8.1
			L218.4,122.1z M222.2,109.8h1.6v12.3h-1.6V109.8z M225,115.3l3-3v1.7h2.6v1.4H228v4c0,0.9,0.4,1.4,1.1,1.4c0.6,0,1.3-0.2,1.8-0.6
			v1.5c-0.6,0.3-1.3,0.5-2,0.5c-0.7,0-1.3-0.2-1.8-0.6c-0.1-0.1-0.3-0.3-0.4-0.4c-0.1-0.2-0.2-0.4-0.2-0.6c-0.1-0.5-0.1-1-0.1-1.5
			v-3.6H225L225,115.3z M232,121.5v-1.7c0.4,0.3,0.9,0.6,1.4,0.8c0.4,0.2,0.8,0.3,1.2,0.3c0.3,0,0.6-0.1,0.9-0.2
			c0.2-0.1,0.4-0.3,0.4-0.6c0-0.2-0.1-0.4-0.2-0.6c-0.3-0.3-0.6-0.5-1-0.7c-0.8-0.4-1.4-0.9-2-1.5c-0.3-0.4-0.5-0.8-0.5-1.3
			c0-0.6,0.3-1.2,0.7-1.5c0.5-0.4,1.2-0.6,1.9-0.6c0.9,0,1.7,0.2,2.4,0.7v1.6c-0.7-0.5-1.5-0.8-2.3-0.9c-0.3,0-0.5,0.1-0.7,0.2
			c-0.2,0.1-0.3,0.3-0.3,0.5c0,0.2,0.1,0.4,0.3,0.5c0.3,0.2,0.6,0.5,0.9,0.6l0.6,0.3c1.3,0.8,2,1.6,2,2.5c0,0.6-0.3,1.2-0.8,1.6
			c-0.6,0.4-1.3,0.7-2,0.6c-0.4,0-0.9,0-1.3-0.2C232.9,121.9,232.5,121.7,232,121.5L232,121.5z"/>
		<polygon class="st2" points="150.4,4.7 134.6,32 150.4,59.3 182,59.3 197.7,32 182,4.7 		"/>
		<g>
			<defs>
				<rect id="SVGID_3_" x="133.8" y="-8.5" width="376.4" height="99.9"/>
			</defs>
			<clipPath id="SVGID_4_">
				<use xlink:href="#SVGID_3_"  style="overflow:visible;"/>
			</clipPath>
			<g class="st3">
				<polygon class="st4" points="204.8,27.9 189,0.6 204.8,-26.7 236.3,-26.7 252.1,0.6 236.3,27.9 				"/>
			</g>
		</g>
		<polygon class="st4" points="259.2,59.3 243.4,32 259.2,4.7 290.7,4.7 306.5,32 290.7,59.3 		"/>
		<g>
			<defs>
				<rect id="SVGID_5_" x="133.8" y="-8.5" width="376.4" height="99.9"/>
			</defs>
			<clipPath id="SVGID_6_">
				<use xlink:href="#SVGID_5_"  style="overflow:visible;"/>
			</clipPath>
			<g class="st5">
				<polygon class="st4" points="313.5,27.9 297.8,0.6 313.5,-26.7 345.1,-26.7 360.8,0.6 345.1,27.9 				"/>
			</g>
		</g>
		<polygon class="st2" points="367.9,59.3 352.1,32 367.9,4.7 399.4,4.7 415.2,32 399.4,59.3 		"/>
		<g>
			<defs>
				<rect id="SVGID_7_" x="133.8" y="-8.5" width="376.4" height="99.9"/>
			</defs>
			<clipPath id="SVGID_8_">
				<use xlink:href="#SVGID_7_"  style="overflow:visible;"/>
			</clipPath>
			<g class="st6">
				<polygon class="st4" points="422.3,27.9 406.5,0.6 422.3,-26.7 453.8,-26.7 469.6,0.6 453.8,27.9 				"/>
			</g>
		</g>
		<polygon class="st2" points="476.7,4.7 460.9,32 476.7,59.3 508.2,59.3 510.2,55.8 510.2,8.2 508.2,4.7 		"/>
		<polygon class="st2" points="204.8,36.1 189,63.4 204.8,90.7 236.3,90.7 252.1,63.4 236.3,36.1 		"/>
		<g>
			<defs>
				<rect id="SVGID_9_" x="133.8" y="-8.5" width="376.4" height="99.9"/>
			</defs>
			<clipPath id="SVGID_10_">
				<use xlink:href="#SVGID_9_"  style="overflow:visible;"/>
			</clipPath>
			<g class="st7">
				<polygon class="st4" points="313.5,90.7 297.8,63.4 313.5,36.1 345.1,36.1 360.8,63.4 345.1,90.7 				"/>
				<polygon class="st4" points="422.3,90.7 406.5,63.4 422.3,36.1 453.8,36.1 469.6,63.4 453.8,90.7 				"/>
				<path class="st8" d="M179,20.9c-0.8,0.4-1.5,0.9-2.2,1.5c-1.3,1-2.4,2.2-3.3,3.6c-0.9,1.3-1.8,2.1-2.5,2.1
					c-0.3,0-0.5-0.1-0.7-0.3c-0.2-0.2-0.3-0.5-0.3-0.8c0.1-0.7,0.8-1.6,2.1-2.4c1.4-0.9,2.6-2,3.7-3.3c0.6-0.7,1.1-1.5,1.5-2.2
					l-0.6-0.5c0,0,0,0-0.1-0.1c-2.2,1.3-9.9,9-10,9.1s0.1,0.4,0.1,0.4l0,0l3.5,3.6l0,0c0,0,0.2,0.3,0.4,0.1s7.8-7.8,9.1-10l-0.1,0
					L179,20.9z"/>
				<path class="st8" d="M161,33.3c-0.2,0.2-0.3,0.4-0.4,0.7c0,0-2.7,3.2-2.9,3.4c-0.2,0.2-0.1,0.3-0.1,0.3
					c-0.2,0.2-0.5,0.4-0.7,0.6c-0.1,0.1-0.1,0.2-0.1,0.3c0,0-0.1,0-0.1,0.1c-0.1,0.1-0.1,0.2,0,0.3c0,0,0,0,0,0l2.3,2.3
					c0.1,0.1,0.2,0.1,0.3,0c0,0,0,0,0,0c0,0,0-0.1,0-0.1c0.1,0.1,0.2,0.1,0.3,0c0.2-0.3,0.4-0.5,0.6-0.7c0,0,0.1,0.1,0.3-0.1
					c0.2-0.2,3.4-2.8,3.4-2.8c0.3-0.1,0.5-0.2,0.7-0.4c0.3-0.3,3.7-3.8,4.9-5.1l-3.6-3.6C164.9,29.7,161.3,33.1,161,33.3"/>
				<path class="st8" d="M179.3,18.9c-1.1-1.1-2-0.9-2.3-0.7l3,3C180.2,20.8,180.4,20,179.3,18.9"/>
				<path class="st8" d="M155.1,40.9l-0.4,0.3l-0.1,0.1c-0.4,0.2-0.7,0.7-0.8,1.1c-0.2,0.8-0.4,1.5-0.7,2.2
					c-0.1,0.4-0.4,0.7-0.7,0.9l-0.1,0.1c0,0,0,0,0,0.1h0.1l0,0l0,0l1.5-1.5c0-0.1-0.1-0.1-0.1-0.2c0-0.2,0.2-0.3,0.4-0.3
					c0.2,0,0.3,0.1,0.3,0.3c0,0.2-0.2,0.4-0.4,0.4l0,0c-0.1,0-0.1,0-0.2-0.1l-1.5,1.5v0l0,0c0,0,0,0.1,0,0.1h0.1c0,0,0,0,0.1-0.1
					c0.2-0.3,0.6-0.5,0.9-0.7c0.7-0.3,1.5-0.6,2.2-0.7c0.5-0.1,0.9-0.4,1.1-0.8l0.1-0.1c0.1-0.1,0.2-0.3,0.3-0.4
					c0.4-0.6,0.8-1.1,1.3-1.5l-1.9-1.9C156.1,40.1,155.6,40.5,155.1,40.9"/>
				<path class="st2" d="M261.7,36.7h26.9c0.3,0,0.6-0.3,0.6-0.6v-17c0-0.3-0.3-0.6-0.6-0.6h-26.9c-0.3,0-0.6,0.3-0.6,0.6v17
					C261.1,36.4,261.4,36.7,261.7,36.7 M262.7,20.7h25v13.7h-25V20.7z"/>
				<path class="st2" d="M292.8,43.2l-3.4-5.7c-0.2-0.3-0.5-0.4-0.8-0.3h-26.9c-0.3,0-0.6,0.1-0.8,0.3l-3.4,5.7c0,0-0.8,1.3,3.2,1.2
					h28.9C293.6,44.4,292.8,43.2,292.8,43.2 M271.5,41.4L271.5,41.4 M271.6,41.3h7.2 M278.8,41.4L278.8,41.4l0.3,1.5c0,0,0,0,0,0
					h-7.8L278.8,41.4z M262,38.3c0-0.1,0.1-0.1,0.2-0.1h20.8c0.1,0,0.2,0,0.2,0.1l0.9,2.1h-23.3L262,38.3z M289.7,40.3h-4.2
					c-0.1,0-0.3,0-0.3-0.1l-0.9-2.1l0,0c0.1,0,0.1,0,0.2,0h3.9c0.1,0,0.2,0,0.3,0.1L289.7,40.3L289.7,40.3z"/>
				<path class="st2" d="M335,4l-0.6-0.2c-0.6-0.2-0.9-0.8-0.7-1.4c0.1-0.3,0.2-0.5,0.5-0.6l0,0l0.5-0.4c0.4-0.2,0.3-0.4,0.3-0.5
					s-0.1-0.3-0.5-0.2h-0.8c-0.4,0-0.7-0.2-0.9-0.5c-0.2-0.4-0.2-0.9,0.1-1.2l0.4-0.5c0.3-0.3,0.2-0.5,0.1-0.6
					c-0.1-0.1-0.2-0.2-0.6-0.1l-0.6,0.2l0,0C331.7-2,331.3-2,331-2.3c-0.3-0.3-0.5-0.8-0.3-1.2l0.2-0.6c0.2-0.4,0-0.5-0.1-0.6
					s-0.2-0.2-0.6,0.1l-0.5,0.4l0,0C329.4-4,329-3.9,328.6-4c-0.4-0.2-0.7-0.6-0.6-1.1c0-0.3,0-0.6,0-0.6c0-0.4-0.2-0.5-0.2-0.5
					c-0.1,0-0.3-0.1-0.5,0.2l-0.4,0.5C326.7-5.2,326.3-5,326-5c-0.5,0-0.8-0.3-1-0.7c-0.1-0.3-0.2-0.6-0.2-0.6
					c-0.1-0.4-0.3-0.4-0.4-0.4s-0.3,0-0.4,0.4c0,0-0.1,0.3-0.2,0.6c-0.2,0.4-0.5,0.7-1,0.7c-0.4,0-0.7-0.2-1-0.5L321.3-6
					c-0.2-0.3-0.4-0.3-0.5-0.2c-0.1,0-0.3,0.1-0.2,0.5c0,0,0,0.3,0,0.6c0,0.5-0.3,0.9-0.7,1.1c-0.4,0.1-0.8,0.1-1.1-0.1l0,0
					l-0.5-0.4c-0.3-0.3-0.5-0.1-0.6-0.1s-0.2,0.2-0.1,0.6c0,0,0.1,0.3,0.2,0.6c0.2,0.4,0,0.9-0.3,1.2c-0.3,0.3-0.7,0.3-1.1,0.2l0,0
					l-0.6-0.2c-0.4-0.1-0.5,0-0.6,0.1c-0.1,0.1-0.2,0.2,0.1,0.6l0.4,0.5c0.3,0.4,0.3,0.9,0.1,1.2c-0.2,0.3-0.6,0.5-0.9,0.5h-0.8
					c-0.4,0-0.5,0.2-0.5,0.2s-0.1,0.3,0.2,0.5l0.5,0.4l0,0c0.3,0.2,0.5,0.6,0.5,1c0,0.5-0.3,0.9-0.8,1l-0.6,0.2
					c-0.4,0.1-0.4,0.3-0.4,0.4c0,0.1,0,0.3,0.4,0.4l0.6,0.2l0,0c0.4,0.1,0.7,0.4,0.8,0.8c0.1,0.4,0,0.9-0.4,1.1L314,7.4
					c-0.4,0.2-0.3,0.4-0.3,0.5s0.1,0.3,0.5,0.3c0.2,0,0.5,0,0.7,0c0.6,0,1.1,0.5,1.1,1.1c0,0.2-0.1,0.5-0.2,0.7
					c-0.2,0.3-0.4,0.5-0.4,0.5c-0.3,0.3-0.2,0.5-0.1,0.6s0.2,0.2,0.6,0.1l0.6-0.2l0,0c0.4-0.1,0.8-0.1,1.1,0.2
					c0.4,0.3,0.5,0.8,0.3,1.2c-0.1,0.3-0.2,0.6-0.2,0.6c-0.2,0.4,0,0.5,0.1,0.6c0.1,0,0.2,0.2,0.6-0.1l0.5-0.4l0,0
					c0.3-0.2,0.7-0.3,1.1-0.1c0.4,0.2,0.7,0.6,0.7,1c0,0.3,0,0.6,0,0.6c0,0.4,0.2,0.5,0.2,0.5c0.1,0,0.3,0.1,0.5-0.2l0.4-0.5
					c0.3-0.5,1-0.7,1.5-0.4c0.2,0.1,0.4,0.4,0.5,0.6c0.1,0.3,0.2,0.6,0.2,0.6c0.1,0.4,0.3,0.4,0.4,0.4s0.3,0,0.4-0.4
					c0,0,0.1-0.3,0.2-0.6c0.2-0.4,0.5-0.7,1-0.7c0.4,0,0.8,0.2,1,0.5l0.4,0.5c0.2,0.3,0.4,0.3,0.5,0.2c0.1,0,0.3-0.1,0.2-0.5
					c0,0,0-0.3,0-0.6c0-0.6,0.5-1.1,1.1-1.1c0.2,0,0.5,0.1,0.7,0.2l0,0l0.5,0.4c0.3,0.2,0.5,0.1,0.6,0.1c0.1-0.1,0.2-0.2,0.1-0.6
					l-0.2-0.6c-0.2-0.4,0-0.9,0.3-1.2c0.3-0.3,0.7-0.3,1.1-0.2l0,0l0.6,0.2c0.4,0.1,0.5,0,0.6-0.1s0.2-0.2-0.1-0.6
					c0,0-0.2-0.2-0.4-0.5c-0.3-0.3-0.3-0.8-0.1-1.2c0.2-0.3,0.6-0.5,0.9-0.5c0.2,0,0.5,0,0.7,0c0.4,0,0.5-0.2,0.5-0.3
					s0.1-0.3-0.3-0.5L334,7c-0.5-0.3-0.6-1-0.3-1.5c0.2-0.2,0.4-0.4,0.7-0.5l0,0l0.6-0.2c0.4-0.1,0.4-0.3,0.4-0.4
					C335.4,4.3,335.4,4.1,335,4 M324.3,8.3c-2.1,0-3.8-1.7-3.8-3.8s1.7-3.8,3.8-3.8c2.1,0,3.8,1.7,3.8,3.8c0,0,0,0,0,0
					C328.1,6.5,326.4,8.2,324.3,8.3"/>
				<path class="st2" d="M345.2-7.4l-0.4-0.1c-0.3-0.1-0.5-0.4-0.5-0.7c0-0.3,0.1-0.5,0.3-0.6l0,0l0.3-0.2c0.2-0.2,0.2-0.3,0.2-0.3
					c0-0.1-0.1-0.2-0.3-0.2h-0.5c-0.3,0-0.5-0.1-0.6-0.4c-0.1-0.3-0.1-0.6,0.1-0.8L344-11c0.2-0.2,0.1-0.3,0.1-0.4
					c0,0-0.1-0.2-0.4-0.1l-0.4,0.1l0,0c-0.2,0.1-0.5,0-0.7-0.1c-0.2-0.2-0.3-0.5-0.2-0.8c0.1-0.2,0.1-0.4,0.1-0.4
					c0.1-0.3,0-0.3,0-0.4c0,0-0.1-0.1-0.4,0.1l-0.3,0.2l0,0c-0.2,0.2-0.5,0.2-0.7,0.1c-0.3-0.1-0.4-0.4-0.4-0.7c0-0.2,0-0.4,0-0.4
					c0-0.3-0.1-0.3-0.2-0.3s-0.2-0.1-0.3,0.2l-0.2,0.3c-0.1,0.2-0.4,0.3-0.6,0.3c-0.3,0-0.6-0.2-0.7-0.5c-0.1-0.2-0.1-0.4-0.1-0.4
					c-0.1-0.3-0.2-0.3-0.3-0.3s-0.2,0-0.3,0.3l-0.1,0.4c-0.1,0.3-0.4,0.5-0.7,0.5c-0.3,0-0.5-0.1-0.6-0.3l-0.2-0.3
					c-0.2-0.2-0.3-0.2-0.4-0.2s-0.2,0.1-0.2,0.3c0,0,0,0.2,0,0.4c0,0.3-0.2,0.6-0.5,0.7c-0.2,0.1-0.5,0.1-0.7-0.1l0,0l-0.3-0.2
					c-0.2-0.2-0.3-0.1-0.4-0.1c0,0-0.2,0.1-0.1,0.4l0.1,0.4c0.1,0.3,0,0.6-0.2,0.8c-0.2,0.2-0.5,0.2-0.7,0.1l0,0l-0.4-0.1
					c-0.3-0.1-0.4,0-0.4,0.1c0,0.1-0.1,0.2,0.1,0.4l0.3,0.3c0.2,0.2,0.2,0.6,0.1,0.8c-0.1,0.2-0.4,0.4-0.6,0.4h-0.5
					c-0.3,0-0.3,0.1-0.3,0.2c0,0.1-0.1,0.2,0.2,0.3l0.3,0.2l0,0c0.2,0.1,0.3,0.4,0.3,0.6c0,0.3-0.2,0.6-0.5,0.7l-0.4,0.1
					c-0.3,0.1-0.3,0.2-0.3,0.3s0,0.2,0.3,0.3l0.4,0.1l0,0c0.3,0.1,0.4,0.3,0.5,0.5c0.1,0.3,0,0.6-0.3,0.8l-0.3,0.2
					c-0.2,0.2-0.2,0.3-0.2,0.3s0.1,0.2,0.3,0.2c0.1,0,0.3,0,0.5,0c0.3,0,0.5,0.1,0.6,0.4c0.2,0.3,0.1,0.6-0.1,0.8l-0.3,0.3
					c-0.2,0.2-0.1,0.3-0.1,0.4c0,0,0.1,0.2,0.4,0.1l0.4-0.1l0,0c0.2-0.1,0.5,0,0.7,0.1c0.2,0.2,0.3,0.5,0.2,0.8l-0.1,0.4
					c-0.1,0.3,0,0.3,0.1,0.4c0.1,0,0.1,0.1,0.4,0l0.3-0.2l0,0c0.2-0.2,0.5-0.2,0.7-0.1c0.3,0.1,0.5,0.4,0.5,0.7c0,0.2,0,0.4,0,0.4
					c0,0.3,0.1,0.3,0.2,0.3s0.2,0.1,0.4-0.2l0.2-0.3c0.1-0.2,0.4-0.4,0.6-0.3c0.3,0,0.6,0.2,0.7,0.5c0.1,0.2,0.1,0.4,0.1,0.4
					c0.1,0.3,0.2,0.3,0.3,0.3s0.2,0,0.3-0.3l0.1-0.4c0.1-0.3,0.4-0.5,0.7-0.5c0.3,0,0.5,0.1,0.6,0.3l0.2,0.3
					c0.2,0.2,0.3,0.2,0.3,0.2s0.2-0.1,0.2-0.3c0,0,0-0.2,0-0.4c0-0.3,0.2-0.6,0.4-0.7c0.2-0.1,0.5-0.1,0.7,0.1l0,0l0.3,0.2
					c0.2,0.2,0.3,0.1,0.4,0c0,0,0.2-0.1,0-0.4c0,0-0.1-0.2-0.1-0.4c-0.1-0.3,0-0.6,0.2-0.8c0.2-0.2,0.5-0.2,0.7-0.1l0,0l0.4,0.1
					c0.3,0.1,0.3,0,0.4-0.1c0-0.1,0.1-0.2-0.1-0.4l-0.3-0.3c-0.2-0.2-0.2-0.6-0.1-0.8c0.1-0.2,0.4-0.4,0.6-0.4c0.2,0,0.3,0,0.5,0
					c0.3,0,0.3-0.1,0.3-0.2s0.1-0.2-0.2-0.3l-0.3-0.2c-0.2-0.2-0.4-0.5-0.3-0.8c0.1-0.2,0.3-0.4,0.5-0.5l0,0l0.4-0.1
					c0.3-0.1,0.3-0.2,0.3-0.3S345.5-7.3,345.2-7.4 M338.2-4.5c-1.4,0-2.5-1.1-2.5-2.5c0,0,0,0,0,0c0-1.4,1.1-2.5,2.5-2.5
					c0,0,0,0,0,0c1.4,0,2.5,1.1,2.5,2.5S339.6-4.5,338.2-4.5"/>
				<path class="st2" d="M230.2-10.2c-0.4-2.4-1.8-4.6-3.8-6c-1.7-1.2-3.8-1.8-5.9-1.7c-2.1,0-4.2,0.6-5.9,1.7c-2,1.4-3.4,3.6-3.8,6
					c-0.9,4.4,1.1,7.5,2.4,9.5c0.3,0.5,0.6,0.9,0.8,1.3c0.5,1.2,0.8,2.5,1,3.9c0,0.9,0.5,1.8,1.3,2.3c0.1,0,0.1,0.1,0.2,0.1v0.7
					c0,0.2,0.2,0.4,0.4,0.4l0,0l7.5-0.5c0.2,0,0.4-0.2,0.4-0.4c0,0,0,0,0,0V6.9c0.1,0,0.1,0,0.2-0.1c0.8-0.5,1.2-1.4,1.3-2.3
					c0.1-1.3,0.4-2.6,0.9-3.9c0.2-0.4,0.4-0.8,0.8-1.3C229.2-2.7,231.1-5.8,230.2-10.2 M221.4-1.1c-0.1-0.1-0.2-0.1-0.3-0.1v-2.5
					c0,0,0-0.1,0-0.1h0.2c0.2,0,0.3-0.2,0.3-0.3c0-0.2-0.2-0.3-0.3-0.3h-1.4c-0.2,0-0.3,0.2-0.3,0.3c0,0.2,0.1,0.3,0.3,0.3h0.2
					c0,0,0,0.1,0,0.1v2.5c-0.1,0-0.2,0.1-0.3,0.1l-2.3-6.3c-0.2-0.4-0.1-0.7,0-0.8c0.1-0.1,0.2-0.1,0.3,0c0.3,0.2,0.6,0.3,0.9,0.4
					c0,0.1,0,0.1,0,0.2c0.3,0.8,1.2,1.2,2,1.1h0.1c0.8,0.1,1.7-0.3,2-1.1c0-0.1,0-0.1,0.1-0.2c0.3-0.1,0.6-0.2,0.9-0.4
					c0.1-0.1,0.2-0.1,0.3,0c0.1,0.1,0.1,0.3,0,0.8L221.4-1.1z M227.1-1.2c-0.3,0.5-0.6,1-0.8,1.4c-0.5,1.3-0.9,2.8-1,4.2l0,0
					c0,0.6-0.3,1.2-0.8,1.6H222c0,0,0-0.1,0-0.1v-6c0-0.3-0.1-0.5-0.3-0.7l2.3-6.4c0.3-0.7,0.1-1,0-1.1c-0.2-0.1-0.4-0.1-0.6,0
					c-0.2,0.1-0.5,0.2-0.7,0.3c0-0.3-0.1-0.6-0.3-0.8c-0.3-0.3-0.7-0.3-1,0c-0.3,0.3-0.3,0.8,0,1c0.3,0.2,0.7,0.3,1,0.2
					c-0.1,0.3-0.5,0.9-1.7,0.9c-1.2,0-1.6-0.6-1.7-0.9c0.3,0.1,0.7,0.1,1-0.2c0.3-0.3,0.3-0.7,0-1c-0.3-0.3-0.7-0.3-1,0
					c-0.2,0.2-0.3,0.5-0.3,0.8c-0.2-0.1-0.5-0.2-0.7-0.3c-0.2-0.1-0.4-0.1-0.6,0c-0.1,0.1-0.3,0.4,0,1.1l2.3,6.4
					c-0.2,0.2-0.3,0.5-0.3,0.7V6h-2.5c-0.5-0.4-0.7-0.9-0.8-1.5l0,0c-0.1-1.4-0.5-2.9-1-4.2c-0.2-0.4-0.5-0.9-0.8-1.4
					c-1.5-2.1-3.2-4.9-2.4-8.9c1.3-6.4,7-6.9,8.8-6.9c1.8,0,7.4,0.5,8.8,7C230.1-5.9,228.3-3.1,227.1-1.2 M222.3-8
					c-0.4,0.1-0.7,0.1-0.8,0c-0.2-0.2-0.2-0.4,0-0.6c0,0,0,0,0,0c0.1-0.1,0.2-0.1,0.3-0.1c0.1,0,0.2,0.1,0.3,0.1
					C222.3-8.4,222.3-8.2,222.3-8 M218.8-8c0-0.2,0.1-0.5,0.2-0.6c0.2-0.2,0.4-0.2,0.6,0c0,0,0,0,0,0c0.2,0.2,0.2,0.4,0,0.6
					c0,0,0,0,0,0C219.5-7.8,219.1-7.8,218.8-8"/>
				<path class="st2" d="M224.4,8.1l-7.8,0.5c-0.3,0-0.5,0.2-0.5,0.5s0.2,0.5,0.5,0.5l0,0l7.8-0.5c0.2,0,0.4-0.2,0.4-0.5
					c0,0,0,0,0,0C224.9,8.3,224.7,8.1,224.4,8.1C224.4,8.1,224.4,8.1,224.4,8.1"/>
				<path class="st2" d="M224.4,9.6l-7.8,0.5c-0.3,0-0.4,0.2-0.4,0.5c0,0,0,0,0,0c0,0.2,0.2,0.4,0.4,0.4l0,0l7.8-0.5
					c0.3,0,0.4-0.2,0.4-0.5C224.9,9.8,224.7,9.6,224.4,9.6C224.4,9.6,224.4,9.6,224.4,9.6"/>
				<path class="st2" d="M224.4,11.1l-7.8,0.5c-0.2,0-0.4,0.2-0.4,0.4c0,0,0,0,0,0c0,0.2,0.2,0.4,0.4,0.4l0,0l7.8-0.5
					c0.3,0,0.4-0.2,0.4-0.5C224.8,11.3,224.6,11.1,224.4,11.1C224.4,11.1,224.4,11.1,224.4,11.1"/>
				<path class="st2" d="M224.3,12.5L224.3,12.5l-7.5,0.5c0,0-0.3,0-0.1,0.4s2.2,2.2,2.2,2.2c0.1,0.1,0.3,0.2,0.5,0.2h2.4
					c0.2,0,0.4-0.1,0.5-0.2c0,0,1.9-2,2.1-2.3c0.1-0.1,0.2-0.3,0.2-0.5C224.6,12.6,224.5,12.5,224.3,12.5"/>
				<path class="st8" d="M233.9,72.8h-26.1V50c0-0.3-0.2-0.5-0.6-0.5s-0.6,0.2-0.6,0.5l0,0v23.4c0,0.3,0.2,0.5,0.6,0.5l0,0h26.7
					c0.3,0,0.6-0.2,0.6-0.5S234.2,72.8,233.9,72.8C233.9,72.8,233.9,72.8,233.9,72.8"/>
				<rect x="211.2" y="64" class="st8" width="3.3" height="7.4"/>
				<rect x="216.1" y="59.4" class="st8" width="3.3" height="11.9"/>
				<rect x="221" y="65.4" class="st8" width="3.3" height="6"/>
				<rect x="226" y="54.5" class="st8" width="3.3" height="16.8"/>
				<path class="st2" d="M346.9,73.5L346.9,73.5c-0.2-0.1-0.3-0.2-0.3-0.6v-1.8c0-0.4-0.3-0.7-0.8-0.7h-0.1
					c-0.2-0.1-0.5-0.3-0.6-0.6c-0.2-0.4-0.5-0.4-1.1-0.4h-12.6c-0.6,0-0.9,0-1.1,0.4c-0.1,0.2-0.3,0.4-0.6,0.6h-0.1
					c-0.4,0-0.7,0.3-0.8,0.7v1.8c0,0.4-0.1,0.5-0.3,0.6l0,0c-0.1,0-0.2,0.1-0.2,0.2v0.6c0,0.1,0.1,0.2,0.2,0.2h18.2
					c0.1,0,0.2-0.1,0.2-0.2v-0.6C347.1,73.6,347,73.5,346.9,73.5"/>
				<path class="st2" d="M340.9,62l-7.3,2.8l0,0c0,0.1,0,0.1,0,0.2c-0.2,0.4-0.2,0.9,0,1.4c0.7,1.3,2.5,0.6,2.5,0.6l4.6-1.7
					c0,0,1.8-0.6,1.5-2.1c-0.1-0.5-0.3-0.7-0.9-1L341,62L340.9,62"/>
				<path class="st2" d="M330.6,56.2l7-2.7c0.1-0.5,0.5-0.7,0.3-1.4c-0.3-0.8-1.4-1.4-4.8-0.1s-3.9,2.4-3.6,3.3
					C329.7,56.2,330.2,55.9,330.6,56.2"/>
				<path class="st2" d="M330.7,61.8c0.1,0.2,0.4,0.3,0.6,0.2l0.8-0.3c0.1,0.2,0.1,0.3,0.2,0.4c0.3,0.6-0.1,0.9,0,1.4
					s0.4,0.5,0.7,0.5c0.1,0,0.2,0.1,0.2,0.1l7.2-2.8l0,0c0-0.1,0.1-0.1,0.1-0.2c0.2-0.3,0.4-0.6,0.2-0.9c-0.2-0.3-0.7-0.4-0.9-1.1
					c-0.2-0.7-1.3-3.5-1.3-3.5c0.1-0.3,0.2-0.7,0.1-1c-0.1-0.4-0.6-0.3-1-0.5l-7.2,2.7c-0.2,0.3-0.5,0.6-0.4,1
					c0.1,0.3,0.4,0.5,0.7,0.7l0.3,0.7l-0.8,0.3c-0.2,0.1-0.4,0.3-0.3,0.6c0,0.3-1.5,0.7-2,0.9c-2.9,0.7-5.7,1.5-8.5,2.5
					c-2.6,1-5.1,2.3-7.5,3.8c-0.5-0.4-1.3-0.3-1.7,0.2c-0.4,0.5-0.3,1.3,0.2,1.7c0.3,0.3,0.8,0.3,1.2,0.2c0.4-0.1,0.6-0.4,0.8-0.8
					c2.8-0.5,5.5-1.3,8.2-2.2c2.8-1.1,5.4-2.4,8-3.9C329.1,62.3,330.6,61.6,330.7,61.8"/>
				<path class="st8" d="M397.6,37.7l-6.7-3.8l-4.3-16.2c-0.1-0.9-1.3-1.6-2.9-1.6c-1.6,0-2.8,0.7-2.9,1.6l-4.3,16.2l-6.7,3.8
					c-0.3,0.1-0.5,0.4-0.5,0.8V39l0,0c0,0.3,0.2,0.6,0.5,0.7l12.6,7.3c0.8,0.4,1.8,0.4,2.6,0l12.6-7.2c0.3-0.1,0.5-0.4,0.5-0.7l0,0
					l0,0l0,0v-0.5C398.1,38.2,397.9,37.9,397.6,37.7 M383.7,17.3c0.7,0,1.2,0.2,1.2,0.5s-0.5,0.5-1.2,0.5c-0.7,0-1.2-0.2-1.2-0.5
					S383,17.3,383.7,17.3 M381.6,21.7c1.3,0.5,2.8,0.5,4.2,0l1,3.6c-1.9,0.9-4.2,0.9-6.1,0L381.6,21.7z M379.6,29.1
					c2.5,1.3,5.6,1.3,8.1,0l1.1,4.2c-3.2,1.9-7.2,1.9-10.4,0L379.6,29.1z M390.4,37.8L390.4,37.8c0,0,0,0.1-0.1,0.1
					c-0.1,0.1-0.1,0.3-0.3,0.5c-0.1,0.2-0.1,0.2-0.2,0.3s-0.2,0.2-0.3,0.3l-0.2,0.2l-0.2,0.2c-0.1,0.1-0.3,0.2-0.4,0.3
					c-0.2,0.1-0.3,0.2-0.5,0.3c-0.2,0.1-0.4,0.2-0.5,0.3c-0.2,0.1-0.4,0.2-0.6,0.3c-0.2,0.1-0.4,0.2-0.7,0.2l-0.3,0.1l-0.4,0.1
					c-0.2,0.1-0.5,0.1-0.7,0.1c-0.2,0-0.5,0.1-0.7,0.1h-0.7h-0.7h-0.4h-0.4c-0.5-0.1-1-0.1-1.4-0.3l-0.7-0.2l-0.6-0.3
					c-0.2-0.1-0.4-0.2-0.6-0.3s-0.3-0.2-0.5-0.3c-0.3-0.2-0.5-0.5-0.8-0.7c-0.1-0.1-0.2-0.2-0.3-0.3c-0.1-0.1-0.1-0.2-0.2-0.3
					c-0.1-0.2-0.2-0.3-0.2-0.5c0-0.1,0-0.1-0.1-0.1c0,0,0,0,0-0.1l0,0c1,1.1,3,2.4,6.6,2.4s5.9-1.4,7-2.5
					C390.5,37.7,390.5,37.8,390.4,37.8"/>
				<path class="st2" d="M453,2.7c-0.5-5.8-3.1-10.2-6.8-12.8c-0.2,0.5-0.4,1-0.7,1.4c-0.1,0.2-0.2,0.5-0.4,0.7l-0.4,0.7
					c-0.1,0.2-0.2,0.5-0.4,0.7s-0.3,0.5-0.4,0.7c0.1-0.3,0.1-0.5,0.2-0.8c0.1-0.3,0.1-0.5,0.2-0.8l0.2-0.8c0.1-0.3,0.1-0.5,0.2-0.8
					c0.3-0.9,0.5-1.8,0.8-2.7h-0.1l-0.5-0.2c-0.3-0.1-0.6-0.3-0.9-0.4c-0.2-0.1-0.3-0.1-0.5-0.2c-0.2-0.1-0.3-0.1-0.5-0.1l-0.4-0.1
					l-0.2,2.5l-0.4,4.4L442-3.6c-0.1,0.7-0.2,1.5-0.2,2.2s-0.2,1.4-0.3,2.2s-0.2,1.4-0.3,2.2c0-0.7,0-1.5,0-2.2s0-1.5,0-2.2
					s0-1.5,0.1-2.2l0.1-2.2l0.2-4.4l0.2-3.9h0l-0.5-0.1l-0.5-0.1l-0.5,0c-0.4,0-0.7,0-1.1-0.1H437c-0.3,0-0.7,0-1,0.1l-0.5,0
					l-0.5,0.1l-0.5,0.1l0,0l0.2,3.9l0.1,2.2l0.1,2.2l0.1,2.2c0,0.7,0,1.5,0.1,2.2s0,1.5,0,2.2s0,1.5,0,2.2c-0.1-0.7-0.2-1.4-0.3-2.2
					s-0.2-1.4-0.3-2.2s-0.2-1.4-0.2-2.2L434-5.8L433.7-8l-0.2-2.2l-0.2-2.5l-0.4,0.1l-0.5,0.1l-0.5,0.2c-0.3,0.1-0.6,0.2-1,0.4
					l-0.5,0.2h-0.1c0.3,0.9,0.6,1.8,0.9,2.7c0.2,0.5,0.3,1.1,0.5,1.6s0.3,1.1,0.4,1.6c-0.3-0.5-0.5-1-0.8-1.5s-0.5-1-0.7-1.5
					c-0.2-0.5-0.4-1-0.6-1.4c-3.8,2.5-6.4,6.9-6.8,12.8c-1,0.9-1.7,2.2-1.9,3.6c0,3.3,7.5,5.8,16.8,5.8s16.8-2.5,16.8-5.8
					C454.7,4.9,454,3.6,453,2.7 M453,4.3c0,0.1-0.1,0.2-0.1,0.2c-0.1,0.1-0.2,0.3-0.2,0.4c-0.1,0.2-0.3,0.3-0.4,0.5
					c-0.2,0.2-0.4,0.3-0.5,0.5l-0.3,0.3L451,6.4c-0.6,0.4-1.2,0.7-1.9,1c-0.8,0.3-1.6,0.6-2.4,0.8l-0.6,0.2l-0.7,0.1
					c-0.5,0.1-0.9,0.2-1.4,0.2l-1.5,0.2L441.1,9c-0.2,0-0.5,0-0.8,0h-0.8h-1.5h-1.5h-0.8H435l-1.5-0.1l-1.4-0.2
					c-0.5-0.1-0.9-0.1-1.4-0.2L430,8.3l-0.7-0.2c-0.4-0.1-0.8-0.2-1.2-0.4l-0.6-0.2l-0.3-0.1L427,7.4c-0.7-0.3-1.3-0.6-1.9-1
					l-0.4-0.2l-0.3-0.3c-0.2-0.2-0.4-0.3-0.6-0.5c-0.1-0.1-0.3-0.3-0.4-0.4c-0.1-0.1-0.2-0.3-0.2-0.4c0-0.1-0.1-0.2-0.1-0.2V4.2
					c0,0,0,0.1,0,0.1l0.1,0.2c0.1,0.1,0.2,0.2,0.3,0.3l0.2,0.2c0.1,0.1,0.1,0.1,0.2,0.2c0.2,0.2,0.4,0.3,0.6,0.4l0.3,0.2l0.4,0.2
					c0.3,0.1,0.6,0.3,0.9,0.4c0.3,0.1,0.7,0.2,1,0.3l0.3,0.1l0.3,0.1l0.6,0.1c0.4,0.1,0.8,0.2,1.2,0.3c0.2,0,0.4,0.1,0.6,0.1
					l0.7,0.1c0.5,0.1,0.9,0.1,1.4,0.2l1.4,0.1l1.5,0.1h0.7h0.8h1.5h1.5h0.8h0.7l1.5-0.1l1.4-0.1c0.5,0,0.9-0.1,1.4-0.2l0.7-0.1
					c0.2,0,0.4-0.1,0.6-0.1c0.4-0.1,0.8-0.1,1.2-0.3l0.6-0.1l0.3-0.1l0.3-0.1c0.3-0.1,0.7-0.2,1-0.4c0.3-0.1,0.6-0.2,0.8-0.4
					l0.4-0.2l0.4-0.2c0.2-0.1,0.4-0.3,0.6-0.4c0.1-0.1,0.2-0.1,0.2-0.2l0.2-0.2c0.1-0.1,0.2-0.2,0.3-0.3L453,4.3
					C453,4.2,453,4.2,453,4.3L453,4.3"/>
				<path class="st2" d="M443.6,48.6h-11c-1.3,0-2.3,1-2.3,2.3v25c0,1.3,1,2.3,2.3,2.3l0,0h11c1.3,0,2.3-1,2.3-2.3v0v-25
					C445.9,49.6,444.8,48.6,443.6,48.6 M435.8,50.3h4.4c0.2,0,0.4,0.2,0.4,0.4c0,0.2-0.2,0.4-0.4,0.4h-4.4c-0.2,0-0.4-0.2-0.4-0.4
					C435.5,50.4,435.6,50.3,435.8,50.3L435.8,50.3 M439.8,76.4c0,0.2-0.2,0.3-0.3,0.3h-2.9c-0.2,0-0.3-0.2-0.3-0.3v-1.5
					c0-0.2,0.2-0.3,0.3-0.3h2.9c0.2,0,0.3,0.2,0.3,0.3L439.8,76.4z M444.4,73.1h-12.6V53.7h12.6L444.4,73.1z"/>
				<path class="st8" d="M491.8,38.9c-0.7,1.1-1.3,1.4-1.5,1.3s-0.5-0.6-0.6-1.9l-0.2-3.4l-1.8-0.9l0.2,4.4c0.1,2.5,1.1,3.3,1.9,3.5
					c0.8,0.2,2,0,3.4-2.1l1.4-2.2l-1.6-0.8L491.8,38.9z"/>
				<path class="st8" d="M480.4,27.1l-0.1-0.1l-4.7-1c-0.5-0.1-1,0.2-1.1,0.7c-0.1,0.5,0.2,1,0.7,1.1c0,0,0,0,0,0l4.4,0.9l16.6,9
					c0.2-0.6,0.5-1.2,0.9-1.7L480.4,27.1z"/>
				<path class="st8" d="M505.1,40.6l-0.4-0.2c-0.2,0.6-0.5,1.2-0.9,1.7l0.4,0.2c0.1,0.1,0.3,0.1,0.5,0.1c0.3,0,0.7-0.2,0.8-0.5
					C505.7,41.4,505.6,40.8,505.1,40.6"/>
				<path class="st8" d="M500.5,38.2c-0.5,0-0.9,0.4-0.9,0.9c0,0.5,0.4,0.9,0.9,0.9c0.5,0,0.9-0.4,0.9-0.9c0,0,0,0,0,0
					C501.4,38.6,501,38.2,500.5,38.2"/>
				<path class="st8" d="M500.5,35.2c-2.1,0-3.9,1.7-3.9,3.9s1.7,3.9,3.9,3.9c2.1,0,3.9-1.7,3.9-3.9C504.4,37,502.6,35.2,500.5,35.2
					C500.5,35.2,500.5,35.2,500.5,35.2 M500.5,40.6c-0.8,0-1.5-0.7-1.5-1.5c0-0.8,0.7-1.5,1.5-1.5c0.8,0,1.5,0.7,1.5,1.5
					c0,0,0,0,0,0C502,39.9,501.3,40.6,500.5,40.6"/>
				<path class="st8" d="M507.5,23.3H485c-0.4,0-0.8,0.3-0.8,0.7c0,0,0,0,0,0v0.2c0,0.4,0.3,0.8,0.8,0.8c0,0,0,0,0,0h0.3l2.4,5.1
					l9.8,5.2l9.8-10.3h0.2c0.4,0,0.8-0.4,0.8-0.8v-0.2C508.2,23.6,507.9,23.3,507.5,23.3"/>
			</g>
		</g>
		<rect x="503.9" y="-2.1" class="st8" width="93.5" height="93.5"/>
		<polygon points="503.9,0.7 503.9,91.4 594.6,91.4 		"/>
		<line class="st9" x1="-9.2" y1="155.9" x2="603.8" y2="155.9"/>
	</g>
</g>
<g>
	<g>
		<path d="M29.7,131.4h2.6c1.3,0,2.4,0.3,3,0.8s1,1.3,1,2.3c0,1.2-0.6,2.1-1.8,2.7c1.9,0.4,2.8,1.4,2.8,3.1c0,1-0.4,1.8-1.1,2.4
			s-1.7,0.9-3,0.9h-3.6V131.4z M30.7,132.2v4.9H32c2.2,0,3.3-0.8,3.3-2.4c0-1.6-1.1-2.5-3.4-2.5H30.7z M30.7,137.9v5h2.5
			c1,0,1.8-0.2,2.4-0.7s0.8-1.1,0.8-1.8c0-1.7-1.2-2.5-3.6-2.5H30.7z"/>
		<path d="M45.5,142.2v0.7c-0.7,0.6-1.3,0.8-1.6,0.8c-0.2,0-0.3-0.1-0.4-0.2s-0.1-0.4-0.2-0.8c-0.8,0.7-1.7,1-2.5,1
			c-0.6,0-1.1-0.2-1.5-0.6s-0.6-0.9-0.6-1.5c0-0.9,0.4-1.6,1.2-2.1s2-0.8,3.5-0.9v-1c0-1.1-0.6-1.7-1.8-1.7c-0.8,0-1.6,0.3-2.5,1
			v-0.9c0.9-0.6,1.8-0.9,2.6-0.9c0.7,0,1.3,0.2,1.8,0.5s0.7,0.9,0.7,1.6v5c0,0.3,0.1,0.4,0.2,0.4C44.5,143,44.9,142.7,45.5,142.2z
			 M43.3,142.1v-2.5c-1.1,0-2,0.2-2.8,0.6s-1.1,1-1.1,1.6c0,0.4,0.2,0.7,0.5,0.9s0.7,0.4,1.1,0.4C41.8,143.1,42.5,142.7,43.3,142.1z
			"/>
		<path d="M51.3,136.1v0.9c-0.8-0.6-1.6-0.8-2.2-0.8c-0.5,0-0.9,0.1-1.2,0.4c-0.3,0.3-0.5,0.6-0.5,1c0,0.3,0.1,0.5,0.3,0.8
			s0.8,0.5,1.7,0.9c0.9,0.4,1.5,0.7,1.8,1.1s0.4,0.8,0.4,1.3c0,0.6-0.3,1.2-0.8,1.6s-1.1,0.6-1.9,0.6c-0.8,0-1.6-0.2-2.4-0.7v-0.8
			c1,0.5,1.8,0.7,2.5,0.7c0.5,0,0.9-0.1,1.2-0.4s0.5-0.6,0.5-1c0-0.3-0.1-0.5-0.3-0.8c-0.2-0.2-0.8-0.5-1.7-0.9
			c-0.9-0.4-1.5-0.7-1.8-1.1s-0.4-0.7-0.4-1.2c0-0.6,0.3-1.1,0.8-1.6s1.1-0.6,1.9-0.6C49.8,135.4,50.5,135.6,51.3,136.1z"/>
		<path d="M54.3,131.4v1.5h-0.9v-1.5H54.3z M54.3,135.6v8.1h-0.9v-8.1H54.3z"/>
		<path d="M62.4,135.8v1c-0.8-0.3-1.5-0.5-2.1-0.5c-0.9,0-1.6,0.3-2.2,0.9s-0.8,1.4-0.8,2.4c0,1,0.3,1.8,0.8,2.4s1.3,0.9,2.3,0.9
			c0.7,0,1.4-0.2,2.2-0.5v0.9c-0.8,0.3-1.6,0.4-2.2,0.4c-1.2,0-2.1-0.4-2.9-1.1s-1.1-1.7-1.1-3c0-1.3,0.4-2.3,1.1-3.1
			s1.7-1.2,2.8-1.2C60.9,135.4,61.6,135.5,62.4,135.8z"/>
		<path d="M75.4,132v1c-1.1-0.6-2-0.9-2.8-0.9c-0.7,0-1.4,0.2-1.9,0.7s-0.7,1-0.7,1.7c0,0.5,0.1,0.9,0.4,1.3s0.9,0.7,1.8,1.1
			s1.6,0.6,2,0.9s0.8,0.6,1.1,1s0.4,1,0.4,1.7c0,0.9-0.3,1.7-1,2.4s-1.5,1-2.5,1c-1,0-2.1-0.4-3.1-1.1v-1.1c1.2,0.9,2.2,1.3,3.1,1.3
			c0.7,0,1.3-0.2,1.8-0.7s0.8-1,0.8-1.7c0-0.5-0.2-1-0.5-1.4s-0.9-0.8-1.9-1.2c-0.9-0.4-1.6-0.7-2-0.9c-0.4-0.2-0.8-0.5-1-1
			c-0.3-0.4-0.4-0.9-0.4-1.6c0-0.9,0.3-1.7,1-2.3c0.7-0.6,1.5-1,2.5-1C73.6,131.2,74.5,131.5,75.4,132z"/>
		<path d="M78.7,131.4v12.3h-0.9v-12.3H78.7z M84.4,135.6l-4.4,3.8l5.1,4.2h-1.2l-5.1-4.2l4.5-3.8H84.4z"/>
		<path d="M86.6,131.4v1.5h-0.9v-1.5H86.6z M86.6,135.6v8.1h-0.9v-8.1H86.6z"/>
		<path d="M90.1,131.4v12.3h-0.9v-12.3H90.1z"/>
		<path d="M93.5,131.4v12.3h-0.9v-12.3H93.5z"/>
		<path d="M100.4,136.1v0.9c-0.8-0.6-1.6-0.8-2.2-0.8c-0.5,0-0.9,0.1-1.2,0.4c-0.3,0.3-0.5,0.6-0.5,1c0,0.3,0.1,0.5,0.3,0.8
			s0.8,0.5,1.7,0.9c0.9,0.4,1.5,0.7,1.8,1.1s0.4,0.8,0.4,1.3c0,0.6-0.3,1.2-0.8,1.6s-1.1,0.6-1.9,0.6c-0.8,0-1.6-0.2-2.4-0.7v-0.8
			c1,0.5,1.8,0.7,2.5,0.7c0.5,0,0.9-0.1,1.2-0.4s0.5-0.6,0.5-1c0-0.3-0.1-0.5-0.3-0.8c-0.2-0.2-0.8-0.5-1.7-0.9
			c-0.9-0.4-1.5-0.7-1.8-1.1s-0.4-0.7-0.4-1.2c0-0.6,0.3-1.1,0.8-1.6s1.1-0.6,1.9-0.6C98.9,135.4,99.7,135.6,100.4,136.1z"/>
		<path d="M108.8,131.4v12.3h-0.9v-12.3H108.8z"/>
		<path d="M112.2,135.6v1.4h0c0.7-1,1.6-1.6,2.7-1.6c0.9,0,1.6,0.3,2.2,0.9s0.8,1.4,0.8,2.4v4.9H117V139c0-1.9-0.7-2.8-2.2-2.8
			c-1.1,0-2,0.6-2.6,1.7v5.7h-0.9v-8.1H112.2z"/>
		<path d="M127.2,131.4v12.3h-0.9V143c-0.7,0.5-1.5,0.8-2.4,0.8c-1.1,0-2.1-0.4-2.9-1.2s-1.2-1.8-1.2-3c0-1.2,0.4-2.2,1.2-3
			s1.8-1.2,2.9-1.2c0.7,0,1.5,0.2,2.4,0.7v-4.7H127.2z M126.3,142.2V137c-0.8-0.5-1.6-0.8-2.4-0.8c-0.9,0-1.7,0.3-2.3,0.9
			s-0.9,1.4-0.9,2.4c0,1,0.3,1.8,1,2.4s1.5,1,2.4,1C124.9,143,125.6,142.7,126.3,142.2z"/>
		<path d="M130.5,131.4v1.5h-0.9v-1.5H130.5z M130.5,135.6v8.1h-0.9v-8.1H130.5z"/>
		<path d="M138.6,135.8v1c-0.8-0.3-1.5-0.5-2.1-0.5c-0.9,0-1.6,0.3-2.2,0.9s-0.8,1.4-0.8,2.4c0,1,0.3,1.8,0.8,2.4s1.3,0.9,2.3,0.9
			c0.7,0,1.4-0.2,2.2-0.5v0.9c-0.8,0.3-1.6,0.4-2.2,0.4c-1.2,0-2.1-0.4-2.9-1.1s-1.1-1.7-1.1-3c0-1.3,0.4-2.3,1.1-3.1
			s1.7-1.2,2.8-1.2C137.1,135.4,137.8,135.5,138.6,135.8z"/>
		<path d="M147,142.2v0.7c-0.7,0.6-1.3,0.8-1.6,0.8c-0.2,0-0.3-0.1-0.4-0.2s-0.1-0.4-0.2-0.8c-0.8,0.7-1.7,1-2.5,1
			c-0.6,0-1.1-0.2-1.5-0.6s-0.6-0.9-0.6-1.5c0-0.9,0.4-1.6,1.2-2.1s2-0.8,3.5-0.9v-1c0-1.1-0.6-1.7-1.8-1.7c-0.8,0-1.6,0.3-2.5,1
			v-0.9c0.9-0.6,1.8-0.9,2.6-0.9c0.7,0,1.3,0.2,1.8,0.5s0.7,0.9,0.7,1.6v5c0,0.3,0.1,0.4,0.2,0.4C146,143,146.4,142.7,147,142.2z
			 M144.7,142.1v-2.5c-1.1,0-2,0.2-2.8,0.6s-1.1,1-1.1,1.6c0,0.4,0.2,0.7,0.5,0.9s0.7,0.4,1.1,0.4
			C143.2,143.1,144,142.7,144.7,142.1z"/>
		<path d="M149.8,132.9v2.7h2.3v0.7h-2.3v4.8c0,0.8,0.1,1.3,0.2,1.5s0.5,0.4,1,0.4c0.4,0,0.9-0.1,1.5-0.4v0.8
			c-0.6,0.3-1.1,0.4-1.7,0.4c-0.5,0-1-0.2-1.3-0.5s-0.5-0.7-0.5-1.3v-5.8h-2.2v-0.7h2.2v-1.9l0.6-0.8H149.8z"/>
		<path d="M157.5,135.4c1.2,0,2.1,0.4,2.9,1.2s1.2,1.8,1.2,3c0,1.2-0.4,2.2-1.2,3s-1.8,1.2-2.9,1.2s-2.2-0.4-2.9-1.2s-1.2-1.8-1.2-3
			c0-1.2,0.4-2.2,1.2-3S156.4,135.4,157.5,135.4z M157.5,143c0.9,0,1.7-0.3,2.3-1s0.9-1.4,0.9-2.4c0-1-0.3-1.8-0.9-2.4s-1.4-1-2.3-1
			c-0.9,0-1.7,0.3-2.3,1s-0.9,1.4-0.9,2.4c0,1,0.3,1.8,0.9,2.4S156.6,143,157.5,143z"/>
		<path d="M169.2,136.4l-0.5,0.8c-0.7-0.6-1.2-0.9-1.6-0.9c-0.8,0-1.7,0.8-2.6,2.3v5.1h-0.9v-8.1h0.9v2.1h0c1-1.5,1.9-2.3,2.8-2.3
			C167.9,135.4,168.5,135.7,169.2,136.4z"/>
		<path d="M173.5,138.9h9.2v0.6h-9.2V138.9z"/>
		<path d="M190.1,131.4v12.3h-0.9v-12.3H190.1z"/>
		<path d="M193.6,135.6v1.4h0c0.7-1,1.6-1.6,2.7-1.6c0.9,0,1.6,0.3,2.2,0.9s0.8,1.4,0.8,2.4v4.9h-0.9V139c0-1.9-0.7-2.8-2.2-2.8
			c-1.1,0-2,0.6-2.6,1.7v5.7h-0.9v-8.1H193.6z"/>
		<path d="M208.6,131.4v12.3h-0.9V143c-0.7,0.5-1.5,0.8-2.4,0.8c-1.1,0-2.1-0.4-2.9-1.2s-1.2-1.8-1.2-3c0-1.2,0.4-2.2,1.2-3
			s1.8-1.2,2.9-1.2c0.7,0,1.5,0.2,2.4,0.7v-4.7H208.6z M207.7,142.2V137c-0.8-0.5-1.6-0.8-2.4-0.8c-0.9,0-1.7,0.3-2.3,0.9
			s-0.9,1.4-0.9,2.4c0,1,0.3,1.8,1,2.4s1.5,1,2.4,1C206.3,143,207,142.7,207.7,142.2z"/>
		<path d="M211.8,131.4v1.5H211v-1.5H211.8z M211.8,135.6v8.1H211v-8.1H211.8z"/>
		<path d="M220.9,135.6l-3.5,8.2h-0.5l-3.7-8.2h0.9l3,6.8l2.9-6.8H220.9z"/>
		<path d="M223.1,131.4v1.5h-0.9v-1.5H223.1z M223.1,135.6v8.1h-0.9v-8.1H223.1z"/>
		<path d="M232.5,131.4v12.3h-0.9V143c-0.7,0.5-1.5,0.8-2.4,0.8c-1.1,0-2.1-0.4-2.9-1.2s-1.2-1.8-1.2-3c0-1.2,0.4-2.2,1.2-3
			s1.8-1.2,2.9-1.2c0.7,0,1.5,0.2,2.4,0.7v-4.7H232.5z M231.6,142.2V137c-0.8-0.5-1.6-0.8-2.4-0.8c-0.9,0-1.7,0.3-2.3,0.9
			s-0.9,1.4-0.9,2.4c0,1,0.3,1.8,1,2.4s1.5,1,2.4,1C230.2,143,230.9,142.7,231.6,142.2z"/>
		<path d="M240.5,143.7v-1.3h0c-0.4,0.5-0.8,0.9-1.2,1.2s-0.9,0.3-1.5,0.3c-0.9,0-1.6-0.3-2.2-0.8s-0.9-1.4-0.9-2.4v-5h0.9v5
			c0,0.8,0.2,1.3,0.6,1.8s0.9,0.6,1.6,0.6c0.6,0,1-0.1,1.4-0.4s0.8-0.7,1.2-1.3v-5.7h0.9v8.1H240.5z"/>
		<path d="M250.1,142.2v0.7c-0.7,0.6-1.3,0.8-1.6,0.8c-0.2,0-0.3-0.1-0.4-0.2s-0.1-0.4-0.2-0.8c-0.8,0.7-1.7,1-2.5,1
			c-0.6,0-1.1-0.2-1.5-0.6s-0.6-0.9-0.6-1.5c0-0.9,0.4-1.6,1.2-2.1c0.8-0.5,2-0.8,3.5-0.9v-1c0-1.1-0.6-1.7-1.8-1.7
			c-0.8,0-1.6,0.3-2.5,1v-0.9c0.9-0.6,1.8-0.9,2.6-0.9c0.7,0,1.3,0.2,1.8,0.5s0.7,0.9,0.7,1.6v5c0,0.3,0.1,0.4,0.2,0.4
			C249.1,143,249.5,142.7,250.1,142.2z M247.9,142.1v-2.5c-1.1,0-2,0.2-2.8,0.6s-1.1,1-1.1,1.6c0,0.4,0.2,0.7,0.5,0.9
			c0.3,0.3,0.7,0.4,1.1,0.4C246.4,143.1,247.1,142.7,247.9,142.1z"/>
		<path d="M252.4,131.4v12.3h-0.9v-12.3H252.4z"/>
		<path d="M260.2,131.4h3.1c1.3,0,2.3,0.3,3,0.9s1,1.3,1,2.3c0,1.4-0.8,2.4-2.3,3c0.4,0.2,0.9,0.8,1.6,1.9l2.8,4.2h-1.1l-2.1-3.4
			c-0.7-1.1-1.3-1.8-1.7-2.1c-0.4-0.3-1-0.4-1.7-0.4h-1.7v5.9h-0.9V131.4z M261.2,132.2v4.8h2c1,0,1.8-0.2,2.4-0.6s0.8-1,0.8-1.8
			c0-0.8-0.3-1.3-0.8-1.8s-1.4-0.6-2.4-0.6H261.2z"/>
		<path d="M277.2,139.3h-6.4c0,0.1,0,0.3,0,0.4c0,0.9,0.3,1.7,1,2.3s1.4,0.9,2.3,0.9c1,0,2-0.4,3-1.2v1c-0.9,0.7-2,1.1-3.1,1.1
			c-1.2,0-2.1-0.4-2.9-1.2s-1.1-1.8-1.1-3.1c0-1.2,0.4-2.2,1.1-2.9s1.6-1.2,2.7-1.2c1,0,1.8,0.3,2.5,1S277.2,138.1,277.2,139.3z
			 M270.9,138.6h5.2c-0.3-1.6-1.2-2.4-2.6-2.4c-0.7,0-1.2,0.2-1.7,0.6S271.1,137.9,270.9,138.6z"/>
		<path d="M279.9,135.6v0.5c0.8-0.4,1.6-0.6,2.4-0.6c1.1,0,2.1,0.4,2.9,1.2s1.1,1.8,1.1,3c0,1.2-0.4,2.2-1.2,3s-1.7,1.2-2.9,1.2
			c-0.8,0-1.6-0.2-2.4-0.6v4.6H279v-12.2H279.9z M279.9,136.8v5.5c0.7,0.4,1.5,0.6,2.2,0.6c1,0,1.7-0.3,2.3-0.9s0.9-1.4,0.9-2.4
			c0-1-0.3-1.8-0.9-2.4s-1.4-1-2.4-1C281.3,136.2,280.6,136.4,279.9,136.8z"/>
		<path d="M292,135.4c1.2,0,2.1,0.4,2.9,1.2s1.2,1.8,1.2,3c0,1.2-0.4,2.2-1.2,3s-1.8,1.2-2.9,1.2s-2.2-0.4-2.9-1.2s-1.2-1.8-1.2-3
			c0-1.2,0.4-2.2,1.2-3S290.8,135.4,292,135.4z M292,143c0.9,0,1.7-0.3,2.3-1s0.9-1.4,0.9-2.4c0-1-0.3-1.8-0.9-2.4s-1.4-1-2.3-1
			c-0.9,0-1.7,0.3-2.3,1s-0.9,1.4-0.9,2.4c0,1,0.3,1.8,0.9,2.4S291.1,143,292,143z"/>
		<path d="M303.7,136.4l-0.5,0.8c-0.7-0.6-1.2-0.9-1.6-0.9c-0.8,0-1.7,0.8-2.6,2.3v5.1h-0.9v-8.1h0.9v2.1h0c1-1.5,1.9-2.3,2.8-2.3
			C302.4,135.4,303,135.7,303.7,136.4z"/>
		<path d="M306.4,132.9v2.7h2.3v0.7h-2.3v4.8c0,0.8,0.1,1.3,0.2,1.5s0.5,0.4,1,0.4c0.4,0,0.9-0.1,1.5-0.4v0.8
			c-0.6,0.3-1.1,0.4-1.7,0.4c-0.5,0-1-0.2-1.3-0.5s-0.5-0.7-0.5-1.3v-5.8h-2.2v-0.7h2.2v-1.9l0.6-0.8H306.4z"/>
	</g>
</g>
</svg>
