<svg id="Layer_1" data-name="Layer 1" xmlns="http://www.w3.org/2000/svg" viewBox="0 0 720 144"><defs><style>.cls-1{fill:#00c0f3;}.cls-2{fill:#231f20;}</style></defs><title>CSPA report banner</title><path class="cls-1" d="M161.87,44.45H110.53l-.33-.58L84.86,0l25.67-44.46h51.34L187.54,0Zm-50-2.32h48.66L184.86,0,160.53-42.15H111.87L87.54,0Z"/><path class="cls-1" d="M248.08,94.22H196.74l-.34-.58L171.07,49.76,196.74,5.3h51.34l25.66,44.46Zm-50-2.32h48.65l24.33-42.14L246.73,7.62H198.08L173.75,49.76Z"/><path class="cls-1" d="M334.28,44.45H282.94l-.33-.58L257.27,0l25.67-44.46h51.34L359.94,0Zm-50-2.32h48.66L357.26,0,332.94-42.15H284.28L260,0Z"/><path class="cls-1" d="M506.69,44.45H455.35l-.34-.58L429.68,0l25.67-44.46h51.34l.33.58L532.35,0Zm-50-2.32h48.65L529.67,0,505.34-42.15H456.69L432.36,0Z"/><path class="cls-1" d="M334.28,144H282.94l-.33-.58L257.27,99.53l25.67-44.45h51.34l25.66,44.45Zm-50-2.32h48.66l24.32-42.15L332.94,57.4H284.28L260,99.53Z"/><path class="cls-1" d="M506.69,144H455.35l-.34-.58L429.68,99.53l25.67-44.45h51.34l.33.58,25.33,43.87Zm-50-2.32h48.65l24.33-42.15L505.34,57.4H456.69L432.36,99.53Z"/><path class="cls-1" d="M75,6.46H25L0,49.76l25,43.3H75l25-43.3ZM35.88,67.31a7.63,7.63,0,0,1-.52.71l-.17.21a2.89,2.89,0,0,1-1.77,1.29A15.35,15.35,0,0,0,29.9,70.7a3.77,3.77,0,0,0-1.45,1.07c-.05.07-.08.1-.1.1s-.09,0-.09,0,0,0,0-.1l.05-.07-.07-.08,2.31-2.32a.57.57,0,0,0,.31.1.56.56,0,1,0-.56-.56.49.49,0,0,0,.11.31l-2.32,2.33-.05-.06-.08.06c-.05,0-.08,0-.1,0a.11.11,0,0,1,0-.09s0,0,.1-.1a3.68,3.68,0,0,0,1.07-1.45,15.19,15.19,0,0,0,1.18-3.52,2.89,2.89,0,0,1,1.29-1.77l.21-.17a8.34,8.34,0,0,1,.72-.52,14.2,14.2,0,0,0,2.45-2l3,3A13.78,13.78,0,0,0,35.88,67.31Zm12-9.4a2.64,2.64,0,0,1-1.07.6S41.63,62.75,41.3,63s-.45.14-.45.14a9.45,9.45,0,0,0-1,1.15.4.4,0,0,1-.47.08.53.53,0,0,1-.08.15.36.36,0,0,1-.51,0L35.2,60.93a.37.37,0,0,1,0-.51.42.42,0,0,1,.14-.09.44.44,0,0,1,.09-.47,9.16,9.16,0,0,0,1.16-1s-.16-.12.13-.45S41.25,53,41.25,53a2.67,2.67,0,0,1,.61-1.07C42.27,51.44,48,46,50,44.09l5.67,5.67C53.74,51.79,48.32,57.49,47.84,57.91ZM57,49.23c-.26.27-.62-.19-.62-.19l-.05.06-5.64-5.64.06-.05s-.46-.36-.19-.62,12.34-12.4,15.92-14.51a.29.29,0,0,0,.08.14l.87.87a24.46,24.46,0,0,1-2.34,3.56A21.87,21.87,0,0,1,59.25,38c-2,1.34-3.22,2.75-3.33,3.88a1.63,1.63,0,0,0,1.59,1.78c1.16,0,2.64-1.22,4.05-3.35a22,22,0,0,1,5.18-5.8,25.67,25.67,0,0,1,3.56-2.35l1,1a.42.42,0,0,0,.14.09C69.37,36.89,57.23,49,57,49.23Zm14.9-16.6-4.74-4.74c.56-.29,1.92-.65,3.65,1.08S72.16,32.07,71.87,32.63Z"/><path class="cls-1" d="M201.46,57.21h42.61a1,1,0,0,0,1-1V29.32a1,1,0,0,0-1-1H201.46a1,1,0,0,0-1,1V56.24A1,1,0,0,0,201.46,57.21Zm1.48-25.39h39.65V53.59H202.94Z"/><path class="cls-1" d="M250.74,67.5l-5.39-9a1.35,1.35,0,0,0-1.28-.56H201.46a1.35,1.35,0,0,0-1.28.56l-5.39,9s-1.3,2,5,1.84H245.7C252,69.49,250.74,67.5,250.74,67.5ZM217,64.62v-.06a.09.09,0,0,1,.08-.08h11.43a.09.09,0,0,1,.08.08v.06l.5,2.43a.07.07,0,0,1-.07.06H216.54a.07.07,0,0,1-.07-.06Zm-15-4.9c.07-.15.19-.2.41-.2h32.9c.22,0,.34,0,.4.18L237.06,63H200.18ZM245.85,63H239.2c-.19,0-.42,0-.48-.19l-1.42-3.31h6.4c.22,0,.34,0,.41.21L245.92,63Z"/><path class="cls-1" d="M317.62,5.41l-.95-.29A1.75,1.75,0,0,1,316.26,2h0l.8-.59c.56-.38.45-.69.41-.82s-.16-.45-.83-.41c0,0-.68,0-1.22.07a1.75,1.75,0,0,1-1.49-.88,1.73,1.73,0,0,1,.16-2c.34-.42.64-.77.64-.77.45-.5.27-.78.19-.89s-.25-.4-.9-.19l-1,.27h0a1.77,1.77,0,0,1-1.7-.32,1.76,1.76,0,0,1-.51-1.92l.35-.93c.26-.63,0-.83-.12-.91s-.37-.29-.91.12l-.81.58v0a1.73,1.73,0,0,1-1.72.21A1.73,1.73,0,0,1,306.57-9c0-.54,0-1,0-1,.05-.67-.26-.78-.39-.83s-.44-.15-.83.4l-.59.8a1.75,1.75,0,0,1-1.52.84A1.76,1.76,0,0,1,301.66-10c-.18-.51-.32-.94-.32-.94-.21-.64-.54-.63-.68-.62s-.47,0-.67.62c0,0-.15.43-.34.94A1.74,1.74,0,0,1,298-8.83a1.75,1.75,0,0,1-1.52-.84l-.59-.8c-.39-.55-.7-.45-.83-.4s-.44.16-.39.83c0,0,0,.46,0,1a1.73,1.73,0,0,1-1.07,1.66A1.73,1.73,0,0,1,292-7.59v0l-.81-.58c-.54-.41-.8-.21-.91-.12s-.38.28-.12.91l.35.93A1.76,1.76,0,0,1,290-4.51a1.77,1.77,0,0,1-1.7.32h0l-1-.27c-.65-.21-.82.07-.9.19s-.26.39.19.89c0,0,.3.35.64.77a1.73,1.73,0,0,1,.16,2,1.75,1.75,0,0,1-1.49.88c-.54,0-1.22-.07-1.22-.07-.67,0-.78.27-.83.41s-.15.44.4.82l.81.59h0a1.75,1.75,0,0,1-.41,3.13l-.95.29c-.65.19-.65.51-.65.65s0,.47.65.65l1,.29h0a1.75,1.75,0,0,1,.56,3.1l-.81.57c-.57.37-.46.69-.42.82s.15.45.82.41a7.36,7.36,0,0,0,1.11.08,1.75,1.75,0,0,1,1.33,2.85c-.34.42-.64.76-.64.76-.45.51-.27.78-.19.9s.25.4.9.19l1-.27h0a1.72,1.72,0,0,1,1.7.32,1.76,1.76,0,0,1,.51,1.92l-.35.93c-.26.63,0,.83.12.91s.37.29.91-.12l.81-.58v0a1.74,1.74,0,0,1,2.79,1.45c0,.54,0,1,0,1,0,.68.26.79.39.83s.44.16.83-.39l.59-.8a1.75,1.75,0,0,1,1.52-.84,1.72,1.72,0,0,1,1.61,1.15c.19.51.34.94.34.94.2.64.53.62.67.62s.47,0,.68-.62c0,0,.14-.43.32-.94a1.75,1.75,0,0,1,3.14-.31l.59.8c.39.55.7.44.83.39s.44-.15.39-.83c0,0,0-.45,0-1a1.74,1.74,0,0,1,2.79-1.45v0l.81.58c.54.41.8.21.91.12s.38-.28.12-.91l-.35-.93a1.76,1.76,0,0,1,.51-1.92,1.72,1.72,0,0,1,1.7-.32h0l1,.27c.65.21.82-.07.9-.19s.26-.39-.19-.9c0,0-.3-.34-.64-.76A1.75,1.75,0,0,1,315.42,12a7.36,7.36,0,0,0,1.11-.08c.67,0,.77-.28.82-.41s.15-.45-.42-.82l-.81-.57a1.75,1.75,0,0,1,.56-3.1h0l1-.29c.65-.18.65-.51.65-.65S318.27,5.6,317.62,5.41Zm-17,6.73a6,6,0,1,1,6-6A6,6,0,0,1,300.66,12.14Z"/><path class="cls-1" d="M151.53-17.08a14.6,14.6,0,0,0-6-9.46,16.5,16.5,0,0,0-9.35-2.73,16.5,16.5,0,0,0-9.35,2.73,14.52,14.52,0,0,0-6,9.46c-1.42,6.9,1.69,11.83,3.75,15.09.5.79.93,1.48,1.22,2.06a21.57,21.57,0,0,1,1.47,6.12,4.82,4.82,0,0,0,2,3.69,1,1,0,0,0,.32.12v1.12a.63.63,0,0,0,.62.59h0l11.83-.78a.61.61,0,0,0,.59-.66V10a.78.78,0,0,0,.32-.12,4.82,4.82,0,0,0,2-3.69A21.57,21.57,0,0,1,146.56.07,20.86,20.86,0,0,1,147.78-2C149.84-5.25,153-10.18,151.53-17.08ZM137.58-2.67a1.81,1.81,0,0,0-.51-.23V-6.95a1,1,0,0,0,0-.17h.28a.54.54,0,0,0,.54-.53.54.54,0,0,0-.54-.54h-2.27a.53.53,0,0,0-.53.54.53.53,0,0,0,.53.53h.29a1,1,0,0,0,0,.17V-2.9a1.69,1.69,0,0,0-.51.23l-3.65-10c-.29-.7-.22-1.1-.07-1.23a.37.37,0,0,1,.43,0,8.37,8.37,0,0,0,1.38.62A1.31,1.31,0,0,0,133-13c.19.45.78,1.81,3.2,1.77h.11c2.32,0,2.9-1.33,3.09-1.78a1.43,1.43,0,0,0,.09-.27,8.91,8.91,0,0,0,1.37-.61.37.37,0,0,1,.44,0c.15.13.22.53-.07,1.24Zm9-.09a24.25,24.25,0,0,0-1.3,2.19,23.35,23.35,0,0,0-1.62,6.65v.06a3.29,3.29,0,0,1-1.23,2.41h-4a1.8,1.8,0,0,0,0-.22V-1.13A1.83,1.83,0,0,0,138-2.31l3.71-10.14c.47-1.15.11-1.64-.06-1.8a.88.88,0,0,0-1-.06,9.91,9.91,0,0,1-1.1.5A1.92,1.92,0,0,0,139-15a1.17,1.17,0,0,0-1.62,0,1.21,1.21,0,0,0,0,1.66,1.54,1.54,0,0,0,1.56.29c-.2.46-.76,1.4-2.69,1.37s-2.48-.9-2.69-1.38a1.51,1.51,0,0,0,1.56-.28A1.21,1.21,0,0,0,135-15a1.16,1.16,0,0,0-1.61,0,1.87,1.87,0,0,0-.54,1.2,10.15,10.15,0,0,1-1.11-.5.86.86,0,0,0-1,.06c-.18.16-.53.65-.07,1.79l3.72,10.15A1.83,1.83,0,0,0,134-1.13V8.33c0,.07,0,.14,0,.22h-4a3.29,3.29,0,0,1-1.23-2.41V6.08a23.35,23.35,0,0,0-1.62-6.65,24.25,24.25,0,0,0-1.3-2.19c-2-3.25-4.86-7.7-3.55-14,2.11-10.23,11.17-11,13.9-11s11.79.79,13.9,11C151.41-10.46,148.6-6,146.55-2.76ZM139-13.64c-.57.16-1.09.2-1.3,0a.7.7,0,0,1,0-1,.58.58,0,0,1,.42-.17.78.78,0,0,1,.51.22A1.41,1.41,0,0,1,139-13.64Zm-5.64,0a1.41,1.41,0,0,1,.37-1,.66.66,0,0,1,.93-.05.7.7,0,0,1,0,1C134.46-13.44,134-13.48,133.38-13.64Z"/><path class="cls-1" d="M142.31,11.82l-12.32.8a.73.73,0,0,0,0,1.46h.05l12.32-.79a.73.73,0,0,0-.1-1.46Z"/><path class="cls-1" d="M142.31,14.26,130,15.05a.73.73,0,0,0,0,1.46h.05l12.32-.8a.74.74,0,0,0,.68-.77A.72.72,0,0,0,142.31,14.26Z"/><path class="cls-1" d="M142.31,16.69,130,17.48a.73.73,0,0,0-.68.78.74.74,0,0,0,.73.68h.05l12.32-.8a.74.74,0,0,0,.68-.78A.72.72,0,0,0,142.31,16.69Z"/><path class="cls-1" d="M142.12,18.93h-.05l-11.83.77s-.51.06-.06.61,3.45,3.51,3.45,3.51a1.18,1.18,0,0,0,.78.36h3.85a1.22,1.22,0,0,0,.79-.36s3-3.23,3.34-3.71a1.21,1.21,0,0,0,.29-.83A.62.62,0,0,0,142.12,18.93Z"/><path class="cls-1" d="M161.2,56.24h-50l-25,43.29,25,43.31h50l25-43.31ZM144.76,85.45H150v26.66h-5.27ZM137,102.67h5.28v9.44H137Zm-7.78-9.44h5.28v18.88H129.2Zm-7.77,7.22h5.27v11.66h-5.27Zm35.92,15.8h-42.3a.87.87,0,0,1-.87-.87V78.28a.87.87,0,1,1,1.73,0v36.24h41.44a.87.87,0,1,1,0,1.73Z"/><path class="cls-1" d="M336.44,115.6h0c-.3-.14-.43-.32-.48-.92v-2.89a1.17,1.17,0,0,0-1.17-1.18h-.15a2,2,0,0,1-.92-.9c-.3-.6-.74-.63-1.7-.63H312.11c-.95,0-1.4,0-1.7.63a2,2,0,0,1-.92.9h-.14a1.18,1.18,0,0,0-1.18,1.18v2.89c-.05.6-.18.78-.48.92h0a.38.38,0,0,0-.39.39v1a.39.39,0,0,0,.39.39h28.78a.4.4,0,0,0,.4-.39v-1A.39.39,0,0,0,336.44,115.6Z"/><path class="cls-1" d="M326.94,97.38l-11.56,4.42h-.05a2.25,2.25,0,0,1-.08.24,2.13,2.13,0,0,0,0,2.18c1.12,2.14,3.91,1,3.91,1l7.34-2.75s2.86-1,2.3-3.32c-.18-.73-.42-1.13-1.45-1.63l-.31-.18Z"/><path class="cls-1" d="M310.61,88.18l11.1-4.25c.12-.78.86-1.07.41-2.28-.53-1.42-2.14-2.3-7.71-.21s-6.21,3.81-5.67,5.23C309.21,87.92,310,87.59,310.61,88.18Z"/><path class="cls-1" d="M310.88,97a.9.9,0,0,0,1,.34l1.28-.54a6.2,6.2,0,0,0,.29.67c.52,1-.09,1.47.09,2.19.12.54.66.73,1.15.84a1.68,1.68,0,0,1,.39.16l11.46-4.38.08,0a1.32,1.32,0,0,1,.15-.29,1.32,1.32,0,0,0,.32-1.4c-.35-.66-1.12-.61-1.38-1.7s-2.1-5.61-2.1-5.61a2.2,2.2,0,0,0,.12-1.52c-.25-.58-1-.57-1.53-.82l-11.37,4.35c-.25.49-.75,1-.57,1.52a2.25,2.25,0,0,0,1.09,1.07s.16.49.41,1.17l-1.33.45a.88.88,0,0,0-.52.9c0,.42-2.36,1.13-3.24,1.42a137.54,137.54,0,0,0-13.53,4,78.88,78.88,0,0,0-11.9,6,2,2,0,0,0-1.9-.29,2,2,0,0,0,1.38,3.66A2,2,0,0,0,281.9,108a85.67,85.67,0,0,0,13-3.54,100.53,100.53,0,0,0,12.68-6.24C308.38,97.81,310.63,96.69,310.88,97Z"/><path class="cls-1" d="M399.65,39l-1.53-5.65a9,9,0,0,1-6.62,0L390,39a11.46,11.46,0,0,0,9.67,0Z"/><path class="cls-1" d="M403.06,51.7l-1.8-6.7a14,14,0,0,1-12.89,0l-1.8,6.7C388.08,53,391.14,54,394.81,54S401.54,53,403.06,51.7Z"/><path class="cls-1" d="M394.81,28c1.05,0,1.91-.37,1.91-.83s-.86-.82-1.91-.82-1.9.37-1.9.82S393.76,28,394.81,28Z"/><path class="cls-1" d="M419.81,6.46h-50l-25,43.3,25,43.3h50l25-43.3Zm-2.07,54.36h0v.06h0a1.5,1.5,0,0,1-.85,1.14l-20,11.49a4.66,4.66,0,0,1-4.18,0L372.75,62a1.52,1.52,0,0,1-.86-1.14h0v-.81a1.45,1.45,0,0,1,.86-1.2l10.57-6.08,6.89-25.61c.18-1.51,2-2.55,4.6-2.55s4.42,1,4.61,2.55l6.88,25.61,10.58,6.08a1.47,1.47,0,0,1,.86,1.21Z"/><path class="cls-1" d="M384,58.74v0a.39.39,0,0,1,0,.1,2.32,2.32,0,0,1,.08.22,7.08,7.08,0,0,0,.37.76c.09.16.2.33.32.51a6.41,6.41,0,0,0,.43.55,7.54,7.54,0,0,0,1.21,1.17c.23.2.5.36.77.56s.58.33.89.51.64.29,1,.44.7.23,1.06.35a13.45,13.45,0,0,0,2.29.46l.6.08.55,0,.55,0h.61l1.18,0c.39,0,.78-.09,1.17-.14a7.6,7.6,0,0,0,1.14-.21l.56-.12.54-.17a7.73,7.73,0,0,0,1.05-.38,8.47,8.47,0,0,0,1-.44,7.31,7.31,0,0,0,.87-.5c.28-.19.54-.36.78-.55a7.72,7.72,0,0,0,.66-.56l.3-.28.26-.28a6.48,6.48,0,0,0,.44-.53c.13-.17.24-.34.34-.49a6.2,6.2,0,0,0,.41-.72l.1-.22a.23.23,0,0,0,0-.07.47.47,0,0,0,0-.23c-1.67,1.69-5,3.93-11,3.93C388.78,62.52,385.63,60.43,384,58.74Z"/><path class="cls-1" d="M504.67,3.3c-.76-9.26-4.87-16.25-10.86-20.23-.34.77-.68,1.52-1,2.28l-.56,1.2-.59,1.18c-.19.4-.4.79-.6,1.18s-.42.79-.64,1.17c.1-.43.19-.86.3-1.29s.21-.87.33-1.29l.34-1.28c.12-.43.24-.85.37-1.27.41-1.46.87-2.9,1.35-4.34l-.11-.05c-.24-.13-.48-.24-.73-.35-.49-.23-1-.43-1.51-.61l-.78-.27q-.39-.13-.78-.24l-.56-.16-.34,4-.67,6.91-.36,3.45c-.12,1.16-.26,2.31-.39,3.46s-.26,2.29-.41,3.45-.3,2.29-.45,3.44c0-1.16,0-2.32,0-3.48s.05-2.31.08-3.47.06-2.31.11-3.47l.13-3.47.32-6.93.34-6.15h-.08l-.82-.14-.83-.11c-.28,0-.57-.05-.85-.09-.56-.05-1.13-.07-1.69-.1-.28,0-.57,0-.85,0l-.85,0-.86,0c-.29,0-.59,0-.86,0-.56,0-1.12,0-1.68.11-.28,0-.57,0-.84.08l-.84.11-.82.14H475l.35,6.15.16,3.46.16,3.47.12,3.47c.05,1.16.08,2.32.11,3.47S476-.95,476,.2s0,2.32,0,3.48c-.16-1.15-.32-2.29-.46-3.44s-.28-2.3-.41-3.45-.27-2.3-.39-3.46l-.36-3.45-.34-3.45L473.77-17l-.34-4-.55.16c-.27.07-.53.15-.79.24s-.52.17-.77.27c-.52.18-1,.39-1.52.61-.25.11-.49.23-.72.35l-.12.05c.48,1.44.94,2.88,1.36,4.34.25.84.48,1.7.71,2.55s.43,1.71.62,2.58c-.44-.77-.85-1.56-1.24-2.35s-.79-1.58-1.15-2.38-.7-1.51-1-2.27c-6,4-10.1,11-10.86,20.22-1.92,2.09-3,4.13-3,5.72,0,5.24,11.94,9.2,26.67,9.2s26.67-4,26.67-9.2C507.69,7.43,506.59,5.39,504.67,3.3Zm.08,2.53c0,.09-.1.22-.19.39s-.22.36-.37.6-.37.48-.62.73-.53.53-.87.8l-.53.42-.61.4a17.11,17.11,0,0,1-3,1.54A25.9,25.9,0,0,1,494.83,12c-.34.09-.68.19-1,.27l-1.07.22c-.72.14-1.46.3-2.22.39l-2.3.31-2.37.18c-.41,0-.81.07-1.21.08l-1.19,0-2.42.06-2.43-.06-1.21,0c-.4,0-.8-.05-1.2-.08l-2.36-.19-2.3-.3c-.76-.09-1.5-.25-2.22-.4l-1.06-.21c-.35-.08-.7-.18-1-.27-.67-.19-1.34-.33-2-.57l-.92-.32-.45-.16-.42-.19a16.87,16.87,0,0,1-3-1.54l-.6-.4c-.19-.14-.36-.29-.53-.42a10.3,10.3,0,0,1-.88-.81c-.25-.25-.44-.51-.62-.72s-.29-.43-.37-.6-.15-.3-.19-.39a1.31,1.31,0,0,1,0-.14.92.92,0,0,0,.07.13,3.68,3.68,0,0,0,.25.35,5.68,5.68,0,0,0,.45.51l.32.29a4,4,0,0,0,.37.31,7.32,7.32,0,0,0,.94.65l.55.34.62.31a13.82,13.82,0,0,0,1.39.61c.49.22,1,.37,1.6.57l.42.14.44.11.91.23c.61.17,1.26.29,1.93.42.33.06.66.14,1,.19l1,.14c.71.09,1.43.23,2.17.28l2.25.2,2.31.13c.39,0,.78.05,1.17.05l1.19,0,2.38,0,2.38-.05h1.19c.4,0,.78,0,1.17-.06.78,0,1.55-.08,2.3-.12l2.25-.21c.75,0,1.46-.18,2.17-.27l1-.14,1-.19c.66-.14,1.31-.25,1.92-.42l.91-.23c.15,0,.3-.07.44-.12l.42-.14c.56-.19,1.11-.34,1.6-.56a13.82,13.82,0,0,0,1.39-.61l.62-.31.55-.34a7.32,7.32,0,0,0,.94-.65A4,4,0,0,0,503.7,7l.32-.29a6.16,6.16,0,0,0,.46-.52,3.92,3.92,0,0,0,.24-.34.37.37,0,0,0,.07-.13A.39.39,0,0,1,504.75,5.83Z"/><path class="cls-1" d="M489.75,76.09H472.29a3.63,3.63,0,0,0-3.64,3.63v39.62a3.63,3.63,0,0,0,3.64,3.64h17.46a3.63,3.63,0,0,0,3.63-3.64V79.72A3.62,3.62,0,0,0,489.75,76.09Zm-12.23,2.64h7a.58.58,0,0,1,0,1.15h-7a.58.58,0,0,1,0-1.15Zm6.36,41.39a.55.55,0,0,1-.55.55H478.7a.55.55,0,0,1-.54-.55v-2.43a.54.54,0,0,1,.54-.54h4.63a.54.54,0,0,1,.55.54ZM491,115H471V84.25h20Z"/><path class="cls-1" d="M580,58.64a2.42,2.42,0,1,0,2.42,2.41A2.42,2.42,0,0,0,580,58.64Zm0,3.81a1.4,1.4,0,1,1,1.4-1.4A1.4,1.4,0,0,1,580,62.45Z"/><path class="cls-1" d="M579.7,6.46H542.22l-25,43.3,25,43.3h50l25-43.3ZM568.5,62.19c-2.16,3.32-4.12,3.62-5.38,3.27s-2.81-1.57-3-5.53l-.35-7,2.85,1.47.28,5.33c.1,2,.63,2.92,1,3s1.22-.4,2.34-2.1l2.13-3.27,2.48,1.28ZM546.88,44.78l-7-1.48a1.51,1.51,0,0,1,.62-2.95l7.4,1.57.2.1,26.49,14.42a7.05,7.05,0,0,0-1.44,2.65ZM580,67.21a6.16,6.16,0,1,1,6.15-6.16A6.15,6.15,0,0,1,580,67.21Zm8-1.79a1.53,1.53,0,0,1-1.33.79,1.46,1.46,0,0,1-.72-.19l-.63-.34A7,7,0,0,0,586.75,63l.62.34A1.51,1.51,0,0,1,588,65.42Zm3.1-26.58h-.29L575.32,55.23,559.74,47,556,38.84h-.5a1.23,1.23,0,0,1-1.23-1.22v-.41A1.23,1.23,0,0,1,555.47,36h35.61a1.23,1.23,0,0,1,1.23,1.22v.41A1.23,1.23,0,0,1,591.08,38.84Z"/><polyline class="cls-2" points="576.07 0.07 576.07 144 720 144"/></svg>