<svg id="Layer_1" data-name="Layer 1" xmlns="http://www.w3.org/2000/svg" xmlns:xlink="http://www.w3.org/1999/xlink" width="210mm" height="55.18mm" viewBox="0 0 595.28 156.41"><defs><style>.cls-1,.cls-6,.cls-8{fill:none;}.cls-2{clip-path:url(#clip-path);}.cls-3{fill:#f1f1f2;}.cls-4{fill:#00c0f3;}.cls-5{clip-path:url(#clip-path-2);}.cls-6,.cls-8{stroke:#00c0f3;}.cls-6{stroke-miterlimit:10;stroke-width:1.46px;}.cls-7{fill:#fff;}</style><clipPath id="clip-path"><rect class="cls-1" width="595.28" height="156.41"/></clipPath><clipPath id="clip-path-2"><rect class="cls-1" x="133.81" y="-8.5" width="376.43" height="99.92"/></clipPath></defs><g class="cls-2"><rect class="cls-3" x="-8.5" y="-8.5" width="612.28" height="164.41"/><path class="cls-4" d="M35.92,120.59a7.92,7.92,0,0,0,4.36-1.38v1.94a9.21,9.21,0,0,1-4.46,1,6.88,6.88,0,0,1-3.49-.82,6.06,6.06,0,0,1-2.27-2.28,6.15,6.15,0,0,1-.83-3.14,6,6,0,0,1,1.91-4.51,6.53,6.53,0,0,1,4.71-1.82,11,11,0,0,1,4.3,1v1.89a8.48,8.48,0,0,0-4.21-1.23,4.85,4.85,0,0,0-3.5,1.33A4.41,4.41,0,0,0,31,116a4.35,4.35,0,0,0,1.38,3.32,4.87,4.87,0,0,0,3.5,1.31ZM46,114a4.25,4.25,0,0,1,3.07,1.19,4,4,0,0,1,1.22,3,3.8,3.8,0,0,1-1.24,2.91,4.41,4.41,0,0,1-3.12,1.15,4.22,4.22,0,0,1-3-1.17,4.15,4.15,0,0,1,0-5.89A4.31,4.31,0,0,1,46,114Zm-.09,1.44a2.53,2.53,0,0,0-1.89.76,2.62,2.62,0,0,0-.73,1.92A2.52,2.52,0,0,0,44,120a2.68,2.68,0,0,0,1.94.74,2.64,2.64,0,0,0,1.93-.74,2.58,2.58,0,0,0,.75-1.91,2.53,2.53,0,0,0-.78-1.9A2.7,2.7,0,0,0,45.91,115.4ZM53.68,114v1.85l.09-.14c.77-1.25,1.55-1.87,2.32-1.87a2.87,2.87,0,0,1,1.89.91l-.84,1.41a2.38,2.38,0,0,0-1.55-.79,1.64,1.64,0,0,0-1.34.74,2.76,2.76,0,0,0-.57,1.74v4.23H52.07V114Zm12.12,4.18H60.11a2.65,2.65,0,0,0,.78,1.85,2.59,2.59,0,0,0,1.85.68,4.86,4.86,0,0,0,2.92-1v1.56a5.31,5.31,0,0,1-1.47.7,6.12,6.12,0,0,1-1.7.21,3.8,3.8,0,0,1-2.16-.55A4,4,0,0,1,59,120.14a4.54,4.54,0,0,1-.5-2.17,4.29,4.29,0,0,1,1.05-3,3.47,3.47,0,0,1,2.71-1.15,3.21,3.21,0,0,1,2.57,1.12,4.5,4.5,0,0,1,1,3Zm-5.65-1h4.06a2.24,2.24,0,0,0-.57-1.48,1.84,1.84,0,0,0-1.37-.51,2,2,0,0,0-1.41.51A2.61,2.61,0,0,0,60.15,117.2ZM77.41,119c0-.74-.54-1.45-1.62-2.12l-1.33-.81a6.2,6.2,0,0,1-1.79-1.51,2.84,2.84,0,0,1-.53-1.71,3,3,0,0,1,1-2.36,3.79,3.79,0,0,1,2.62-.9,4.93,4.93,0,0,1,2.82.86v2a4.08,4.08,0,0,0-2.86-1.27,2.33,2.33,0,0,0-1.41.4,1.2,1.2,0,0,0-.56,1,1.59,1.59,0,0,0,.41,1,5.08,5.08,0,0,0,1.31,1l1.35.79a4,4,0,0,1,2.24,3.42,3.14,3.14,0,0,1-1,2.4,3.63,3.63,0,0,1-2.57.92,5.38,5.38,0,0,1-3.31-1.12v-2.23a4.16,4.16,0,0,0,3.3,1.81,2.1,2.1,0,0,0,1.37-.46,1.44,1.44,0,0,0,.55-1.16Zm3.53-9.26h1.6v12.28h-1.6ZM86.2,114h1.9l-3.45,4,4.15,4.13H86.66l-4-4.12Zm4.41-3.41a1,1,0,0,1,.68.28.93.93,0,0,1,0,1.33.91.91,0,0,1-.68.28.93.93,0,0,1-.65-1.6A.91.91,0,0,1,90.61,110.57ZM89.82,114h1.6v8.08h-1.6Zm3.88-4.2h1.6v12.28H93.7Zm3.87,0h1.6v12.28h-1.6Zm3.55,11.7v-1.72a7.29,7.29,0,0,0,1.38.77,3.38,3.38,0,0,0,1.2.29,1.52,1.52,0,0,0,.86-.24.71.71,0,0,0,.36-.59.79.79,0,0,0-.24-.59,5.45,5.45,0,0,0-1-.67,7.07,7.07,0,0,1-2-1.47,2.11,2.11,0,0,1-.48-1.33,1.85,1.85,0,0,1,.73-1.52,2.81,2.81,0,0,1,1.87-.59,5.07,5.07,0,0,1,2.43.67v1.58a4.82,4.82,0,0,0-2.33-.86,1.3,1.3,0,0,0-.75.19.63.63,0,0,0-.29.53.75.75,0,0,0,.26.53,4.75,4.75,0,0,0,.91.62l.57.33c1.35.76,2,1.6,2,2.53a2,2,0,0,1-.78,1.63,3.09,3.09,0,0,1-2,.63,4.94,4.94,0,0,1-1.28-.15A8,8,0,0,1,101.12,121.48Zm12.45.58V109.77h3.9a4,4,0,0,1,2.8,1,3.25,3.25,0,0,1,1,2.54,3.38,3.38,0,0,1-.54,1.9,3.1,3.1,0,0,1-1.47,1.2,7.41,7.41,0,0,1-2.67.38h-1.3v5.32Zm5.93-8.84q0-1.89-2.34-1.89h-1.82v3.84h1.92a2.49,2.49,0,0,0,1.66-.5,1.85,1.85,0,0,0,.58-1.45Zm4.81.76v1.85l.09-.14c.77-1.25,1.54-1.87,2.32-1.87a2.87,2.87,0,0,1,1.89.91l-.85,1.41a2.34,2.34,0,0,0-1.54-.79,1.62,1.62,0,0,0-1.34.74,2.76,2.76,0,0,0-.57,1.74v4.23H122.7V114Zm9,0a4.21,4.21,0,0,1,3.06,1.19,4,4,0,0,1,1.23,3,3.83,3.83,0,0,1-1.24,2.91,4.41,4.41,0,0,1-3.12,1.15,4.2,4.2,0,0,1-3-1.17,4.13,4.13,0,0,1,0-5.89A4.28,4.28,0,0,1,133.34,114Zm-.09,1.44a2.5,2.5,0,0,0-1.89.76,2.63,2.63,0,0,0-.74,1.92,2.49,2.49,0,0,0,.76,1.89,2.9,2.9,0,0,0,3.87,0,2.58,2.58,0,0,0,.75-1.91,2.53,2.53,0,0,0-.78-1.9A2.7,2.7,0,0,0,133.25,115.4Zm8-1.74c0,.09,0,.19,0,.3h1.8v1.37h-1.8v6.73h-1.6v-6.73h-1.2V114h1.2v-.27a4.56,4.56,0,0,1,.89-3,3.62,3.62,0,0,1,4.66-.37,2.44,2.44,0,0,1,.8,1.89h-1.51a1.94,1.94,0,0,0-.58-.91,1.34,1.34,0,0,0-.89-.28c-1.19,0-1.79.89-1.79,2.65Zm3.26.3H146v8.1h-1.51Zm3.88-4.18H150v12.28h-1.6Zm10.75,8.38h-5.69a2.65,2.65,0,0,0,.78,1.85,2.57,2.57,0,0,0,1.85.68,4.89,4.89,0,0,0,2.92-1v1.56a5.31,5.31,0,0,1-1.47.7,6.12,6.12,0,0,1-1.7.21,3.8,3.8,0,0,1-2.16-.55,4,4,0,0,1-1.32-1.49,4.54,4.54,0,0,1-.5-2.17,4.29,4.29,0,0,1,1-3,3.47,3.47,0,0,1,2.71-1.15,3.21,3.21,0,0,1,2.57,1.12,4.5,4.5,0,0,1,1,3Zm-5.66-1h4.07a2.24,2.24,0,0,0-.57-1.48,1.84,1.84,0,0,0-1.37-.51,2,2,0,0,0-1.41.51A2.62,2.62,0,0,0,153.49,117.2ZM166.07,114v-.49a4.32,4.32,0,0,1,.83-2.91,2.52,2.52,0,0,1,2-1,5.59,5.59,0,0,1,1.18.15v1.57a2,2,0,0,0-.73-.14,1.5,1.5,0,0,0-1.31.5,3.2,3.2,0,0,0-.36,1.78V114h1.44v1.44h-1.44v6.64h-1.6v-6.64h-1.16V114Zm8.05,0a4.21,4.21,0,0,1,3.06,1.19,4,4,0,0,1,1.23,3,3.83,3.83,0,0,1-1.24,2.91,4.41,4.41,0,0,1-3.12,1.15,4.2,4.2,0,0,1-3-1.17,3.88,3.88,0,0,1-1.23-2.93,3.94,3.94,0,0,1,1.24-3A4.3,4.3,0,0,1,174.12,114ZM174,115.4a2.5,2.5,0,0,0-1.89.76,2.63,2.63,0,0,0-.74,1.92,2.49,2.49,0,0,0,.76,1.89,2.9,2.9,0,0,0,3.87,0,2.58,2.58,0,0,0,.75-1.91,2.53,2.53,0,0,0-.78-1.9A2.7,2.7,0,0,0,174,115.4ZM181.8,114v1.85l.09-.14c.77-1.25,1.54-1.87,2.32-1.87a2.87,2.87,0,0,1,1.89.91l-.85,1.41a2.36,2.36,0,0,0-1.55-.79,1.65,1.65,0,0,0-1.34.74,2.81,2.81,0,0,0-.56,1.74v4.23h-1.61V114Zm14.56-4.27h1.23l5.51,12.35h-1.8l-1.64-3.64h-5.24l-1.53,3.64h-1.81Zm2.58,7.15-2-4.45-1.84,4.45Zm10.49-7.08H211v12.28h-3.42a3.77,3.77,0,0,1-2.86-1.13,4.27,4.27,0,0,1-1.07-3,4.08,4.08,0,0,1,1.12-2.94,3.81,3.81,0,0,1,2.86-1.15,5.15,5.15,0,0,1,1.76.34Zm0,10.91v-5.12a3.22,3.22,0,0,0-1.51-.38,2.43,2.43,0,0,0-1.9.78,3,3,0,0,0-.71,2.11,2.8,2.8,0,0,0,.62,1.93,1.87,1.87,0,0,0,.78.54,5.38,5.38,0,0,0,1.48.14Zm8.95,1.37v-1a3.51,3.51,0,0,1-1.17.87,3,3,0,0,1-1.3.31,2.67,2.67,0,0,1-1.41-.38,2.46,2.46,0,0,1-1-1,5.15,5.15,0,0,1-.33-2.17V114h1.6v4.6a3.1,3.1,0,0,0,.37,1.78,1.46,1.46,0,0,0,1.27.51,2.36,2.36,0,0,0,1.95-1.12V114H220v8.08Zm3.84-12.28h1.59v12.28h-1.59Zm2.8,5.48,3-3V114h2.56v1.44H228v4c0,.93.39,1.39,1.15,1.39a3.57,3.57,0,0,0,1.82-.57v1.49a4,4,0,0,1-2,.52,2.67,2.67,0,0,1-1.83-.64,1.92,1.92,0,0,1-.38-.43,3.05,3.05,0,0,1-.25-.64,7.64,7.64,0,0,1-.1-1.49v-3.58H225Zm7,6.22v-1.72a7.68,7.68,0,0,0,1.39.77,3.34,3.34,0,0,0,1.19.29,1.52,1.52,0,0,0,.86-.24.71.71,0,0,0,.36-.59.82.82,0,0,0-.23-.59,5.64,5.64,0,0,0-1-.67,6.84,6.84,0,0,1-2-1.47,2.11,2.11,0,0,1-.48-1.33,1.87,1.87,0,0,1,.72-1.52,2.85,2.85,0,0,1,1.87-.59,5.07,5.07,0,0,1,2.43.67v1.58a4.79,4.79,0,0,0-2.33-.86,1.3,1.3,0,0,0-.75.19.62.62,0,0,0-.28.53.71.71,0,0,0,.26.53,4.17,4.17,0,0,0,.91.62l.57.33c1.35.76,2,1.6,2,2.53a2,2,0,0,1-.78,1.63,3.07,3.07,0,0,1-2,.63,4.94,4.94,0,0,1-1.28-.15A8,8,0,0,1,232,121.48Z"/><path d="M30.7,131.38v12.28h-.95V131.38Z"/><path d="M34.21,135.58V137h0a3,3,0,0,1,2.66-1.56,2.85,2.85,0,0,1,2.19.88,3.43,3.43,0,0,1,.82,2.43v4.93h-.87v-4.6c0-1.87-.73-2.8-2.19-2.8A3.06,3.06,0,0,0,34.21,138v5.67h-.86v-8.08Z"/><path d="M49.14,131.38v12.28h-.87V143a4,4,0,0,1-2.39.79A3.9,3.9,0,0,1,43,142.6a4.42,4.42,0,0,1,0-6,3.94,3.94,0,0,1,2.92-1.19,5.19,5.19,0,0,1,2.39.65v-4.69Zm-.87,10.86V137a4.2,4.2,0,0,0-2.35-.76,3.07,3.07,0,0,0-2.3.93,3.23,3.23,0,0,0-.91,2.37,3.3,3.3,0,0,0,1,2.44,3.26,3.26,0,0,0,2.41,1A3.77,3.77,0,0,0,48.27,142.24Z"/><path d="M52.38,131.38v1.48h-.87v-1.48Zm0,4.2v8.08h-.87v-8.08Z"/><path d="M61.42,135.58l-3.48,8.24h-.52l-3.69-8.24h.87l3,6.81,2.92-6.81Z"/><path d="M63.62,131.38v1.48h-.87v-1.48Zm0,4.2v8.08h-.87v-8.08Z"/><path d="M73,131.38v12.28H72.1V143a4,4,0,0,1-2.39.79,3.91,3.91,0,0,1-2.91-1.22,4.42,4.42,0,0,1,0-6,3.94,3.94,0,0,1,2.93-1.19,5.22,5.22,0,0,1,2.39.65v-4.69Zm-.87,10.86V137a4.25,4.25,0,0,0-2.36-.76,3.07,3.07,0,0,0-2.3.93,3.28,3.28,0,0,0-.91,2.37,3.34,3.34,0,0,0,1,2.44,3.28,3.28,0,0,0,2.42,1A3.79,3.79,0,0,0,72.1,142.24Z"/><path d="M80.93,143.66v-1.33h0a3.81,3.81,0,0,1-1.16,1.15,3.3,3.3,0,0,1-3.66-.5,3.22,3.22,0,0,1-.85-2.39v-5h.86v5a2.42,2.42,0,0,0,.61,1.76,2.12,2.12,0,0,0,1.6.65,2.54,2.54,0,0,0,1.44-.39,4.23,4.23,0,0,0,1.19-1.34v-5.67h.86v8.08Z"/><path d="M90.51,142.26V143a3.41,3.41,0,0,1-1.63.84.46.46,0,0,1-.42-.2,2.29,2.29,0,0,1-.16-.8,4.1,4.1,0,0,1-2.53,1,2.17,2.17,0,0,1-1.55-.6,1.92,1.92,0,0,1-.63-1.45,2.33,2.33,0,0,1,1.22-2.08,7.48,7.48,0,0,1,3.49-.87v-1q0-1.65-1.8-1.65a4.13,4.13,0,0,0-2.47,1v-.89a4.92,4.92,0,0,1,2.61-.86,2.94,2.94,0,0,1,1.82.54,1.86,1.86,0,0,1,.71,1.57v5c0,.28.06.42.19.42A3.16,3.16,0,0,0,90.51,142.26Zm-2.21-.2v-2.52a5,5,0,0,0-2.76.58,1.9,1.9,0,0,0-1.09,1.65,1.2,1.2,0,0,0,.45.95,1.72,1.72,0,0,0,1.15.39A3.37,3.37,0,0,0,88.3,142.06Z"/><path d="M92.78,131.38v12.28h-.87V131.38Z"/><path d="M110.68,132.25v1a9.25,9.25,0,0,0-4.37-1.19,5.16,5.16,0,0,0-3.83,1.56,5.32,5.32,0,0,0-1.53,3.88,5.19,5.19,0,0,0,1.54,3.88,5.42,5.42,0,0,0,4,1.52,9.43,9.43,0,0,0,4.37-1.26v1a9.25,9.25,0,0,1-4.35,1.15,6.49,6.49,0,0,1-4.68-1.8,6.3,6.3,0,0,1,0-9,6.38,6.38,0,0,1,4.55-1.81A10.37,10.37,0,0,1,110.68,132.25Z"/><path d="M119.05,142.26V143a3.43,3.43,0,0,1-1.64.84.44.44,0,0,1-.41-.2,2.23,2.23,0,0,1-.17-.8,4.08,4.08,0,0,1-2.53,1,2.18,2.18,0,0,1-1.55-.6,1.92,1.92,0,0,1-.63-1.45,2.35,2.35,0,0,1,1.22-2.08,7.51,7.51,0,0,1,3.49-.87v-1c0-1.1-.59-1.65-1.79-1.65a4.13,4.13,0,0,0-2.47,1v-.89a4.86,4.86,0,0,1,2.61-.86A2.91,2.91,0,0,1,117,136a1.83,1.83,0,0,1,.71,1.57v5c0,.28.07.42.2.42A3.24,3.24,0,0,0,119.05,142.26Zm-2.22-.2v-2.52a5,5,0,0,0-2.75.58,1.91,1.91,0,0,0-1.1,1.65,1.21,1.21,0,0,0,.46.95,1.71,1.71,0,0,0,1.14.39A3.37,3.37,0,0,0,116.83,142.06Z"/><path d="M121.22,135.58V137h0a3,3,0,0,1,2.66-1.56,2.85,2.85,0,0,1,2.19.88,3.43,3.43,0,0,1,.81,2.43v4.93h-.86v-4.6c0-1.87-.73-2.8-2.19-2.8a3,3,0,0,0-2.65,1.73v5.67h-.86v-8.08Z"/><path d="M136.15,131.38v12.28h-.87V143a4,4,0,0,1-2.39.79,3.89,3.89,0,0,1-2.9-1.22,4.42,4.42,0,0,1,0-6,3.94,3.94,0,0,1,2.92-1.19,5.19,5.19,0,0,1,2.39.65v-4.69Zm-.87,10.86V137a4.22,4.22,0,0,0-2.35-.76,3.1,3.1,0,0,0-2.31.93,3.27,3.27,0,0,0-.9,2.37,3.3,3.3,0,0,0,1,2.44,3.26,3.26,0,0,0,2.41,1A3.77,3.77,0,0,0,135.28,142.24Z"/><path d="M139.39,131.38v1.48h-.87v-1.48Zm0,4.2v8.08h-.87v-8.08Z"/><path d="M148.73,131.38v12.28h-.87V143a4,4,0,0,1-2.39.79,3.87,3.87,0,0,1-2.9-1.22,4.39,4.39,0,0,1,0-6,3.92,3.92,0,0,1,2.92-1.19,5.22,5.22,0,0,1,2.39.65v-4.69Zm-.87,10.86V137a4.22,4.22,0,0,0-2.35-.76,3.09,3.09,0,0,0-2.31.93,3.27,3.27,0,0,0-.9,2.37,3.33,3.33,0,0,0,1,2.44,3.28,3.28,0,0,0,2.42,1A3.77,3.77,0,0,0,147.86,142.24Z"/><path d="M157.43,142.26V143a3.41,3.41,0,0,1-1.63.84.43.43,0,0,1-.41-.2,2,2,0,0,1-.17-.8,4.1,4.1,0,0,1-2.53,1,2.17,2.17,0,0,1-1.55-.6,1.92,1.92,0,0,1-.63-1.45,2.33,2.33,0,0,1,1.22-2.08,7.48,7.48,0,0,1,3.49-.87v-1c0-1.1-.6-1.65-1.79-1.65a4.09,4.09,0,0,0-2.47,1v-.89a4.86,4.86,0,0,1,2.61-.86,2.93,2.93,0,0,1,1.81.54,1.86,1.86,0,0,1,.71,1.57v5c0,.28.06.42.19.42A3.07,3.07,0,0,0,157.43,142.26Zm-2.21-.2v-2.52a5,5,0,0,0-2.76.58,1.9,1.9,0,0,0-1.09,1.65,1.18,1.18,0,0,0,.46.95,1.68,1.68,0,0,0,1.14.39A3.37,3.37,0,0,0,155.22,142.06Z"/><path d="M160.27,132.9v2.68h2.27v.7h-2.27v4.81a4,4,0,0,0,.19,1.52c.13.24.47.37,1,.37a3.62,3.62,0,0,0,1.47-.4v.83a3.87,3.87,0,0,1-1.67.41,1.94,1.94,0,0,1-1.33-.46,1.55,1.55,0,0,1-.54-1.26v-5.82h-2.18v-.7h2.18v-1.93l.59-.75Z"/><path d="M170.94,139.32h-6.37a3,3,0,0,0,0,.42,3.08,3.08,0,0,0,1,2.3,3.19,3.19,0,0,0,2.28.94,4.68,4.68,0,0,0,3-1.21v1a5,5,0,0,1-3.11,1.07,3.78,3.78,0,0,1-2.89-1.21,4.34,4.34,0,0,1-1.15-3.09,4.24,4.24,0,0,1,1.06-2.94,3.6,3.6,0,0,1,5.19-.11A3.85,3.85,0,0,1,170.94,139.32Zm-6.26-.69h5.24c-.3-1.58-1.16-2.37-2.56-2.37a2.55,2.55,0,0,0-1.71.62A3,3,0,0,0,164.68,138.63Z"/><path d="M178,131.38h3.15a4.66,4.66,0,0,1,3,.86,2.83,2.83,0,0,1,1,2.32,3.06,3.06,0,0,1-2.34,3,5.57,5.57,0,0,1,1.63,1.88l2.78,4.24h-1.12L184,140.3a8.28,8.28,0,0,0-1.67-2.11,3,3,0,0,0-1.75-.42h-1.66v5.89h-1Zm1,.79V137h2a3.86,3.86,0,0,0,2.38-.63,2.13,2.13,0,0,0,.82-1.78,2.08,2.08,0,0,0-.84-1.76,3.9,3.9,0,0,0-2.4-.64Z"/><path d="M194.83,139.32h-6.37a3,3,0,0,0,0,.42,3.08,3.08,0,0,0,1,2.3,3.17,3.17,0,0,0,2.28.94,4.68,4.68,0,0,0,3-1.21v1a5,5,0,0,1-3.11,1.07,3.82,3.82,0,0,1-2.9-1.21,4.34,4.34,0,0,1-1.14-3.09,4.2,4.2,0,0,1,1.06-2.94,3.6,3.6,0,0,1,5.19-.11A3.89,3.89,0,0,1,194.83,139.32Zm-6.26-.69h5.24c-.31-1.58-1.16-2.37-2.56-2.37a2.6,2.6,0,0,0-1.72.62A3.07,3.07,0,0,0,188.57,138.63Z"/><path d="M197.58,135.58V136a5.4,5.4,0,0,1,2.44-.61,3.76,3.76,0,0,1,2.85,1.18,4.46,4.46,0,0,1,0,6,3.79,3.79,0,0,1-2.86,1.23,5.34,5.34,0,0,1-2.4-.61v4.59h-.86V135.58Zm0,1.28v5.51a4.63,4.63,0,0,0,2.23.61,3.15,3.15,0,0,0,2.35-.92,3.28,3.28,0,0,0,.9-2.4,3.36,3.36,0,0,0-.95-2.44,3.22,3.22,0,0,0-2.4-1A4.42,4.42,0,0,0,197.58,136.86Z"/><path d="M209.62,135.42a3.93,3.93,0,0,1,2.93,1.2,4.4,4.4,0,0,1,0,6,4.19,4.19,0,0,1-5.87,0,4.4,4.4,0,0,1,0-6A4,4,0,0,1,209.62,135.42Zm0,7.56a3,3,0,0,0,2.28-1,3.3,3.3,0,0,0,.91-2.39,3.34,3.34,0,0,0-.91-2.4,3,3,0,0,0-2.28-1,3.06,3.06,0,0,0-2.29,1,3.35,3.35,0,0,0-.91,2.41,3.3,3.3,0,0,0,.91,2.39A3.06,3.06,0,0,0,209.62,143Z"/><path d="M221.23,136.38l-.5.8a2.83,2.83,0,0,0-1.62-.92c-.81,0-1.68.78-2.6,2.32v5.08h-.86v-8.08h.86v2.12h0c1-1.52,1.91-2.28,2.83-2.28A3,3,0,0,1,221.23,136.38Z"/><path d="M224.47,132.9v2.68h2.27v.7h-2.27v4.81a3.81,3.81,0,0,0,.19,1.52c.13.24.46.37,1,.37a3.62,3.62,0,0,0,1.47-.4v.83a3.87,3.87,0,0,1-1.67.41,1.94,1.94,0,0,1-1.33-.46,1.55,1.55,0,0,1-.54-1.26v-5.82h-2.18v-.7h2.18v-1.93l.59-.75Z"/><path d="M238.18,131.57v.81a4.4,4.4,0,0,0-1.46-.31c-1.3,0-2,.83-2,2.5v1h1.57v.7h-1.57v7.38h-.86v-7.38h-1.49v-.7h1.49v-1.33a3,3,0,0,1,.82-2.21,2.7,2.7,0,0,1,2-.81A3.9,3.9,0,0,1,238.18,131.57Z"/><path d="M241.16,135.42a3.93,3.93,0,0,1,2.93,1.2,4.43,4.43,0,0,1,0,6,4.19,4.19,0,0,1-5.87,0,4.38,4.38,0,0,1,0-6A3.94,3.94,0,0,1,241.16,135.42Zm0,7.56a3,3,0,0,0,2.27-1,3.31,3.31,0,0,0,.92-2.39,3.35,3.35,0,0,0-.92-2.4,3,3,0,0,0-2.27-1,3,3,0,0,0-2.29,1,3.31,3.31,0,0,0-.92,2.41,3.26,3.26,0,0,0,.92,2.39A3,3,0,0,0,241.16,143Z"/><path d="M252.77,136.38l-.5.8a2.88,2.88,0,0,0-1.63-.92c-.81,0-1.67.78-2.59,2.32v5.08h-.86v-8.08h.86v2.12h0c1-1.52,1.91-2.28,2.83-2.28A3,3,0,0,1,252.77,136.38Z"/><path d="M258.45,131.38h3.39a4.5,4.5,0,0,1,3,.87,2.94,2.94,0,0,1,1,2.38A3,3,0,0,1,264.8,137a4.59,4.59,0,0,1-3.05.88H259.4v5.74h-.95Zm.95.79v5h2.29a3.68,3.68,0,0,0,2.34-.65,2.23,2.23,0,0,0,.8-1.84,2.27,2.27,0,0,0-.79-1.8,3.38,3.38,0,0,0-2.24-.67Z"/><path d="M272.94,136.38l-.5.8a2.88,2.88,0,0,0-1.63-.92c-.81,0-1.67.78-2.59,2.32v5.08h-.86v-8.08h.86v2.12h0c1-1.52,1.91-2.28,2.83-2.28A3,3,0,0,1,272.94,136.38Z"/><path d="M277.29,135.42a3.93,3.93,0,0,1,2.93,1.2,4.4,4.4,0,0,1,0,6,4.19,4.19,0,0,1-5.87,0,4.4,4.4,0,0,1,0-6A4,4,0,0,1,277.29,135.42Zm0,7.56a3,3,0,0,0,2.28-1,3.59,3.59,0,0,0,0-4.79,3,3,0,0,0-2.27-1,3.06,3.06,0,0,0-2.29,1,3.35,3.35,0,0,0-.92,2.41A3.31,3.31,0,0,0,275,142,3.06,3.06,0,0,0,277.29,143Z"/><path d="M287.88,131.57v.81a4.45,4.45,0,0,0-1.46-.31c-1.31,0-2,.83-2,2.5v1H286v.7h-1.56v7.38h-.86v-7.38h-1.5v-.7h1.5v-1.33a3,3,0,0,1,.81-2.21,2.72,2.72,0,0,1,2-.81A4,4,0,0,1,287.88,131.57Z"/><path d="M294,139.32h-6.37a3,3,0,0,0,0,.42,3.08,3.08,0,0,0,1,2.3,3.17,3.17,0,0,0,2.28.94,4.68,4.68,0,0,0,3-1.21v1a5,5,0,0,1-3.11,1.07,3.82,3.82,0,0,1-2.9-1.21,4.34,4.34,0,0,1-1.14-3.09,4.2,4.2,0,0,1,1.06-2.94,3.6,3.6,0,0,1,5.19-.11A3.89,3.89,0,0,1,294,139.32Zm-6.26-.69H293c-.31-1.58-1.16-2.37-2.56-2.37a2.6,2.6,0,0,0-1.72.62A3.07,3.07,0,0,0,287.74,138.63Z"/><path d="M300.18,136.1V137a4,4,0,0,0-2.22-.83,2,2,0,0,0-1.23.39,1.22,1.22,0,0,0-.5,1,1.09,1.09,0,0,0,.31.75,4.94,4.94,0,0,0,1.67.88,4.15,4.15,0,0,1,1.8,1.1,2.11,2.11,0,0,1,.42,1.28,2,2,0,0,1-.76,1.58,2.84,2.84,0,0,1-1.89.65,4.62,4.62,0,0,1-2.43-.74v-.84a5.73,5.73,0,0,0,2.54.74,1.89,1.89,0,0,0,1.23-.4,1.25,1.25,0,0,0,.48-1,1.17,1.17,0,0,0-.32-.78,5.34,5.34,0,0,0-1.68-.9,4.3,4.3,0,0,1-1.79-1.08,1.88,1.88,0,0,1-.41-1.18,2,2,0,0,1,.76-1.57,2.78,2.78,0,0,1,1.85-.64A4.4,4.4,0,0,1,300.18,136.1Z"/><path d="M306.58,136.1V137a4,4,0,0,0-2.21-.83,1.93,1.93,0,0,0-1.23.39,1.22,1.22,0,0,0-.5,1,1.12,1.12,0,0,0,.3.75,5.14,5.14,0,0,0,1.68.88,4.15,4.15,0,0,1,1.8,1.1,2.11,2.11,0,0,1,.42,1.28,2,2,0,0,1-.76,1.58,2.84,2.84,0,0,1-1.89.65,4.62,4.62,0,0,1-2.43-.74v-.84a5.69,5.69,0,0,0,2.54.74,1.89,1.89,0,0,0,1.23-.4,1.27,1.27,0,0,0,.47-1,1.16,1.16,0,0,0-.31-.78,5.43,5.43,0,0,0-1.69-.9,4.25,4.25,0,0,1-1.78-1.08,1.88,1.88,0,0,1-.41-1.18,2,2,0,0,1,.76-1.57,2.78,2.78,0,0,1,1.85-.64A4.36,4.36,0,0,1,306.58,136.1Z"/><path d="M309.54,131.38v1.48h-.87v-1.48Zm0,4.2v8.08h-.87v-8.08Z"/><path d="M315.67,135.42a3.93,3.93,0,0,1,2.93,1.2,4.4,4.4,0,0,1,0,6,4.19,4.19,0,0,1-5.87,0,4.4,4.4,0,0,1,0-6A4,4,0,0,1,315.67,135.42Zm0,7.56a3,3,0,0,0,2.28-1,3.3,3.3,0,0,0,.91-2.39,3.34,3.34,0,0,0-.91-2.4,3,3,0,0,0-2.28-1,3.06,3.06,0,0,0-2.29,1,3.35,3.35,0,0,0-.92,2.41,3.31,3.31,0,0,0,.92,2.39A3.06,3.06,0,0,0,315.67,143Z"/><path d="M322.55,135.58V137h0a3.06,3.06,0,0,1,2.67-1.56,2.81,2.81,0,0,1,2.18.88,3.39,3.39,0,0,1,.82,2.43v4.93h-.86v-4.6c0-1.87-.73-2.8-2.2-2.8a3,3,0,0,0-2.64,1.73v5.67h-.86v-8.08Z"/><path d="M336.92,142.26V143a3.43,3.43,0,0,1-1.64.84.43.43,0,0,1-.41-.2,2.23,2.23,0,0,1-.17-.8,4.08,4.08,0,0,1-2.53,1,2.17,2.17,0,0,1-1.55-.6,1.92,1.92,0,0,1-.63-1.45,2.35,2.35,0,0,1,1.22-2.08,7.51,7.51,0,0,1,3.49-.87v-1c0-1.1-.6-1.65-1.79-1.65a4.11,4.11,0,0,0-2.47,1v-.89a4.86,4.86,0,0,1,2.61-.86,2.93,2.93,0,0,1,1.81.54,1.86,1.86,0,0,1,.71,1.57v5c0,.28.06.42.19.42A3.16,3.16,0,0,0,336.92,142.26Zm-2.22-.2v-2.52a5,5,0,0,0-2.76.58,1.92,1.92,0,0,0-1.09,1.65,1.18,1.18,0,0,0,.46.95,1.68,1.68,0,0,0,1.14.39A3.37,3.37,0,0,0,334.7,142.06Z"/><path d="M339.18,131.38v12.28h-.87V131.38Z"/><path d="M346,136.1V137a4,4,0,0,0-2.21-.83,2,2,0,0,0-1.24.39,1.22,1.22,0,0,0-.5,1,1.13,1.13,0,0,0,.31.75,4.92,4.92,0,0,0,1.68.88,4.16,4.16,0,0,1,1.79,1.1,2.12,2.12,0,0,1,.43,1.28,2,2,0,0,1-.77,1.58,2.84,2.84,0,0,1-1.89.65,4.67,4.67,0,0,1-2.43-.74v-.84a5.76,5.76,0,0,0,2.55.74,1.88,1.88,0,0,0,1.22-.4,1.25,1.25,0,0,0,.48-1,1.16,1.16,0,0,0-.31-.78,5.43,5.43,0,0,0-1.69-.9,4.18,4.18,0,0,1-1.78-1.08,1.82,1.82,0,0,1-.41-1.18,2,2,0,0,1,.76-1.57,2.74,2.74,0,0,1,1.85-.64A4.39,4.39,0,0,1,346,136.1Z"/><polygon class="cls-4" points="150.42 4.66 134.65 31.98 150.42 59.29 181.96 59.29 197.73 31.98 181.96 4.66 150.42 4.66"/><g class="cls-5"><polygon class="cls-6" points="204.8 27.9 189.03 0.58 204.8 -26.73 236.33 -26.73 252.1 0.58 236.33 27.9 204.8 27.9"/></g><polygon class="cls-6" points="259.17 59.29 243.4 31.98 259.17 4.66 290.71 4.66 306.47 31.98 290.71 59.29 259.17 59.29"/><g class="cls-5"><polygon class="cls-6" points="313.54 27.9 297.78 0.58 313.54 -26.73 345.08 -26.73 360.85 0.58 345.08 27.9 313.54 27.9"/></g><polygon class="cls-4" points="367.92 59.29 352.15 31.98 367.92 4.66 399.45 4.66 415.22 31.98 399.45 59.29 367.92 59.29"/><g class="cls-5"><polygon class="cls-6" points="422.29 27.9 406.52 0.58 422.29 -26.73 453.83 -26.73 469.6 0.58 453.83 27.9 422.29 27.9"/></g><polygon class="cls-4" points="476.67 4.66 460.9 31.97 476.67 59.29 508.2 59.29 510.24 55.77 510.24 8.19 508.2 4.66 476.67 4.66"/><polygon class="cls-4" points="204.8 36.06 189.03 63.37 204.8 90.68 236.33 90.68 252.1 63.37 236.33 36.06 204.8 36.06"/><g class="cls-5"><polygon class="cls-6" points="313.54 90.68 297.78 63.37 313.54 36.06 345.08 36.06 360.85 63.37 345.08 90.68 313.54 90.68"/><polygon class="cls-6" points="422.29 90.68 406.52 63.37 422.29 36.06 453.83 36.06 469.6 63.37 453.83 90.68 422.29 90.68"/><path class="cls-7" d="M179,20.89a15.69,15.69,0,0,0-2.24,1.48A13.75,13.75,0,0,0,173.48,26c-.89,1.34-1.82,2.11-2.55,2.11a1,1,0,0,1-.71-.3,1,1,0,0,1-.3-.83c.07-.7.84-1.59,2.11-2.44a13.73,13.73,0,0,0,3.66-3.26,15.64,15.64,0,0,0,1.48-2.25l-.55-.55a.24.24,0,0,1-.06-.08c-2.25,1.33-9.87,9-10,9.15s.12.39.12.39l0,0,3.55,3.56,0,0s.22.29.39.12,7.82-7.78,9.15-10l-.09-.05Z"/><path class="cls-7" d="M161.05,33.34a1.64,1.64,0,0,0-.38.67s-2.67,3.24-2.86,3.45-.08.29-.08.29a7.19,7.19,0,0,1-.73.6.24.24,0,0,0-.05.29.2.2,0,0,0-.09.06.22.22,0,0,0,0,.32l2.29,2.29a.22.22,0,0,0,.32,0,.41.41,0,0,0,.05-.09.29.29,0,0,0,.3,0,5,5,0,0,1,.6-.73s.07.1.29-.09,3.44-2.85,3.44-2.85a1.76,1.76,0,0,0,.68-.39c.3-.26,3.72-3.85,4.94-5.14l-3.58-3.57c-1.28,1.22-4.87,4.63-5.14,4.94"/><path class="cls-7" d="M179.3,18.86c-1.09-1.09-2-.86-2.31-.68l3,3c.18-.35.41-1.21-.69-2.31"/><path class="cls-7" d="M155.12,40.88l-.45.33-.13.11a1.75,1.75,0,0,0-.81,1.12,9.46,9.46,0,0,1-.75,2.21,2.25,2.25,0,0,1-.67.92l-.07.06s0,0,0,.06l.07,0,0,0,0,0,1.46-1.47a.35.35,0,0,1-.07-.2.36.36,0,0,1,.71,0,.36.36,0,0,1-.36.36.34.34,0,0,1-.19-.07l-1.46,1.47,0,.05,0,0s0,.06,0,.07h.06s0,0,.06-.06a2.26,2.26,0,0,1,.91-.67,9.69,9.69,0,0,1,2.22-.75,1.82,1.82,0,0,0,1.12-.81l.11-.14a4,4,0,0,0,.32-.45,9.21,9.21,0,0,1,1.28-1.55l-1.89-1.88a8.62,8.62,0,0,1-1.55,1.27"/><path class="cls-4" d="M261.73,36.68H288.6a.61.61,0,0,0,.61-.61v-17a.61.61,0,0,0-.61-.61H261.73a.61.61,0,0,0-.61.61v17a.61.61,0,0,0,.61.61m.93-16h25V34.39h-25Z"/><path class="cls-4" d="M292.81,43.16l-3.4-5.67a.88.88,0,0,0-.81-.35H261.73a.88.88,0,0,0-.81.35l-3.4,5.67s-.82,1.26,3.17,1.17h28.94c4,.09,3.18-1.17,3.18-1.17m-21.3-1.81v0a0,0,0,0,1,.05-.05h7.21a0,0,0,0,1,.05.05v0l.32,1.53a.07.07,0,0,1-.05,0h-7.85a0,0,0,0,1-.05,0Zm-9.46-3.09a.24.24,0,0,1,.25-.13h20.76c.14,0,.21,0,.25.11l.87,2.1H260.92Zm27.67,2.08h-4.19c-.12,0-.26,0-.3-.12l-.9-2.09h0a.43.43,0,0,1,.16,0h3.88a.25.25,0,0,1,.26.13l1.14,2.08Z"/><path class="cls-4" d="M335,4l-.6-.18a1.11,1.11,0,0,1-.27-2h0l.5-.37c.36-.24.29-.44.26-.52s-.1-.28-.52-.25l-.77,0a1.1,1.1,0,0,1-.94-.55,1.08,1.08,0,0,1,.1-1.25l.4-.48c.28-.32.17-.49.12-.57s-.16-.25-.57-.12l-.6.17h0A1.13,1.13,0,0,1,331-2.26a1.1,1.1,0,0,1-.32-1.21l.22-.59c.16-.39,0-.52-.08-.57s-.23-.18-.57.08l-.51.36h0a1.12,1.12,0,0,1-1.09.14A1.12,1.12,0,0,1,328-5.12c0-.34,0-.62,0-.62,0-.43-.16-.5-.25-.53s-.28-.1-.52.25l-.37.51A1.13,1.13,0,0,1,326-5a1.11,1.11,0,0,1-1-.73c-.11-.32-.21-.59-.21-.59-.13-.41-.33-.39-.42-.39s-.3,0-.43.39c0,0-.09.27-.21.59a1.11,1.11,0,0,1-1,.73,1.1,1.1,0,0,1-.95-.53L321.31-6c-.24-.35-.44-.28-.52-.25s-.28.1-.25.53c0,0,0,.28,0,.62a1.09,1.09,0,0,1-.68,1.06,1.1,1.1,0,0,1-1.08-.14h0l-.52-.36c-.34-.26-.5-.14-.57-.08s-.24.18-.08.57c0,0,.11.27.22.59a1.08,1.08,0,0,1-.32,1.21,1.1,1.1,0,0,1-1.07.21h0l-.6-.17c-.41-.13-.52,0-.57.12s-.16.25.12.57l.41.48a1.12,1.12,0,0,1,.1,1.25,1.11,1.11,0,0,1-.94.55l-.77,0c-.43,0-.49.17-.52.25s-.1.28.25.52l.51.37h0a1.11,1.11,0,0,1,.5,1,1.13,1.13,0,0,1-.76,1l-.6.18c-.41.12-.41.32-.41.41s0,.3.41.41l.6.18h0a1.1,1.1,0,0,1,.77.78A1.09,1.09,0,0,1,314.55,7l-.52.36c-.35.23-.29.43-.26.51s.09.29.52.27a5.67,5.67,0,0,0,.7.05,1.1,1.1,0,0,1,.84,1.79c-.22.27-.41.48-.41.48-.28.32-.17.49-.12.57s.16.25.57.12l.6-.17h0a1.1,1.1,0,0,1,1.07.2,1.08,1.08,0,0,1,.32,1.21c-.11.32-.22.59-.22.59-.16.4,0,.52.08.57s.23.18.57-.07l.52-.37h0a1.09,1.09,0,0,1,1.08-.13,1.08,1.08,0,0,1,.68,1.05c0,.34,0,.63,0,.63,0,.42.17.49.25.52s.28.1.52-.25l.38-.51a1.1,1.1,0,0,1,2,.2c.12.32.21.59.21.59.13.41.34.4.43.39s.29,0,.42-.39c0,0,.1-.27.21-.59a1.08,1.08,0,0,1,1-.72,1.1,1.1,0,0,1,1,.52l.37.51c.24.35.44.28.52.25s.28-.1.25-.52c0,0,0-.29,0-.63a1.11,1.11,0,0,1,1.77-.92h0l.51.37c.34.25.5.13.57.07s.24-.17.08-.57l-.22-.59a1.1,1.1,0,0,1,.32-1.21,1.12,1.12,0,0,1,1.08-.2h0l.6.17c.41.13.52,0,.57-.12s.16-.25-.12-.57c0,0-.19-.21-.4-.48a1.07,1.07,0,0,1-.1-1.24,1.08,1.08,0,0,1,.94-.55,5.62,5.62,0,0,0,.69-.05c.43,0,.49-.18.52-.27s.1-.28-.26-.51L334.05,7a1.11,1.11,0,0,1,.35-2h0l.6-.18c.41-.11.41-.32.41-.41s0-.29-.4-.41M324.3,8.25a3.81,3.81,0,1,1,3.8-3.81,3.81,3.81,0,0,1-3.8,3.81"/><path class="cls-4" d="M345.16-7.39l-.39-.12a.74.74,0,0,1-.5-.66.71.71,0,0,1,.33-.63h0l.33-.24c.23-.16.19-.29.17-.34s-.06-.19-.34-.17l-.51,0a.73.73,0,0,1-.62-.36.74.74,0,0,1,.07-.82L344-11c.18-.21.11-.32.07-.37s-.1-.16-.37-.08l-.39.12h0a.72.72,0,0,1-.7-.14.71.71,0,0,1-.21-.79c.07-.21.14-.39.14-.39.11-.26,0-.34-.05-.37s-.15-.12-.37.05l-.34.24h0a.72.72,0,0,1-.71.09.73.73,0,0,1-.44-.69c0-.23,0-.41,0-.41,0-.28-.11-.33-.17-.35s-.18-.06-.34.17l-.24.33a.72.72,0,0,1-.63.34.7.7,0,0,1-.67-.47c-.08-.21-.14-.39-.14-.39-.08-.27-.22-.26-.28-.26s-.19,0-.27.26l-.14.39a.7.7,0,0,1-.67.47.71.71,0,0,1-.63-.34l-.24-.33c-.16-.23-.29-.19-.35-.17s-.18.07-.16.35c0,0,0,.18,0,.41a.72.72,0,0,1-.45.69.72.72,0,0,1-.71-.09h0l-.34-.24c-.22-.17-.33-.09-.37-.05s-.16.11-.06.37l.15.39a.72.72,0,0,1-.21.79.74.74,0,0,1-.71.14h0l-.39-.12c-.27-.08-.35,0-.38.08s-.1.16.08.37l.27.32a.72.72,0,0,1,.06.82.71.71,0,0,1-.62.36l-.5,0c-.28,0-.32.11-.34.17s-.07.18.16.34l.34.24h0a.71.71,0,0,1,.33.63.74.74,0,0,1-.5.66l-.4.12c-.26.08-.26.21-.26.27s0,.19.27.27l.39.12h0a.71.71,0,0,1,.51.51.73.73,0,0,1-.27.77l-.34.23c-.23.16-.19.29-.17.34s.06.19.34.18a4,4,0,0,0,.45,0,.71.71,0,0,1,.62.36.72.72,0,0,1-.06.82l-.27.31c-.18.21-.11.32-.08.37s.11.17.38.08l.39-.11h0a.73.73,0,0,1,.71.13.74.74,0,0,1,.21.8l-.15.38c-.1.26,0,.34.06.38s.15.12.37-.05l.34-.24h0a.72.72,0,0,1,.71-.09.72.72,0,0,1,.45.69c0,.22,0,.41,0,.41,0,.28.11.32.16.34s.19.07.35-.16l.24-.33a.74.74,0,0,1,.63-.35.71.71,0,0,1,.67.48c.07.21.14.38.14.38.08.27.22.27.27.26s.2,0,.28-.26l.14-.38a.71.71,0,0,1,.67-.48.75.75,0,0,1,.63.35l.24.33c.16.23.29.18.34.16s.19-.06.17-.34c0,0,0-.19,0-.41a.73.73,0,0,1,.44-.69.72.72,0,0,1,.71.09h0l.34.24c.22.17.33.09.37.05s.16-.12.05-.38c0,0-.07-.17-.14-.38a.72.72,0,0,1,.21-.8.72.72,0,0,1,.7-.13h0l.39.11c.27.09.34,0,.37-.08s.11-.16-.07-.37l-.27-.31a.74.74,0,0,1-.07-.82.73.73,0,0,1,.62-.36,4.08,4.08,0,0,0,.46,0c.28,0,.32-.12.34-.18s.06-.18-.17-.34l-.34-.23a.71.71,0,0,1-.27-.77.72.72,0,0,1,.5-.51h0l.39-.12c.27-.08.27-.21.27-.27s0-.19-.27-.27m-7,2.79a2.49,2.49,0,0,1-2.49-2.5,2.49,2.49,0,0,1,2.49-2.5,2.5,2.5,0,0,1,2.5,2.5,2.5,2.5,0,0,1-2.5,2.5"/><path class="cls-4" d="M230.23-10.19a9.22,9.22,0,0,0-3.77-6,10.37,10.37,0,0,0-5.9-1.72,10.39,10.39,0,0,0-5.9,1.72,9.22,9.22,0,0,0-3.77,6C210-5.83,212-2.72,213.26-.67c.31.5.59.94.77,1.3A14.43,14.43,0,0,1,215,4.49a3,3,0,0,0,1.28,2.33.37.37,0,0,0,.2.07V7.6a.39.39,0,0,0,.39.37h0l7.46-.48a.39.39,0,0,0,.36-.42V6.89a.38.38,0,0,0,.21-.07,3,3,0,0,0,1.28-2.33A13.66,13.66,0,0,1,227.1.63c.18-.36.45-.8.76-1.3,1.3-2.05,3.27-5.16,2.37-9.52m-8.8,9.09a1,1,0,0,0-.32-.14V-3.79a.37.37,0,0,0,0-.11h.18a.34.34,0,0,0,.34-.34.34.34,0,0,0-.34-.34h-1.44a.34.34,0,0,0-.33.34.34.34,0,0,0,.33.34H220a.36.36,0,0,0,0,.11v2.55a1.3,1.3,0,0,0-.32.14l-2.3-6.29c-.18-.43-.14-.69,0-.77a.22.22,0,0,1,.27,0,5.38,5.38,0,0,0,.87.39,1.21,1.21,0,0,0,0,.18,1.87,1.87,0,0,0,2,1.11h.07a1.83,1.83,0,0,0,2-1.12.85.85,0,0,0,.06-.17,5.57,5.57,0,0,0,.86-.39.24.24,0,0,1,.28,0c.09.08.14.34,0,.78Zm5.66-.06c-.33.53-.62,1-.82,1.39a14.86,14.86,0,0,0-1,4.19v0A2.09,2.09,0,0,1,224.48,6H222c0-.05,0-.09,0-.14v-6a1.15,1.15,0,0,0-.28-.74L224-7.26c.3-.73.07-1,0-1.14a.55.55,0,0,0-.64,0,5.71,5.71,0,0,1-.69.32,1.23,1.23,0,0,0-.34-.76.73.73,0,0,0-1,0,.75.75,0,0,0,0,1.05,1,1,0,0,0,1,.18c-.13.29-.48.88-1.7.86s-1.56-.57-1.7-.87a1,1,0,0,0,1-.18.76.76,0,0,0,0-1,.73.73,0,0,0-1,0,1.23,1.23,0,0,0-.34.76,5.25,5.25,0,0,1-.7-.32.55.55,0,0,0-.64,0c-.11.1-.34.41,0,1.13l2.34,6.4a1.14,1.14,0,0,0-.27.74V6h-2.51a2.05,2.05,0,0,1-.77-1.52.08.08,0,0,0,0,0,14.49,14.49,0,0,0-1-4.19c-.2-.41-.49-.86-.81-1.39C212.74-3.2,211-6,211.8-10c1.33-6.45,7-6.95,8.76-6.95s7.44.5,8.77,7c.82,4-1,6.8-2.24,8.84M222.34-8c-.36.09-.69.12-.82,0a.43.43,0,0,1,0-.61.35.35,0,0,1,.26-.11.48.48,0,0,1,.32.14.85.85,0,0,1,.24.62m-3.56,0a.89.89,0,0,1,.24-.62.4.4,0,0,1,.58,0,.43.43,0,0,1,0,.61c-.13.16-.46.13-.82,0"/><path class="cls-4" d="M224.42,8.05l-7.77.5a.46.46,0,0,0,0,.92h0L224.48,9a.45.45,0,0,0,.42-.49.44.44,0,0,0-.48-.42"/><path class="cls-4" d="M224.42,9.58l-7.77.5a.46.46,0,0,0-.43.49.45.45,0,0,0,.45.43h0l7.77-.5a.46.46,0,0,0,.42-.49.44.44,0,0,0-.48-.43"/><path class="cls-4" d="M224.42,11.11l-7.77.51a.44.44,0,0,0-.43.48.45.45,0,0,0,.45.43h0l7.77-.5a.46.46,0,0,0,.42-.49.45.45,0,0,0-.48-.43"/><path class="cls-4" d="M224.3,12.53h0l-7.46.48s-.33,0-.05.39,2.18,2.21,2.18,2.21a.75.75,0,0,0,.49.23h2.43a.75.75,0,0,0,.5-.23s1.89-2,2.11-2.34a.74.74,0,0,0,.18-.52.4.4,0,0,0-.35-.22"/><path class="cls-7" d="M233.9,72.82H207.77V50a.55.55,0,0,0-1.1,0V73.37a.55.55,0,0,0,.55.55H233.9a.55.55,0,1,0,0-1.1"/><rect class="cls-7" x="211.24" y="63.95" width="3.33" height="7.36"/><rect class="cls-7" x="216.15" y="59.39" width="3.33" height="11.91"/><rect class="cls-7" x="221.05" y="65.35" width="3.33" height="5.96"/><rect class="cls-7" x="225.96" y="54.49" width="3.33" height="16.82"/><path class="cls-4" d="M346.87,73.5h0c-.19-.08-.27-.2-.3-.58V71.1a.75.75,0,0,0-.75-.74h-.09a1.31,1.31,0,0,1-.58-.57c-.19-.38-.47-.4-1.07-.4H331.52c-.6,0-.88,0-1.07.4a1.31,1.31,0,0,1-.58.57h-.09a.75.75,0,0,0-.75.74v1.82c0,.38-.11.5-.3.58h0a.25.25,0,0,0-.25.25v.64a.25.25,0,0,0,.25.25h18.16a.25.25,0,0,0,.25-.25v-.64a.25.25,0,0,0-.25-.25"/><path class="cls-4" d="M340.87,62l-7.29,2.79h0a.88.88,0,0,1-.05.15,1.35,1.35,0,0,0,0,1.37c.71,1.35,2.47.63,2.47.63l4.63-1.74s1.81-.61,1.45-2.09c-.11-.46-.26-.71-.91-1l-.2-.12-.05,0"/><path class="cls-4" d="M330.57,56.21l7-2.68c.08-.49.55-.68.26-1.44S336.48,50.64,333,52s-3.91,2.4-3.58,3.3.8.58,1.18,1"/><path class="cls-4" d="M330.74,61.8a.57.57,0,0,0,.63.21l.8-.34c.08.18.14.33.19.42.33.63-.06.93.05,1.38s.42.47.73.54a.77.77,0,0,1,.25.1l7.23-2.77h0a.77.77,0,0,1,.1-.18c.19-.26.37-.57.2-.88s-.7-.39-.87-1.08-1.32-3.53-1.32-3.53a1.41,1.41,0,0,0,.07-1c-.15-.36-.64-.35-1-.51l-7.17,2.74c-.16.31-.48.61-.36,1a1.41,1.41,0,0,0,.68.68l.26.73-.83.28a.58.58,0,0,0-.34.57c0,.27-1.49.71-2,.9a87.55,87.55,0,0,0-8.53,2.52A50.7,50.7,0,0,0,312,67.35a1.24,1.24,0,1,0-.33,2.13,1.22,1.22,0,0,0,.75-.8,54.59,54.59,0,0,0,8.17-2.23,64.45,64.45,0,0,0,8-3.94c.54-.23,2-.93,2.11-.71"/><path class="cls-7" d="M397.6,37.72l-6.67-3.83-4.34-16.16c-.12-.95-1.28-1.61-2.9-1.61s-2.79.66-2.91,1.61l-4.34,16.16-6.67,3.83a.93.93,0,0,0-.55.76V39h0a.92.92,0,0,0,.54.72L382.37,47A2.9,2.9,0,0,0,385,47l12.6-7.24a.92.92,0,0,0,.54-.72h0v0h0v-.47a.93.93,0,0,0-.55-.76m-13.91-20.5c.66,0,1.2.23,1.2.52s-.54.52-1.2.52-1.21-.23-1.21-.52.54-.52,1.21-.52m-2.09,4.41a5.63,5.63,0,0,0,4.17,0l1,3.56a7.16,7.16,0,0,1-6.09,0Zm-2,7.34a8.84,8.84,0,0,0,8.13,0l1.14,4.23a10.25,10.25,0,0,1-10.41,0Zm10.85,8.72a.11.11,0,0,0,0,0,1.14,1.14,0,0,1-.06.14c-.06.11-.14.27-.26.46s-.13.2-.21.3-.18.22-.28.34l-.17.18-.18.17a3.54,3.54,0,0,1-.42.35,4.34,4.34,0,0,1-.49.35c-.17.12-.36.21-.55.32a5.83,5.83,0,0,1-.62.28c-.21.09-.43.16-.66.24l-.34.1-.35.08a6,6,0,0,1-.72.13c-.24,0-.49.08-.74.09l-.74,0h-.73l-.35,0-.38,0a9,9,0,0,1-1.44-.28l-.67-.23-.62-.28c-.19-.11-.38-.2-.56-.32s-.34-.23-.49-.35a4.88,4.88,0,0,1-.76-.74,2.74,2.74,0,0,1-.27-.35,2.36,2.36,0,0,1-.2-.32,2.22,2.22,0,0,1-.23-.48c0-.06,0-.11-.06-.14a.28.28,0,0,1,0-.06h0c1,1.07,3,2.39,6.65,2.39s5.9-1.42,7-2.49a.77.77,0,0,1,0,.15"/><path class="cls-4" d="M453,2.67c-.48-5.84-3.07-10.25-6.85-12.76q-.31.72-.66,1.44c-.11.25-.23.5-.35.75l-.37.75c-.12.25-.25.5-.38.74s-.26.5-.4.74c.06-.27.12-.54.19-.82s.12-.54.2-.81l.22-.8c.07-.27.15-.54.23-.8.26-.92.55-1.83.85-2.74l-.07,0-.46-.22c-.31-.14-.63-.27-.95-.38a4.75,4.75,0,0,0-.49-.17c-.16-.05-.33-.11-.5-.15l-.35-.1-.21,2.55-.42,4.36L442-3.62c-.08.73-.16,1.46-.25,2.18S441.57,0,441.47.74s-.19,1.45-.28,2.17c0-.73,0-1.46,0-2.19s0-1.46.05-2.19,0-1.46.07-2.19l.08-2.19.2-4.37.22-3.88h-.05l-.52-.09-.53-.07-.53-.05c-.35,0-.71,0-1.07-.07H437c-.35,0-.7,0-1.05.07l-.54.05-.52.07-.52.09h0l.22,3.88.1,2.18.1,2.19.08,2.19c0,.73,0,1.46.07,2.19s0,1.46.05,2.19,0,1.46,0,2.19c-.1-.72-.2-1.45-.29-2.17s-.18-1.45-.26-2.18-.17-1.45-.24-2.18l-.23-2.17L433.7-8l-.21-2.18-.22-2.55-.35.1-.49.15-.49.17a9.9,9.9,0,0,0-.95.38l-.46.23-.07,0c.3.91.59,1.82.85,2.74.16.53.31,1.06.45,1.6s.27,1.08.39,1.63c-.28-.49-.53-1-.78-1.48s-.5-1-.73-1.5-.44-1-.65-1.44c-3.78,2.51-6.37,6.92-6.85,12.76a6.05,6.05,0,0,0-1.9,3.61c0,3.3,7.53,5.8,16.82,5.8s16.82-2.5,16.82-5.8A6.05,6.05,0,0,0,453,2.67m0,1.59a1.34,1.34,0,0,1-.12.25,3.19,3.19,0,0,1-.24.38,4.58,4.58,0,0,1-.39.46,4.56,4.56,0,0,1-.55.5l-.33.27-.38.25a11.33,11.33,0,0,1-1.88,1,16.89,16.89,0,0,1-2.37.78l-.65.17-.67.14c-.46.09-.92.19-1.4.24l-1.45.19L441.1,9c-.25,0-.51,0-.76,0l-.76,0-1.52,0-1.53,0-.76,0L435,9l-1.49-.12-1.45-.19a12.79,12.79,0,0,1-1.4-.25L430,8.3l-.66-.17c-.42-.12-.84-.21-1.23-.36l-.58-.21-.28-.1L427,7.35a11,11,0,0,1-1.88-1l-.38-.25-.33-.27a4,4,0,0,1-.56-.51,4.78,4.78,0,0,1-.39-.45c-.09-.15-.18-.27-.23-.38a1.34,1.34,0,0,1-.12-.25l0-.08a.3.3,0,0,0,.05.08l.15.22a3.65,3.65,0,0,0,.29.32l.2.18a1.5,1.5,0,0,0,.23.2,5.19,5.19,0,0,0,.6.41l.34.21.39.2a9,9,0,0,0,.88.39c.31.14.66.23,1,.35l.26.09.28.07.58.15c.38.11.79.18,1.21.26.21,0,.42.09.64.12l.66.09c.45.06.9.14,1.36.17l1.42.14,1.46.07.74,0h.75l1.5,0,1.5,0h.75l.74,0,1.46-.07,1.41-.14c.47,0,.92-.11,1.37-.17l.66-.09c.22,0,.42-.08.64-.12.41-.08.83-.15,1.21-.26l.57-.15.28-.07.27-.09a9.2,9.2,0,0,0,1-.36A7.84,7.84,0,0,0,450.8,6l.39-.2.35-.21a5,5,0,0,0,.59-.41,1.59,1.59,0,0,0,.24-.2l.2-.18c.11-.12.22-.23.29-.32l.15-.22a.3.3,0,0,0,.05-.08l0,.08"/><path class="cls-4" d="M443.57,48.58h-11a2.3,2.3,0,0,0-2.29,2.29v25a2.29,2.29,0,0,0,2.29,2.29h11a2.29,2.29,0,0,0,2.29-2.29v-25a2.3,2.3,0,0,0-2.29-2.29m-7.72,1.67h4.42a.36.36,0,0,1,0,.72h-4.42a.36.36,0,1,1,0-.72m4,26.11a.34.34,0,0,1-.34.34H436.6a.34.34,0,0,1-.34-.34V74.82a.34.34,0,0,1,.34-.34h2.92a.34.34,0,0,1,.34.34Zm4.52-3.26H431.74V53.73h12.64Z"/><path class="cls-7" d="M491.78,38.86c-.71,1.08-1.27,1.39-1.48,1.33s-.54-.61-.61-1.89l-.17-3.36-1.8-.94.23,4.39c.12,2.5,1.1,3.27,1.89,3.49s2,0,3.4-2.06l1.44-2.21-1.56-.81Z"/><path class="cls-7" d="M480.39,27.09l-.12-.06-4.67-1a1,1,0,0,0-1.13.74.94.94,0,0,0,.74,1.12l4.39.93,16.59,9a4.68,4.68,0,0,1,.91-1.67Z"/><path class="cls-7" d="M505.14,40.56l-.39-.21a4.32,4.32,0,0,1-.91,1.67l.4.21a.92.92,0,0,0,.45.12.93.93,0,0,0,.83-.5,1,1,0,0,0-.38-1.29"/><path class="cls-7" d="M500.48,38.21a.89.89,0,1,0,.88.89.89.89,0,0,0-.88-.89"/><path class="cls-7" d="M500.48,35.22a3.88,3.88,0,1,0,3.88,3.88,3.87,3.87,0,0,0-3.88-3.88m0,5.4A1.53,1.53,0,1,1,502,39.1a1.53,1.53,0,0,1-1.52,1.52"/><path class="cls-7" d="M507.49,23.29H485a.76.76,0,0,0-.77.77v.25a.77.77,0,0,0,.77.78h.31l2.38,5.14,9.83,5.19,9.76-10.33h.19a.78.78,0,0,0,.77-.78v-.25a.77.77,0,0,0-.77-.77"/></g><rect class="cls-7" x="503.86" y="-2.13" width="93.54" height="93.54"/><polygon points="503.86 0.71 503.86 91.42 594.57 91.42 503.86 0.71"/><line class="cls-8" x1="-9.21" y1="155.91" x2="603.78" y2="155.91"/></g></svg>