<svg width="175" height="615" viewBox="0 0 175 615" fill="none" xmlns="http://www.w3.org/2000/svg">
<rect width="175" height="615" fill="white"/>
<rect x="91" y="8" width="84" height="597" fill="#C3E9FB"/>
<rect x="91" y="387" width="42" height="218" fill="url(#paint0_linear)"/>
<rect x="91" y="86" width="42" height="110" fill="url(#paint1_linear)"/>
<rect x="133" y="8" width="42" height="109" fill="url(#paint2_linear)"/>
<rect x="133" y="141" width="42" height="351" fill="url(#paint3_linear)"/>
<path d="M6.40723 17H4.77246V6.16309L1.49414 7.36719V5.89062L6.15234 4.1416H6.40723V17ZM16.5146 17H14.8799V6.16309L11.6016 7.36719V5.89062L16.2598 4.1416H16.5146V17ZM29.3027 11.542C29.3027 13.4463 28.9775 14.8613 28.3271 15.7871C27.6768 16.7129 26.6602 17.1758 25.2773 17.1758C23.9121 17.1758 22.9014 16.7246 22.2451 15.8223C21.5889 14.9141 21.249 13.5605 21.2256 11.7617V9.59082C21.2256 7.70996 21.5508 6.3125 22.2012 5.39844C22.8516 4.48438 23.8711 4.02734 25.2598 4.02734C26.6367 4.02734 27.6504 4.46973 28.3008 5.35449C28.9512 6.2334 29.2852 7.59277 29.3027 9.43262V11.542ZM27.6768 9.31836C27.6768 7.94141 27.4834 6.93945 27.0967 6.3125C26.71 5.67969 26.0977 5.36328 25.2598 5.36328C24.4277 5.36328 23.8213 5.67676 23.4404 6.30371C23.0596 6.93066 22.8633 7.89453 22.8516 9.19531V11.7969C22.8516 13.1797 23.0508 14.2021 23.4492 14.8643C23.8535 15.5205 24.4629 15.8486 25.2773 15.8486C26.0801 15.8486 26.6748 15.5381 27.0615 14.917C27.4541 14.2959 27.6592 13.3174 27.6768 11.9814V9.31836Z" fill="black"/>
<path d="M18.0801 131.375C17.7402 131.779 17.333 132.104 16.8584 132.351C16.3896 132.597 15.874 132.72 15.3115 132.72C14.5732 132.72 13.9287 132.538 13.3779 132.175C12.833 131.812 12.4111 131.302 12.1123 130.646C11.8135 129.983 11.6641 129.254 11.6641 128.457C11.6641 127.602 11.8252 126.831 12.1475 126.146C12.4756 125.46 12.9385 124.936 13.5361 124.572C14.1338 124.209 14.8311 124.027 15.6279 124.027C16.8936 124.027 17.8896 124.502 18.6162 125.451C19.3486 126.395 19.7148 127.684 19.7148 129.318V129.793C19.7148 132.283 19.2227 134.103 18.2383 135.251C17.2539 136.394 15.7686 136.979 13.7822 137.009H13.4658V135.638H13.8086C15.1504 135.614 16.1816 135.266 16.9023 134.592C17.623 133.912 18.0156 132.84 18.0801 131.375ZM15.5752 131.375C16.1201 131.375 16.6211 131.208 17.0781 130.874C17.541 130.54 17.8779 130.127 18.0889 129.635V128.984C18.0889 127.918 17.8574 127.051 17.3945 126.383C16.9316 125.715 16.3457 125.381 15.6367 125.381C14.9219 125.381 14.3477 125.656 13.9141 126.207C13.4805 126.752 13.2637 127.473 13.2637 128.369C13.2637 129.242 13.4717 129.963 13.8877 130.531C14.3096 131.094 14.8721 131.375 15.5752 131.375ZM29.9805 131.542C29.9805 133.446 29.6553 134.861 29.0049 135.787C28.3545 136.713 27.3379 137.176 25.9551 137.176C24.5898 137.176 23.5791 136.725 22.9229 135.822C22.2666 134.914 21.9268 133.561 21.9033 131.762V129.591C21.9033 127.71 22.2285 126.312 22.8789 125.398C23.5293 124.484 24.5488 124.027 25.9375 124.027C27.3145 124.027 28.3281 124.47 28.9785 125.354C29.6289 126.233 29.9629 127.593 29.9805 129.433V131.542ZM28.3545 129.318C28.3545 127.941 28.1611 126.939 27.7744 126.312C27.3877 125.68 26.7754 125.363 25.9375 125.363C25.1055 125.363 24.499 125.677 24.1182 126.304C23.7373 126.931 23.541 127.895 23.5293 129.195V131.797C23.5293 133.18 23.7285 134.202 24.127 134.864C24.5312 135.521 25.1406 135.849 25.9551 135.849C26.7578 135.849 27.3525 135.538 27.7393 134.917C28.1318 134.296 28.3369 133.317 28.3545 131.981V129.318Z" fill="black"/>
<path d="M20.1104 242.117L14.8105 254H13.1055L18.3877 242.539H11.4619V241.203H20.1104V242.117ZM29.9805 248.542C29.9805 250.446 29.6553 251.861 29.0049 252.787C28.3545 253.713 27.3379 254.176 25.9551 254.176C24.5898 254.176 23.5791 253.725 22.9229 252.822C22.2666 251.914 21.9268 250.561 21.9033 248.762V246.591C21.9033 244.71 22.2285 243.312 22.8789 242.398C23.5293 241.484 24.5488 241.027 25.9375 241.027C27.3145 241.027 28.3281 241.47 28.9785 242.354C29.6289 243.233 29.9629 244.593 29.9805 246.433V248.542ZM28.3545 246.318C28.3545 244.941 28.1611 243.939 27.7744 243.312C27.3877 242.68 26.7754 242.363 25.9375 242.363C25.1055 242.363 24.499 242.677 24.1182 243.304C23.7373 243.931 23.541 244.895 23.5293 246.195V248.797C23.5293 250.18 23.7285 251.202 24.127 251.864C24.5312 252.521 25.1406 252.849 25.9551 252.849C26.7578 252.849 27.3525 252.538 27.7393 251.917C28.1318 251.296 28.3369 250.317 28.3545 248.981V246.318Z" fill="black"/>
<path d="M11.5957 366.584L12.2461 360.203H18.8027V361.706H13.626L13.2393 365.195C13.8662 364.826 14.5781 364.642 15.375 364.642C16.541 364.642 17.4668 365.028 18.1523 365.802C18.8379 366.569 19.1807 367.609 19.1807 368.922C19.1807 370.24 18.8232 371.28 18.1084 372.042C17.3994 372.798 16.4062 373.176 15.1289 373.176C13.998 373.176 13.0752 372.862 12.3604 372.235C11.6455 371.608 11.2383 370.741 11.1387 369.634H12.6768C12.7764 370.366 13.0371 370.92 13.459 371.295C13.8809 371.664 14.4375 371.849 15.1289 371.849C15.8848 371.849 16.4766 371.591 16.9043 371.075C17.3379 370.56 17.5547 369.848 17.5547 368.939C17.5547 368.084 17.3203 367.398 16.8516 366.883C16.3887 366.361 15.7705 366.101 14.9971 366.101C14.2881 366.101 13.7314 366.256 13.3271 366.566L12.8965 366.918L11.5957 366.584ZM28.9805 367.542C28.9805 369.446 28.6553 370.861 28.0049 371.787C27.3545 372.713 26.3379 373.176 24.9551 373.176C23.5898 373.176 22.5791 372.725 21.9229 371.822C21.2666 370.914 20.9268 369.561 20.9033 367.762V365.591C20.9033 363.71 21.2285 362.312 21.8789 361.398C22.5293 360.484 23.5488 360.027 24.9375 360.027C26.3145 360.027 27.3281 360.47 27.9785 361.354C28.6289 362.233 28.9629 363.593 28.9805 365.433V367.542ZM27.3545 365.318C27.3545 363.941 27.1611 362.939 26.7744 362.312C26.3877 361.68 25.7754 361.363 24.9375 361.363C24.1055 361.363 23.499 361.677 23.1182 362.304C22.7373 362.931 22.541 363.895 22.5293 365.195V367.797C22.5293 369.18 22.7285 370.202 23.127 370.864C23.5312 371.521 24.1406 371.849 24.9551 371.849C25.7578 371.849 26.3525 371.538 26.7393 370.917C27.1318 370.296 27.3369 369.317 27.3545 367.981V365.318Z" fill="black"/>
<path d="M13.2129 484.811H14.4346C15.2021 484.799 15.8057 484.597 16.2451 484.204C16.6846 483.812 16.9043 483.281 16.9043 482.613C16.9043 481.113 16.1572 480.363 14.6631 480.363C13.96 480.363 13.3975 480.565 12.9756 480.97C12.5596 481.368 12.3516 481.898 12.3516 482.561H10.7256C10.7256 481.547 11.0947 480.706 11.833 480.038C12.5771 479.364 13.5205 479.027 14.6631 479.027C15.8701 479.027 16.8164 479.347 17.502 479.985C18.1875 480.624 18.5303 481.512 18.5303 482.648C18.5303 483.205 18.3486 483.744 17.9854 484.266C17.6279 484.787 17.1387 485.177 16.5176 485.435C17.2207 485.657 17.7627 486.026 18.1436 486.542C18.5303 487.058 18.7236 487.688 18.7236 488.432C18.7236 489.58 18.3486 490.491 17.5986 491.165C16.8486 491.839 15.873 492.176 14.6719 492.176C13.4707 492.176 12.4922 491.851 11.7363 491.2C10.9863 490.55 10.6113 489.691 10.6113 488.625H12.2461C12.2461 489.299 12.4658 489.838 12.9053 490.242C13.3447 490.646 13.9336 490.849 14.6719 490.849C15.457 490.849 16.0576 490.644 16.4736 490.233C16.8896 489.823 17.0977 489.234 17.0977 488.467C17.0977 487.723 16.8691 487.151 16.4121 486.753C15.9551 486.354 15.2959 486.149 14.4346 486.138H13.2129V484.811ZM28.9805 486.542C28.9805 488.446 28.6553 489.861 28.0049 490.787C27.3545 491.713 26.3379 492.176 24.9551 492.176C23.5898 492.176 22.5791 491.725 21.9229 490.822C21.2666 489.914 20.9268 488.561 20.9033 486.762V484.591C20.9033 482.71 21.2285 481.312 21.8789 480.398C22.5293 479.484 23.5488 479.027 24.9375 479.027C26.3145 479.027 27.3281 479.47 27.9785 480.354C28.6289 481.233 28.9629 482.593 28.9805 484.433V486.542ZM27.3545 484.318C27.3545 482.941 27.1611 481.939 26.7744 481.312C26.3877 480.68 25.7754 480.363 24.9375 480.363C24.1055 480.363 23.499 480.677 23.1182 481.304C22.7373 481.931 22.541 482.895 22.5293 484.195V486.797C22.5293 488.18 22.7285 489.202 23.127 489.864C23.5312 490.521 24.1406 490.849 24.9551 490.849C25.7578 490.849 26.3525 490.538 26.7393 489.917C27.1318 489.296 27.3369 488.317 27.3545 486.981V484.318Z" fill="black"/>
<path d="M16.1924 611H14.5576V600.163L11.2793 601.367V599.891L15.9375 598.142H16.1924V611ZM28.9805 605.542C28.9805 607.446 28.6553 608.861 28.0049 609.787C27.3545 610.713 26.3379 611.176 24.9551 611.176C23.5898 611.176 22.5791 610.725 21.9229 609.822C21.2666 608.914 20.9268 607.561 20.9033 605.762V603.591C20.9033 601.71 21.2285 600.312 21.8789 599.398C22.5293 598.484 23.5488 598.027 24.9375 598.027C26.3145 598.027 27.3281 598.47 27.9785 599.354C28.6289 600.233 28.9629 601.593 28.9805 603.433V605.542ZM27.3545 603.318C27.3545 601.941 27.1611 600.939 26.7744 600.312C26.3877 599.68 25.7754 599.363 24.9375 599.363C24.1055 599.363 23.499 599.677 23.1182 600.304C22.7373 600.931 22.541 601.895 22.5293 603.195V605.797C22.5293 607.18 22.7285 608.202 23.127 608.864C23.5312 609.521 24.1406 609.849 24.9551 609.849C25.7578 609.849 26.3525 609.538 26.7393 608.917C27.1318 608.296 27.3369 607.317 27.3545 605.981V603.318Z" fill="black"/>
<line x1="35" y1="7" x2="175" y2="7" stroke="#99DDF9" stroke-width="2"/>
<line x1="35" y1="132" x2="175" y2="132" stroke="#99DDF9" stroke-width="2"/>
<line x1="35" y1="249" x2="175" y2="249" stroke="#99DDF9" stroke-width="2"/>
<line x1="35" y1="367" x2="175" y2="367" stroke="#99DDF9" stroke-width="2"/>
<line x1="35" y1="485" x2="175" y2="485" stroke="#99DDF9" stroke-width="2"/>
<line x1="35" y1="604" x2="175" y2="604" stroke="#99DDF9" stroke-width="2"/>
<path d="M114.434 587.475L120 587.475L120 589.35L105.781 589.35L105.781 584.105C105.781 582.549 106.178 581.332 106.973 580.453C107.767 579.568 108.818 579.125 110.127 579.125C111.507 579.125 112.572 579.558 113.32 580.424C114.062 581.283 114.434 582.517 114.434 584.125L114.434 587.475ZM112.9 587.475L112.9 584.105C112.9 583.103 112.666 582.335 112.197 581.801C111.722 581.267 111.038 581 110.146 581C109.3 581 108.623 581.267 108.115 581.801C107.607 582.335 107.344 583.067 107.324 583.998L107.324 587.475L112.9 587.475ZM111.055 571.908C111.009 572.182 110.986 572.478 110.986 572.797C110.986 573.982 111.491 574.786 112.5 575.209L120 575.209L120 577.016L109.434 577.016L109.434 575.258L110.654 575.229C109.71 574.636 109.238 573.796 109.238 572.709C109.238 572.357 109.284 572.09 109.375 571.908L111.055 571.908ZM120.195 566.049C120.195 567.481 119.727 568.646 118.789 569.545C117.845 570.443 116.585 570.893 115.01 570.893L114.678 570.893C113.63 570.893 112.695 570.694 111.875 570.297C111.048 569.893 110.404 569.333 109.941 568.617C109.473 567.895 109.238 567.113 109.238 566.273C109.238 564.9 109.691 563.832 110.596 563.07C111.501 562.309 112.796 561.928 114.482 561.928L115.234 561.928L115.234 569.086C116.276 569.06 117.119 568.757 117.764 568.178C118.402 567.592 118.721 566.85 118.721 565.951C118.721 565.313 118.59 564.773 118.33 564.33C118.07 563.887 117.725 563.5 117.295 563.168L118.154 562.064C119.515 562.95 120.195 564.278 120.195 566.049ZM110.723 566.273C110.723 567.003 110.99 567.615 111.523 568.109C112.051 568.604 112.793 568.91 113.75 569.027L113.75 563.734L113.613 563.734C112.695 563.786 111.986 564.034 111.484 564.477C110.977 564.919 110.723 565.518 110.723 566.273ZM114.697 556.068L114.697 560.834L113.223 560.834L113.223 556.068L114.697 556.068ZM120 552.338L120 554.145L105 554.145L105 552.338L120 552.338ZM120.195 545.053C120.195 546.485 119.727 547.65 118.789 548.549C117.845 549.447 116.585 549.896 115.01 549.896L114.678 549.896C113.63 549.896 112.695 549.698 111.875 549.301C111.048 548.897 110.404 548.337 109.941 547.621C109.473 546.898 109.238 546.117 109.238 545.277C109.238 543.904 109.691 542.836 110.596 542.074C111.501 541.312 112.796 540.932 114.482 540.932L115.234 540.932L115.234 548.09C116.276 548.064 117.119 547.761 117.764 547.182C118.402 546.596 118.721 545.854 118.721 544.955C118.721 544.317 118.59 543.777 118.33 543.334C118.07 542.891 117.725 542.504 117.295 542.172L118.154 541.068C119.515 541.954 120.195 543.282 120.195 545.053ZM110.723 545.277C110.723 546.007 110.99 546.618 111.523 547.113C112.051 547.608 112.793 547.914 113.75 548.031L113.75 542.738L113.613 542.738C112.695 542.79 111.986 543.038 111.484 543.48C110.977 543.923 110.723 544.522 110.723 545.277ZM117.549 535.482L109.434 532.865L109.434 531.02L120 534.809L120 536.186L109.434 540.014L109.434 538.168L117.549 535.482ZM120.195 525.033C120.195 526.465 119.727 527.631 118.789 528.529C117.845 529.428 116.585 529.877 115.01 529.877L114.678 529.877C113.63 529.877 112.695 529.678 111.875 529.281C111.048 528.878 110.404 528.318 109.941 527.602C109.473 526.879 109.238 526.098 109.238 525.258C109.238 523.884 109.691 522.816 110.596 522.055C111.501 521.293 112.796 520.912 114.482 520.912L115.234 520.912L115.234 528.07C116.276 528.044 117.119 527.742 117.764 527.162C118.402 526.576 118.721 525.834 118.721 524.936C118.721 524.298 118.59 523.757 118.33 523.314C118.07 522.872 117.725 522.484 117.295 522.152L118.154 521.049C119.515 521.934 120.195 523.262 120.195 525.033ZM110.723 525.258C110.723 525.987 110.99 526.599 111.523 527.094C112.051 527.589 112.793 527.895 113.75 528.012L113.75 522.719L113.613 522.719C112.695 522.771 111.986 523.018 111.484 523.461C110.977 523.904 110.723 524.503 110.723 525.258ZM120 516.85L120 518.656L105 518.656L105 516.85L120 516.85ZM120 503.236L120 505.053L107.959 505.053L109.297 508.695L107.656 508.695L105.713 503.52L105.713 503.236L120 503.236Z" fill="black"/>
<path d="M165.467 362.465L165.467 355.727L167 355.727L167 364.35L152.781 364.35L152.781 362.465L165.467 362.465ZM167.195 349.486C167.195 350.919 166.727 352.084 165.789 352.982C164.845 353.881 163.585 354.33 162.01 354.33L161.678 354.33C160.63 354.33 159.695 354.132 158.875 353.734C158.048 353.331 157.404 352.771 156.941 352.055C156.473 351.332 156.238 350.551 156.238 349.711C156.238 348.337 156.691 347.27 157.596 346.508C158.501 345.746 159.796 345.365 161.482 345.365L162.234 345.365L162.234 352.523C163.276 352.497 164.119 352.195 164.764 351.615C165.402 351.029 165.721 350.287 165.721 349.389C165.721 348.751 165.59 348.21 165.33 347.768C165.07 347.325 164.725 346.937 164.295 346.605L165.154 345.502C166.515 346.387 167.195 347.715 167.195 349.486ZM157.723 349.711C157.723 350.44 157.99 351.052 158.523 351.547C159.051 352.042 159.793 352.348 160.75 352.465L160.75 347.172L160.613 347.172C159.695 347.224 158.986 347.471 158.484 347.914C157.977 348.357 157.723 348.956 157.723 349.711ZM164.549 339.916L156.434 337.299L156.434 335.453L167 339.242L167 340.619L156.434 344.447L156.434 342.602L164.549 339.916ZM167.195 329.467C167.195 330.899 166.727 332.064 165.789 332.963C164.845 333.861 163.585 334.311 162.01 334.311L161.678 334.311C160.63 334.311 159.695 334.112 158.875 333.715C158.048 333.311 157.404 332.751 156.941 332.035C156.473 331.312 156.238 330.531 156.238 329.691C156.238 328.318 156.691 327.25 157.596 326.488C158.501 325.727 159.796 325.346 161.482 325.346L162.234 325.346L162.234 332.504C163.276 332.478 164.119 332.175 164.764 331.596C165.402 331.01 165.721 330.268 165.721 329.369C165.721 328.731 165.59 328.191 165.33 327.748C165.07 327.305 164.725 326.918 164.295 326.586L165.154 325.482C166.515 326.368 167.195 327.696 167.195 329.467ZM157.723 329.691C157.723 330.421 157.99 331.033 158.523 331.527C159.051 332.022 159.793 332.328 160.75 332.445L160.75 327.152L160.613 327.152C159.695 327.204 158.986 327.452 158.484 327.895C157.977 328.337 157.723 328.936 157.723 329.691ZM167 321.283L167 323.09L152 323.09L152 321.283L167 321.283ZM167 307.67L167 309.486L154.959 309.486L156.297 313.129L154.656 313.129L152.713 307.953L152.713 307.67L167 307.67Z" fill="black"/>
<path d="M115.467 169.465L115.467 162.727L117 162.727L117 171.35L102.781 171.35L102.781 169.465L115.467 169.465ZM117.195 156.486C117.195 157.919 116.727 159.084 115.789 159.982C114.845 160.881 113.585 161.33 112.01 161.33L111.678 161.33C110.63 161.33 109.695 161.132 108.875 160.734C108.048 160.331 107.404 159.771 106.941 159.055C106.473 158.332 106.238 157.551 106.238 156.711C106.238 155.337 106.691 154.27 107.596 153.508C108.501 152.746 109.796 152.365 111.482 152.365L112.234 152.365L112.234 159.523C113.276 159.497 114.119 159.195 114.764 158.615C115.402 158.029 115.721 157.287 115.721 156.389C115.721 155.751 115.59 155.21 115.33 154.768C115.07 154.325 114.725 153.937 114.295 153.605L115.154 152.502C116.515 153.387 117.195 154.715 117.195 156.486ZM107.723 156.711C107.723 157.44 107.99 158.052 108.523 158.547C109.051 159.042 109.793 159.348 110.75 159.465L110.75 154.172L110.613 154.172C109.695 154.224 108.986 154.471 108.484 154.914C107.977 155.357 107.723 155.956 107.723 156.711ZM114.549 146.916L106.434 144.299L106.434 142.453L117 146.242L117 147.619L106.434 151.447L106.434 149.602L114.549 146.916ZM117.195 136.467C117.195 137.899 116.727 139.064 115.789 139.963C114.845 140.861 113.585 141.311 112.01 141.311L111.678 141.311C110.63 141.311 109.695 141.112 108.875 140.715C108.048 140.311 107.404 139.751 106.941 139.035C106.473 138.312 106.238 137.531 106.238 136.691C106.238 135.318 106.691 134.25 107.596 133.488C108.501 132.727 109.796 132.346 111.482 132.346L112.234 132.346L112.234 139.504C113.276 139.478 114.119 139.175 114.764 138.596C115.402 138.01 115.721 137.268 115.721 136.369C115.721 135.731 115.59 135.191 115.33 134.748C115.07 134.305 114.725 133.918 114.295 133.586L115.154 132.482C116.515 133.368 117.195 134.696 117.195 136.467ZM107.723 136.691C107.723 137.421 107.99 138.033 108.523 138.527C109.051 139.022 109.793 139.328 110.75 139.445L110.75 134.152L110.613 134.152C109.695 134.204 108.986 134.452 108.484 134.895C107.977 135.337 107.723 135.936 107.723 136.691ZM117 128.283L117 130.09L102 130.09L102 128.283L117 128.283ZM117 111.291L117 120.607L115.701 120.607L110.232 115.686C109.406 114.956 108.735 114.455 108.221 114.182C107.7 113.902 107.163 113.762 106.609 113.762C105.867 113.762 105.258 113.986 104.783 114.436C104.308 114.885 104.07 115.484 104.07 116.232C104.07 117.131 104.327 117.831 104.842 118.332C105.35 118.827 106.059 119.074 106.971 119.074L106.971 120.881C105.662 120.881 104.604 120.461 103.797 119.621C102.99 118.775 102.586 117.645 102.586 116.232C102.586 114.911 102.934 113.866 103.631 113.098C104.321 112.329 105.242 111.945 106.395 111.945C107.794 111.945 109.461 112.837 111.395 114.621L115.525 118.43L115.525 111.291L117 111.291Z" fill="black"/>
<path d="M160.467 79.4648L160.467 72.7266L162 72.7266L162 81.3496L147.781 81.3496L147.781 79.4648L160.467 79.4648ZM162.195 66.4863C162.195 67.9186 161.727 69.084 160.789 69.9824C159.845 70.8809 158.585 71.3301 157.01 71.3301L156.678 71.3301C155.63 71.3301 154.695 71.1315 153.875 70.7344C153.048 70.3307 152.404 69.7708 151.941 69.0547C151.473 68.332 151.238 67.5508 151.238 66.7109C151.238 65.3372 151.691 64.2695 152.596 63.5078C153.501 62.7461 154.796 62.3652 156.482 62.3652L157.234 62.3652L157.234 69.5234C158.276 69.4974 159.119 69.1947 159.764 68.6152C160.402 68.0293 160.721 67.2871 160.721 66.3887C160.721 65.7507 160.59 65.2103 160.33 64.7676C160.07 64.3249 159.725 63.9375 159.295 63.6055L160.154 62.502C161.515 63.3874 162.195 64.7155 162.195 66.4863ZM152.723 66.7109C152.723 67.4401 152.99 68.0521 153.523 68.5469C154.051 69.0417 154.793 69.3477 155.75 69.4648L155.75 64.1719L155.613 64.1719C154.695 64.224 153.986 64.4714 153.484 64.9141C152.977 65.3568 152.723 65.9557 152.723 66.7109ZM159.549 56.916L151.434 54.2988L151.434 52.4531L162 56.2422L162 57.6191L151.434 61.4473L151.434 59.6016L159.549 56.916ZM162.195 46.4668C162.195 47.8991 161.727 49.0645 160.789 49.9629C159.845 50.8613 158.585 51.3105 157.01 51.3105L156.678 51.3105C155.63 51.3105 154.695 51.112 153.875 50.7148C153.048 50.3112 152.404 49.7513 151.941 49.0352C151.473 48.3125 151.238 47.5312 151.238 46.6914C151.238 45.3177 151.691 44.25 152.596 43.4883C153.501 42.7266 154.796 42.3457 156.482 42.3457L157.234 42.3457L157.234 49.5039C158.276 49.4779 159.119 49.1751 159.764 48.5957C160.402 48.0098 160.721 47.2676 160.721 46.3691C160.721 45.7311 160.59 45.1908 160.33 44.748C160.07 44.3053 159.725 43.918 159.295 43.5859L160.154 42.4824C161.515 43.3678 162.195 44.696 162.195 46.4668ZM152.723 46.6914C152.723 47.4206 152.99 48.0326 153.523 48.5273C154.051 49.0221 154.793 49.3281 155.75 49.4453L155.75 44.1523L155.613 44.1523C154.695 44.2044 153.986 44.4518 153.484 44.8945C152.977 45.3372 152.723 45.9362 152.723 46.6914ZM162 38.2832L162 40.0898L147 40.0898L147 38.2832L162 38.2832ZM154.012 27.9805L154.012 26.623C153.999 25.7702 153.774 25.0996 153.338 24.6113C152.902 24.123 152.312 23.8789 151.57 23.8789C149.904 23.8789 149.07 24.709 149.07 26.3691C149.07 27.1504 149.295 27.7754 149.744 28.2441C150.187 28.7064 150.776 28.9375 151.512 28.9375L151.512 30.7441C150.385 30.7441 149.451 30.334 148.709 29.5137C147.96 28.6868 147.586 27.6387 147.586 26.3691C147.586 25.028 147.941 23.9766 148.65 23.2148C149.36 22.4531 150.346 22.0723 151.609 22.0723C152.228 22.0723 152.827 22.2741 153.406 22.6777C153.986 23.0749 154.419 23.6185 154.705 24.3086C154.952 23.5273 155.363 22.9251 155.936 22.502C156.508 22.0723 157.208 21.8574 158.035 21.8574C159.311 21.8574 160.324 22.2741 161.072 23.1074C161.821 23.9408 162.195 25.0247 162.195 26.3594C162.195 27.694 161.834 28.7812 161.111 29.6211C160.389 30.4544 159.435 30.8711 158.25 30.8711L158.25 29.0547C158.999 29.0547 159.598 28.8105 160.047 28.3223C160.496 27.834 160.721 27.1797 160.721 26.3594C160.721 25.487 160.493 24.8197 160.037 24.3574C159.581 23.8952 158.927 23.6641 158.074 23.6641C157.247 23.6641 156.613 23.918 156.17 24.4258C155.727 24.9336 155.499 25.666 155.486 26.623L155.486 27.9805L154.012 27.9805Z" fill="black"/>
<defs>
<linearGradient id="paint0_linear" x1="112" y1="387" x2="112" y2="605" gradientUnits="userSpaceOnUse">
<stop stop-color="#B9E6FB" stop-opacity="0"/>
<stop offset="0.307292" stop-color="#6AD3F7"/>
<stop offset="0.802083" stop-color="#54CEF6"/>
<stop offset="1" stop-color="#C0E8FB"/>
</linearGradient>
<linearGradient id="paint1_linear" x1="112" y1="86" x2="112" y2="196" gradientUnits="userSpaceOnUse">
<stop stop-color="#B9E6FB" stop-opacity="0"/>
<stop offset="0.1875" stop-color="#6AD3F7"/>
<stop offset="0.677083" stop-color="#54CEF6"/>
<stop offset="1" stop-color="#C0E8FB"/>
</linearGradient>
<linearGradient id="paint2_linear" x1="154" y1="8" x2="154" y2="117" gradientUnits="userSpaceOnUse">
<stop stop-color="#B9E6FB" stop-opacity="0"/>
<stop offset="0.114583" stop-color="#6AD3F7" stop-opacity="0.79"/>
<stop offset="0.682292" stop-color="#54CEF6"/>
<stop offset="1" stop-color="#C0E8FB"/>
</linearGradient>
<linearGradient id="paint3_linear" x1="154" y1="141" x2="154" y2="492" gradientUnits="userSpaceOnUse">
<stop stop-color="#B9E6FB" stop-opacity="0"/>
<stop offset="0.177083" stop-color="#6AD3F7"/>
<stop offset="0.666667" stop-color="#54CEF6"/>
<stop offset="1" stop-color="#C0E8FB"/>
</linearGradient>
</defs>
</svg>
