<svg id="Layer_1" data-name="Layer 1" xmlns="http://www.w3.org/2000/svg" xmlns:xlink="http://www.w3.org/1999/xlink" width="100.88" height="34.02" viewBox="0 0 100.88 34.02"><defs><style>.cls-1{fill:none;}.cls-2{clip-path:url(#clip-path);}.cls-3{fill:#231f20;}</style><clipPath id="clip-path" transform="translate(-632.63 -367.13)"><rect class="cls-1" x="632.63" y="367.13" width="100.88" height="34.02"/></clipPath></defs><title>acer-logo-black</title><g class="cls-2"><path class="cls-3" d="M702.48,396.17H687.19v-.58H688c2.25,0,2.65-.54,2.65-2.07V382.61c0-1.4-.33-2-2.25-2h-.67V380h13.82l.24,3.68h-.6v0c-.37-2.18-1.07-2.62-2.07-2.62h-6v6.27h5.08c1.06,0,1.48-.5,1.62-1.9v0h.63v5h-.63v0c-.23-1.82-.76-2-1.9-2h-4.8v5.46c0,1.17.49,1.38,1.5,1.38h4.41c2,0,2.58-.72,3.28-2.89v0h.6Zm-18.63,5h24v-34h-24Z" transform="translate(-632.63 -367.13)"/></g><polygon class="cls-3" points="92.87 0 92.87 8.02 100.88 8.02 92.87 0"/><g class="cls-2"><path class="cls-3" d="M679.61,392.17a16.35,16.35,0,0,1-1.84,3.78v0h0a7.19,7.19,0,0,0-2.54.24,17.75,17.75,0,0,1-3.93.45,10.88,10.88,0,0,1-7.79-2.88,7.53,7.53,0,0,1-2.23-5.42c0-5,4.35-8.66,10.33-8.66a14.91,14.91,0,0,1,4.9.78,4.49,4.49,0,0,0,1.14.26c.33,0,.44-.08.48-.13v0h.5l.25,3.83h-.62v0a6.64,6.64,0,0,0-6.48-4c-4.61,0-7.72,3-7.72,7.41a8,8,0,0,0,8,8.08,7.72,7.72,0,0,0,7-3.8v0h.63Zm-21.37,9h24v-34h-24Z" transform="translate(-632.63 -367.13)"/><path class="cls-3" d="M717.83,380.44c3.74,0,5.48,1.31,5.48,4.12a3.91,3.91,0,0,1-1,2.9,5.6,5.6,0,0,1-4.09,1.28h-.39a8.8,8.8,0,0,1-1.25,0c0-.08,0-8.13,0-8.21.44,0,.78,0,1.29-.05" transform="translate(-632.63 -367.13)"/><path class="cls-3" d="M724.63,393.35l-1.89-1.7a21.67,21.67,0,0,0-2.93-2.29l-.4,0-1.54,0c-.56,0-.92,0-1.32,0h-.09v4.32c0,1.43.55,1.89,2.25,1.89h.7v.58h-8.19v-.58h.53c1.75,0,2.25-.47,2.25-2.1V382.61c0-1.57-.48-2-2.11-2h-.67V380h0c.47,0,1.45-.05,2.4-.1l1.23-.06c1.16-.05,1.74-.08,3.58-.08,3.06,0,5.35.66,6.61,1.92a3.7,3.7,0,0,1,1.11,2.71h0c0,1.95-1.43,3.55-3.75,4.2a34.07,34.07,0,0,1,3.2,2.63l2.27,2a8.78,8.78,0,0,0,5.61,2.59V376.35h-9.35v-9.22h-14.7v34h24v-4.72c-5,.21-6.34-.79-8.88-3.08" transform="translate(-632.63 -367.13)"/><path class="cls-3" d="M646.28,385.07l3-3.47V388H643.8l2.48-2.88" transform="translate(-632.63 -367.13)"/><path class="cls-3" d="M654.18,396.17h-8.07l.14-.59h0c2.24,0,3.07-.51,3.07-1.89v-4.61h-6.68l-3.92,4.41a1.8,1.8,0,0,0-.54,1.08.6.6,0,0,0,.07.3c.2.45.89.71,1.85.71h.62l-.14.59h-6.77l.14-.58h0c1.59-.1,2.57-1.09,3.69-2.36l12.16-13.81h1.92v14.7c0,.93.4,1.47,2.47,1.47h.06Zm-21.55,5h24v-34h-24Z" transform="translate(-632.63 -367.13)"/></g></svg>