<svg id="Layer_1" data-name="Layer 1" xmlns="http://www.w3.org/2000/svg" width="178mm" height="50mm" viewBox="0 0 504.57 141.73"><defs><style>.cls-1{fill:#2a5673;}.cls-2{fill:#3f6681;}.cls-3{fill:#94aab9;}.cls-4{fill:#69889d;}.cls-5{fill:#54778f;}.cls-6,.cls-7{fill:none;stroke:#000;stroke-linecap:round;stroke-linejoin:round;}.cls-7{stroke-dasharray:0 2.98;}</style></defs><path class="cls-1" d="M.55,119.07h100.7V98.71C76,110.83,44,119.07.55,119.07Z"/><path class="cls-2" d="M101.25,98.71v20.36H201.94V18.2C172,39.35,148.71,75.9,101.25,98.71Z"/><path class="cls-3" d="M403.32,119.07H504c-43.47,0-75.49-8.24-100.69-20.36Z"/><path class="cls-4" d="M302.63,18.2V119.07H403.32V98.71C355.86,75.9,332.59,39.35,302.63,18.2Z"/><path class="cls-5" d="M252.28,1.63c-20.47,0-36.15,6.56-50.34,16.57V119.07H302.63V18.2C288.44,8.19,272.75,1.63,252.28,1.63Z"/><path d="M436.62,128.12l-2.65,7h-.8l-2.65-7h.76l2.29,6.23,2.31-6.23Z"/><path d="M442.59,132.65h-4.53a2.23,2.23,0,0,0,.3,1.06,1.73,1.73,0,0,0,.71.66,2.06,2.06,0,0,0,1,.23,1.92,1.92,0,0,0,1.14-.33,1.57,1.57,0,0,0,.62-.89h.74a2.31,2.31,0,0,1-.86,1.3,2.59,2.59,0,0,1-1.64.51,2.72,2.72,0,0,1-1.38-.35,2.39,2.39,0,0,1-1-1,3.41,3.41,0,0,1,0-3,2.25,2.25,0,0,1,.95-1,2.75,2.75,0,0,1,1.39-.34,2.62,2.62,0,0,1,1.36.34,2.32,2.32,0,0,1,.9.91,2.64,2.64,0,0,1,.32,1.28C442.61,132.34,442.6,132.52,442.59,132.65Zm-.94-1.61a1.6,1.6,0,0,0-.69-.65,2.11,2.11,0,0,0-1-.22,1.87,1.87,0,0,0-1.33.5,2,2,0,0,0-.61,1.41h3.84A2,2,0,0,0,441.65,131Z"/><path d="M445.29,129.83a2.25,2.25,0,0,1,1.17-.28v.73h-.19a1.72,1.72,0,0,0-1.22.41,1.74,1.74,0,0,0-.46,1.37v3.05h-.7v-5.46h.7v1A1.64,1.64,0,0,1,445.29,129.83Z"/><path d="M452,129.65l-3.24,8H448l1.06-2.6-2.24-5.43h.77l1.86,4.66,1.8-4.66Z"/><path d="M460.89,128.12v7h-.7v-3.27H456.4v3.27h-.7v-7h.7v3.14h3.79v-3.14Z"/><path d="M462.48,128.47a.51.51,0,0,1-.15-.37.5.5,0,0,1,.15-.37.53.53,0,0,1,.72,0,.5.5,0,0,1,.15.37.51.51,0,0,1-.15.37.51.51,0,0,1-.72,0Zm.71,1.18v5.46h-.7v-5.46Z"/><path d="M468.41,129.93a2.1,2.1,0,0,1,.82.91v-1.19h.7v5.6a2.65,2.65,0,0,1-.33,1.33,2.33,2.33,0,0,1-.9.89,2.74,2.74,0,0,1-1.32.32,2.94,2.94,0,0,1-1.75-.5,2.14,2.14,0,0,1-.86-1.36h.69a1.67,1.67,0,0,0,.68.91,2.23,2.23,0,0,0,1.24.34,2,2,0,0,0,.95-.23,1.61,1.61,0,0,0,.66-.66,2.16,2.16,0,0,0,.24-1V133.9a2.22,2.22,0,0,1-.83.92,2.35,2.35,0,0,1-1.33.37,2.66,2.66,0,0,1-1.35-.35,2.53,2.53,0,0,1-.93-1,3.48,3.48,0,0,1,0-3,2.44,2.44,0,0,1,.93-1,2.66,2.66,0,0,1,1.35-.34A2.46,2.46,0,0,1,468.41,129.93Zm.55,1.29a1.9,1.9,0,0,0-.74-.77,2.13,2.13,0,0,0-2.06,0,1.82,1.82,0,0,0-.73.75,2.79,2.79,0,0,0,0,2.35,1.81,1.81,0,0,0,.73.77,2.1,2.1,0,0,0,2.06,0,2,2,0,0,0,.74-.77,2.42,2.42,0,0,0,.27-1.16A2.39,2.39,0,0,0,469,131.22Z"/><path d="M475.24,129.81a1.86,1.86,0,0,1,.78.79,2.76,2.76,0,0,1,.29,1.31v3.2h-.69V132a1.88,1.88,0,0,0-.45-1.36,1.55,1.55,0,0,0-1.21-.47,1.61,1.61,0,0,0-1.26.5,2,2,0,0,0-.47,1.47v3h-.7v-7.4h.7v2.87a1.8,1.8,0,0,1,.76-.76,2.4,2.4,0,0,1,1.14-.27A2.27,2.27,0,0,1,475.24,129.81Z"/><path d="M347.88,128.12v7h-.7v-3.27h-3.79v3.27h-.7v-7h.7v3.14h3.79v-3.14Z"/><path d="M349.47,128.47a.56.56,0,0,1-.15-.37.54.54,0,0,1,.15-.37.53.53,0,0,1,.72,0,.5.5,0,0,1,.15.37.51.51,0,0,1-.15.37.51.51,0,0,1-.72,0Zm.71,1.18v5.46h-.7v-5.46Z"/><path d="M355.4,129.93a2,2,0,0,1,.82.91v-1.19h.7v5.6a2.65,2.65,0,0,1-.32,1.33,2.29,2.29,0,0,1-.91.89,2.67,2.67,0,0,1-1.31.32,2.92,2.92,0,0,1-1.75-.5,2.19,2.19,0,0,1-.87-1.36h.7a1.62,1.62,0,0,0,.68.91,2.23,2.23,0,0,0,1.24.34,2,2,0,0,0,.94-.23,1.61,1.61,0,0,0,.66-.66,2.16,2.16,0,0,0,.24-1V133.9a2.13,2.13,0,0,1-.82.92,2.36,2.36,0,0,1-1.34.37,2.63,2.63,0,0,1-1.34-.35,2.46,2.46,0,0,1-.93-1,3.48,3.48,0,0,1,0-3,2.38,2.38,0,0,1,.93-1,2.62,2.62,0,0,1,1.34-.34A2.44,2.44,0,0,1,355.4,129.93Zm.56,1.29a2,2,0,0,0-.74-.77,2,2,0,0,0-1-.27,2,2,0,0,0-1,.26,1.86,1.86,0,0,0-.72.75,2.79,2.79,0,0,0,0,2.35,1.85,1.85,0,0,0,.72.77,2,2,0,0,0,1,.27,2,2,0,0,0,1-.27,2,2,0,0,0,.74-.77,2.54,2.54,0,0,0,.26-1.16A2.51,2.51,0,0,0,356,131.22Z"/><path d="M362.24,129.81a1.86,1.86,0,0,1,.78.79,2.76,2.76,0,0,1,.28,1.31v3.2h-.69V132a1.87,1.87,0,0,0-.44-1.36,1.57,1.57,0,0,0-1.21-.47,1.65,1.65,0,0,0-1.27.5,2.08,2.08,0,0,0-.47,1.47v3h-.7v-7.4h.7v2.87a1.82,1.82,0,0,1,.77-.76,2.39,2.39,0,0,1,1.13-.27A2.29,2.29,0,0,1,362.24,129.81Z"/><path d="M236.36,133.45h-3.18l-.61,1.66h-.74l2.55-6.9h.79l2.54,6.9H237Zm-.21-.58-1.38-3.78-1.38,3.78Z"/><path d="M240.77,134.43l1.84-4.78h.74l-2.19,5.46h-.79l-2.19-5.46h.75Z"/><path d="M249.22,132.65h-4.53a2.23,2.23,0,0,0,.3,1.06,1.73,1.73,0,0,0,.71.66,2.06,2.06,0,0,0,1,.23,1.92,1.92,0,0,0,1.14-.33,1.57,1.57,0,0,0,.62-.89h.74a2.31,2.31,0,0,1-.86,1.3,2.57,2.57,0,0,1-1.64.51,2.72,2.72,0,0,1-1.38-.35,2.39,2.39,0,0,1-1-1,3.41,3.41,0,0,1,0-3,2.25,2.25,0,0,1,1-1,2.75,2.75,0,0,1,1.39-.34,2.62,2.62,0,0,1,1.36.34,2.32,2.32,0,0,1,.9.91,2.64,2.64,0,0,1,.32,1.28C249.24,132.34,249.23,132.52,249.22,132.65Zm-.94-1.61a1.6,1.6,0,0,0-.69-.65,2.11,2.11,0,0,0-1-.22,1.88,1.88,0,0,0-1.33.5,2,2,0,0,0-.61,1.41h3.84A2,2,0,0,0,248.28,131Z"/><path d="M251.92,129.83a2.25,2.25,0,0,1,1.17-.28v.73h-.19a1.72,1.72,0,0,0-1.22.41,1.74,1.74,0,0,0-.46,1.37v3.05h-.7v-5.46h.7v1A1.69,1.69,0,0,1,251.92,129.83Z"/><path d="M254.15,130.89a2.51,2.51,0,0,1,.93-1,2.66,2.66,0,0,1,1.35-.34,2.42,2.42,0,0,1,1.34.36,2.07,2.07,0,0,1,.82.92v-1.2h.7v5.46h-.7V133.9a2.22,2.22,0,0,1-.83.92,2.34,2.34,0,0,1-1.34.37,2.48,2.48,0,0,1-2.27-1.34,3.48,3.48,0,0,1,0-3Zm4.17.33a1.9,1.9,0,0,0-.74-.77,2.13,2.13,0,0,0-2.06,0,1.82,1.82,0,0,0-.73.75,2.79,2.79,0,0,0,0,2.35,1.81,1.81,0,0,0,.73.77,2.1,2.1,0,0,0,2.06,0,2,2,0,0,0,.74-.77,2.42,2.42,0,0,0,.27-1.16A2.39,2.39,0,0,0,258.32,131.22Z"/><path d="M264.52,129.93a2.1,2.1,0,0,1,.82.91v-1.19h.7v5.6a2.65,2.65,0,0,1-.33,1.33,2.27,2.27,0,0,1-.9.89,2.74,2.74,0,0,1-1.32.32,3,3,0,0,1-1.75-.5,2.14,2.14,0,0,1-.86-1.36h.69a1.72,1.72,0,0,0,.68.91,2.23,2.23,0,0,0,1.24.34,2,2,0,0,0,.95-.23,1.61,1.61,0,0,0,.66-.66,2.16,2.16,0,0,0,.24-1V133.9a2.22,2.22,0,0,1-.83.92,2.33,2.33,0,0,1-1.33.37,2.66,2.66,0,0,1-1.35-.35,2.61,2.61,0,0,1-.93-1,3.48,3.48,0,0,1,0-3,2.51,2.51,0,0,1,.93-1,2.66,2.66,0,0,1,1.35-.34A2.46,2.46,0,0,1,264.52,129.93Zm.55,1.29a1.9,1.9,0,0,0-.74-.77,2.13,2.13,0,0,0-2.06,0,1.82,1.82,0,0,0-.73.75,2.79,2.79,0,0,0,0,2.35,1.81,1.81,0,0,0,.73.77,2.1,2.1,0,0,0,2.06,0,2,2,0,0,0,.74-.77,2.42,2.42,0,0,0,.27-1.16A2.39,2.39,0,0,0,265.07,131.22Z"/><path d="M272.56,132.65H268a2.23,2.23,0,0,0,.3,1.06,1.73,1.73,0,0,0,.71.66,2.06,2.06,0,0,0,1,.23,1.92,1.92,0,0,0,1.14-.33,1.57,1.57,0,0,0,.62-.89h.74a2.31,2.31,0,0,1-.86,1.3,2.57,2.57,0,0,1-1.64.51,2.72,2.72,0,0,1-1.38-.35,2.39,2.39,0,0,1-1-1,3.41,3.41,0,0,1,0-3,2.25,2.25,0,0,1,.95-1,2.75,2.75,0,0,1,1.39-.34,2.62,2.62,0,0,1,1.36.34,2.32,2.32,0,0,1,.9.91,2.64,2.64,0,0,1,.32,1.28C272.58,132.34,272.57,132.52,272.56,132.65Zm-.94-1.61a1.6,1.6,0,0,0-.69-.65,2.11,2.11,0,0,0-1-.22,1.87,1.87,0,0,0-1.33.5,2,2,0,0,0-.61,1.41h3.84A2,2,0,0,0,271.62,131Z"/><path d="M143.7,134.54h2.51v.57H143v-7h.7Z"/><path d="M148.22,134.84a2.41,2.41,0,0,1-1-1,3,3,0,0,1-.36-1.48,3,3,0,0,1,.36-1.49,2.56,2.56,0,0,1,1-1,3,3,0,0,1,2.79,0,2.56,2.56,0,0,1,1,1,3.09,3.09,0,0,1,.35,1.49,3,3,0,0,1-.36,1.48,2.52,2.52,0,0,1-1,1,2.85,2.85,0,0,1-1.4.35A2.77,2.77,0,0,1,148.22,134.84Zm2.38-.51a1.84,1.84,0,0,0,.75-.74,2.38,2.38,0,0,0,.28-1.21,2.42,2.42,0,0,0-.28-1.22,1.82,1.82,0,0,0-.74-.74,2.11,2.11,0,0,0-1-.24,2.14,2.14,0,0,0-1,.24,1.86,1.86,0,0,0-.73.74,2.42,2.42,0,0,0-.28,1.22,2.38,2.38,0,0,0,.28,1.21,1.74,1.74,0,0,0,.73.74,2,2,0,0,0,1,.25A2,2,0,0,0,150.6,134.33Z"/><path d="M160.83,129.65l-1.71,5.46h-.7l-1.51-4.58-1.51,4.58h-.71L153,129.65h.71l1.36,4.75,1.53-4.75h.7l1.51,4.76,1.35-4.76Z"/><path d="M35.54,128.12l-2.65,7h-.8l-2.65-7h.76l2.29,6.23,2.31-6.23Z"/><path d="M41.51,132.65H37a2.23,2.23,0,0,0,.3,1.06,1.8,1.8,0,0,0,.71.66,2.06,2.06,0,0,0,1,.23,2,2,0,0,0,1.15-.33,1.55,1.55,0,0,0,.61-.89h.74a2.3,2.3,0,0,1-.85,1.3,2.62,2.62,0,0,1-1.65.51,2.77,2.77,0,0,1-1.38-.35,2.36,2.36,0,0,1-1-1,3.37,3.37,0,0,1,0-3,2.31,2.31,0,0,1,1-1,2.78,2.78,0,0,1,1.39-.34,2.65,2.65,0,0,1,1.37.34,2.32,2.32,0,0,1,.9.91,2.63,2.63,0,0,1,.31,1.28C41.53,132.34,41.52,132.52,41.51,132.65ZM40.58,131a1.62,1.62,0,0,0-.7-.65,2.05,2.05,0,0,0-1-.22,1.88,1.88,0,0,0-1.33.5,2,2,0,0,0-.61,1.41h3.84A1.89,1.89,0,0,0,40.58,131Z"/><path d="M44.22,129.83a2.19,2.19,0,0,1,1.16-.28v.73h-.19a1.54,1.54,0,0,0-1.68,1.78v3.05h-.7v-5.46h.7v1A1.66,1.66,0,0,1,44.22,129.83Z"/><path d="M50.93,129.65l-3.24,8H47l1.06-2.6-2.24-5.43h.77l1.86,4.66,1.8-4.66Z"/><path d="M55.32,134.54h2.51v.57H54.62v-7h.7Z"/><path d="M59.84,134.84a2.41,2.41,0,0,1-1-1,3,3,0,0,1-.36-1.48,3,3,0,0,1,.36-1.49,2.56,2.56,0,0,1,1-1,2.81,2.81,0,0,1,1.39-.34,2.87,2.87,0,0,1,1.4.34,2.56,2.56,0,0,1,1,1,3.09,3.09,0,0,1,.35,1.49,3,3,0,0,1-.36,1.48,2.52,2.52,0,0,1-1,1,2.88,2.88,0,0,1-1.4.35A2.77,2.77,0,0,1,59.84,134.84Zm2.38-.51a1.84,1.84,0,0,0,.75-.74,2.38,2.38,0,0,0,.28-1.21,2.42,2.42,0,0,0-.28-1.22,1.88,1.88,0,0,0-.74-.74,2.2,2.2,0,0,0-2,0,1.8,1.8,0,0,0-.73.74,2.42,2.42,0,0,0-.28,1.22,2.38,2.38,0,0,0,.28,1.21,1.74,1.74,0,0,0,.73.74,2,2,0,0,0,1,.25A2,2,0,0,0,62.22,134.33Z"/><path d="M72.45,129.65l-1.71,5.46H70l-1.51-4.58L67,135.11h-.71l-1.71-5.46h.71l1.36,4.75,1.53-4.75h.7l1.51,4.76,1.35-4.76Z"/><line class="cls-6" x1="0.55" y1="5.71" x2="0.55" y2="5.71"/><line class="cls-7" x1="0.55" y1="8.7" x2="0.55" y2="141.52"/><line class="cls-6" x1="504.01" y1="5.71" x2="504.01" y2="5.71"/><line class="cls-7" x1="504.01" y1="8.7" x2="504.01" y2="141.52"/><line class="cls-6" x1="403.32" y1="5.71" x2="403.32" y2="5.71"/><line class="cls-7" x1="403.32" y1="8.7" x2="403.32" y2="141.52"/><line class="cls-6" x1="302.63" y1="5.71" x2="302.63" y2="5.71"/><line class="cls-7" x1="302.63" y1="8.7" x2="302.63" y2="141.52"/><line class="cls-6" x1="201.94" y1="5.71" x2="201.94" y2="5.71"/><line class="cls-7" x1="201.94" y1="8.7" x2="201.94" y2="141.52"/><line class="cls-6" x1="101.25" y1="5.71" x2="101.25" y2="5.71"/><line class="cls-7" x1="101.25" y1="8.7" x2="101.25" y2="141.52"/></svg>