<?xml version="1.0" encoding="utf-8"?>
<!-- Generator: Adobe Illustrator 25.0.1, SVG Export Plug-In . SVG Version: 6.00 Build 0)  -->
<svg version="1.1" xmlns="http://www.w3.org/2000/svg" xmlns:xlink="http://www.w3.org/1999/xlink" x="0px" y="0px"
	 viewBox="0 0 464.88 442.63" style="enable-background:new 0 0 464.88 442.63;" xml:space="preserve">
<style type="text/css">
	.st0{fill:none;stroke:#94AAB9;stroke-width:3;stroke-linecap:square;stroke-miterlimit:10;}
	.st1{fill:#94AAB9;}
	.st2{fill:none;stroke:#94AAB9;stroke-width:3;stroke-miterlimit:10;}
	.st3{fill:none;stroke:#94AAB9;stroke-width:3;stroke-miterlimit:10;stroke-dasharray:8,5;}
	.st4{fill:#2A5673;}
	.st5{fill:none;stroke:#2A5673;stroke-width:2;stroke-miterlimit:10;}
	.st6{fill:none;stroke:#000000;stroke-miterlimit:10;}
	.st7{fill:#6950A1;}
	.st8{fill:#A9DBDA;}
	.st9{fill:#ED5930;}
	.st10{fill:#F53864;}
	.st11{fill:#F89933;}
	.st12{fill:#2E9583;}
	.st13{clip-path:url(#SVGID_2_);fill:#2A5673;}
	.st14{clip-path:url(#SVGID_2_);fill:#3F6681;}
	.st15{clip-path:url(#SVGID_2_);fill:#94AAB9;}
	.st16{clip-path:url(#SVGID_2_);fill:#69889D;}
	.st17{clip-path:url(#SVGID_2_);fill:#54778F;}
	.st18{fill:none;stroke:#000000;stroke-linecap:round;stroke-linejoin:round;}
	.st19{fill:none;stroke:#000000;stroke-linecap:round;stroke-linejoin:round;stroke-dasharray:0,2.9847;}
	.st20{fill:#3F6681;}
	.st21{fill:#54778F;}
	.st22{fill:#69889D;}
	.st23{fill:#7F99AB;}
	.st24{fill:#A9BBC7;}
	.st25{fill:#BFCCD5;}
	.st26{fill:none;}
	.st27{fill:#FFFFFF;}
	.st28{font-family:'Poppins-Light';}
	.st29{font-size:14px;}
	.st30{font-family:'Poppins-SemiBold';}
	.st31{fill:none;stroke:#2A5673;stroke-width:3;stroke-miterlimit:10;}
	.st32{display:none;}
</style>
<g id="Layer_1">
	<g>
		<line class="st5" x1="232.44" y1="245.21" x2="232.44" y2="143.15"/>
		<line class="st5" x1="232.44" y1="245.21" x2="135.38" y2="213.67"/>
		<line class="st5" x1="232.44" y1="245.21" x2="172.45" y2="327.77"/>
		<line class="st5" x1="232.44" y1="245.21" x2="329.5" y2="213.67"/>
		<line class="st5" x1="232.44" y1="245.21" x2="292.43" y2="327.77"/>
	</g>
	<path class="st4" d="M229.41,346.37l-92.14-66.95c-1.81-1.31-2.57-3.65-1.88-5.77l35.2-108.32c0.69-2.13,2.67-3.57,4.91-3.57h113.9
		c2.24,0,4.22,1.44,4.91,3.57l35.2,108.32c0.69,2.13-0.07,4.46-1.88,5.77l-92.14,66.95C233.67,347.69,231.22,347.69,229.41,346.37z"
		/>
	<path class="st12" d="M235.48,0.99l69.83,50.73c1.81,1.31,2.57,3.65,1.88,5.77l-26.67,82.09c-0.69,2.13-2.67,3.57-4.91,3.57h-86.32
		c-2.24,0-4.22-1.44-4.91-3.57L157.7,57.49c-0.69-2.13,0.07-4.46,1.88-5.77l69.83-50.73C231.22-0.33,233.67-0.33,235.48,0.99z"/>
	<path class="st10" d="M332.78,300.47l69.83,50.73c1.81,1.31,2.57,3.65,1.88,5.77l-26.67,82.09c-0.69,2.13-2.67,3.57-4.91,3.57
		h-86.32c-2.24,0-4.22-1.44-4.91-3.57l-26.67-82.09c-0.69-2.13,0.07-4.46,1.88-5.77l69.83-50.73
		C328.52,299.15,330.97,299.15,332.78,300.47z"/>
	<path class="st9" d="M138.17,300.47L208,351.2c1.81,1.31,2.57,3.65,1.88,5.77l-26.67,82.09c-0.69,2.13-2.67,3.57-4.91,3.57H91.98
		c-2.24,0-4.22-1.44-4.91-3.57l-26.67-82.09c-0.69-2.13,0.07-4.46,1.88-5.77l69.83-50.73C133.91,299.15,136.36,299.15,138.17,300.47
		z"/>
	<path class="st7" d="M78.03,115.38l69.83,50.73c1.81,1.31,2.57,3.65,1.88,5.77l-26.67,82.09c-0.69,2.13-2.67,3.57-4.91,3.57H31.84
		c-2.24,0-4.22-1.44-4.91-3.57L0.25,171.89c-0.69-2.13,0.07-4.46,1.88-5.77l69.83-50.73C73.77,114.06,76.22,114.06,78.03,115.38z"/>
	<path class="st11" d="M386.85,115.38l-69.83,50.73c-1.81,1.31-2.57,3.65-1.88,5.77l26.67,82.09c0.69,2.13,2.67,3.57,4.91,3.57
		h86.32c2.24,0,4.22-1.44,4.91-3.57l26.67-82.09c0.69-2.13-0.07-4.46-1.88-5.77l-69.83-50.73
		C391.11,114.06,388.66,114.06,386.85,115.38z"/>
	<rect x="15.76" y="174.39" class="st26" width="118.47" height="32.08"/>
	<text transform="matrix(1 0 0 1 52.8182 186.2935)"><tspan x="0" y="0" class="st27 st28 st29">Threat </tspan><tspan x="-15.05" y="16.8" class="st27 st28 st29">Perception</tspan></text>
	<rect x="84.54" y="372.94" class="st26" width="99.37" height="24.54"/>
	<text transform="matrix(1 0 0 1 94.3773 384.8403)" class="st27 st28 st29">Adjustment</text>
	<rect x="200.11" y="60" class="st26" width="64.66" height="32.93"/>
	<text transform="matrix(1 0 0 1 203.1531 71.9018)"><tspan x="0" y="0" class="st27 st28 st29">Decision </tspan><tspan x="4.55" y="16.8" class="st27 st28 st29">Making</tspan></text>
	<rect x="183.91" y="227.28" class="st26" width="97.06" height="32.18"/>
	<text transform="matrix(1 0 0 1 214.5281 239.189)"><tspan x="0" y="0" class="st27 st30 st29">Total </tspan><tspan x="-18.02" y="16.8" class="st27 st30 st29">Resilience</tspan></text>
	<rect x="281.53" y="372.94" class="st26" width="96.45" height="24.54"/>
	<text transform="matrix(1 0 0 1 304.3738 384.8403)" class="st27 st28 st29">Coping</text>
	<rect x="330.43" y="185.13" class="st26" width="118.92" height="14.74"/>
	<text transform="matrix(1 0 0 1 358.1083 197.0259)" class="st27 st28 st29">Recovery</text>
</g>
<g id="Layer_2" class="st32">
</g>
</svg>
