<svg id="Layer_1" data-name="Layer 1" xmlns="http://www.w3.org/2000/svg" width="464.87" height="442.63" viewBox="0 0 464.87 442.63"><defs><style>.cls-1,.cls-8{fill:none;}.cls-1{stroke:#2a5673;stroke-miterlimit:10;stroke-width:2px;}.cls-2{fill:#2a5673;}.cls-3{fill:#2e9583;}.cls-4{fill:#f53864;}.cls-5{fill:#ed5930;}.cls-6{fill:#6950a1;}.cls-7{fill:#f89933;}.cls-9{isolation:isolate;}.cls-10{fill:#fff;}</style></defs><title>Adult Resilience_artwork_Figure</title><line class="cls-1" x1="232.44" y1="245.21" x2="232.44" y2="143.15"/><line class="cls-1" x1="232.44" y1="245.21" x2="135.38" y2="213.67"/><line class="cls-1" x1="232.44" y1="245.21" x2="172.45" y2="327.77"/><line class="cls-1" x1="232.44" y1="245.21" x2="329.5" y2="213.67"/><line class="cls-1" x1="232.44" y1="245.21" x2="292.43" y2="327.77"/><path class="cls-2" d="M229.41,346.37l-92.14-66.95a5.16,5.16,0,0,1-1.88-5.77l35.2-108.32a5.16,5.16,0,0,1,4.91-3.57H289.4a5.16,5.16,0,0,1,4.91,3.57l35.2,108.32a5.16,5.16,0,0,1-1.88,5.77l-92.14,66.95A5.16,5.16,0,0,1,229.41,346.37Z" transform="translate(0 0)"/><path class="cls-3" d="M235.48,1l69.83,50.73a5.16,5.16,0,0,1,1.88,5.77l-26.67,82.09a5.16,5.16,0,0,1-4.91,3.57H189.29a5.16,5.16,0,0,1-4.91-3.57L157.7,57.49a5.16,5.16,0,0,1,1.88-5.77L229.41,1A5.15,5.15,0,0,1,235.48,1Z" transform="translate(0 0)"/><path class="cls-4" d="M332.78,300.47l69.83,50.73a5.16,5.16,0,0,1,1.88,5.77l-26.67,82.09a5.16,5.16,0,0,1-4.91,3.57H286.59a5.16,5.16,0,0,1-4.91-3.57L255,357a5.16,5.16,0,0,1,1.88-5.77l69.83-50.73A5.13,5.13,0,0,1,332.78,300.47Z" transform="translate(0 0)"/><path class="cls-5" d="M138.17,300.47,208,351.2a5.16,5.16,0,0,1,1.88,5.77l-26.67,82.09a5.16,5.16,0,0,1-4.91,3.57H92a5.16,5.16,0,0,1-4.91-3.57L60.4,357a5.16,5.16,0,0,1,1.88-5.77l69.83-50.73A5.13,5.13,0,0,1,138.17,300.47Z" transform="translate(0 0)"/><path class="cls-6" d="M78,115.38l69.83,50.73a5.16,5.16,0,0,1,1.88,5.77L123.07,254a5.16,5.16,0,0,1-4.91,3.57H31.84A5.16,5.16,0,0,1,26.93,254L.25,171.89a5.16,5.16,0,0,1,1.88-5.77L72,115.39A5.13,5.13,0,0,1,78,115.38Z" transform="translate(0 0)"/><path class="cls-7" d="M386.85,115.38,317,166.11a5.16,5.16,0,0,0-1.88,5.77L341.81,254a5.16,5.16,0,0,0,4.91,3.57H433A5.16,5.16,0,0,0,438,254l26.67-82.09a5.16,5.16,0,0,0-1.88-5.77l-69.83-50.73A5.13,5.13,0,0,0,386.85,115.38Z" transform="translate(0 0)"/><rect class="cls-8" x="15.76" y="174.39" width="118.47" height="32.08"/><g class="cls-9"><g class="cls-9"><path class="cls-10" d="M59.66,176.51v.81H57v9H56v-9H53.24v-.81Z" transform="translate(0 0)"/><path class="cls-10" d="M66.42,178.87A2.62,2.62,0,0,1,67.51,180a3.79,3.79,0,0,1,.4,1.82v4.48h-1v-4.36a2.66,2.66,0,0,0-.62-1.91,2.21,2.21,0,0,0-1.7-.66,2.3,2.3,0,0,0-1.76.7,2.91,2.91,0,0,0-.66,2.06v4.17h-1V175.93h1v4a2.49,2.49,0,0,1,1.07-1.06,3.54,3.54,0,0,1,3.15,0Z" transform="translate(0 0)"/><path class="cls-10" d="M72.05,178.9a3.15,3.15,0,0,1,1.63-.39v1h-.27A2.14,2.14,0,0,0,71.06,182v4.27h-1v-7.64h1V180A2.33,2.33,0,0,1,72.05,178.9Z" transform="translate(0 0)"/><path class="cls-10" d="M82,182.85H75.69a3.1,3.1,0,0,0,.42,1.48,2.55,2.55,0,0,0,1,.93,2.91,2.91,0,0,0,1.34.32,2.71,2.71,0,0,0,1.61-.46,2.21,2.21,0,0,0,.86-1.25h1a3.19,3.19,0,0,1-1.19,1.83,3.7,3.7,0,0,1-2.31.71,3.87,3.87,0,0,1-1.93-.49,3.46,3.46,0,0,1-1.34-1.37,4.75,4.75,0,0,1,0-4.16A3.28,3.28,0,0,1,76.51,179a4,4,0,0,1,1.94-.47,3.78,3.78,0,0,1,1.91.47,3.29,3.29,0,0,1,1.26,1.28,3.63,3.63,0,0,1,.44,1.79C82.06,182.42,82.05,182.67,82,182.85Zm-1.31-2.25a2.21,2.21,0,0,0-1-.91,2.87,2.87,0,0,0-1.34-.31,2.64,2.64,0,0,0-1.86.7,2.81,2.81,0,0,0-.86,2h5.38A2.67,2.67,0,0,0,80.73,180.6Z" transform="translate(0 0)"/><path class="cls-10" d="M83.88,180.39a3.31,3.31,0,0,1,1.3-1.37,3.68,3.68,0,0,1,1.88-.48,3.45,3.45,0,0,1,1.88.5,3,3,0,0,1,1.15,1.29v-1.68h1v7.64h-1V184.6a3.11,3.11,0,0,1-1.16,1.29,3.4,3.4,0,0,1-1.88.52,3.67,3.67,0,0,1-1.87-.49,3.36,3.36,0,0,1-1.3-1.39,4.33,4.33,0,0,1-.47-2.07A4.27,4.27,0,0,1,83.88,180.39Zm5.83.46a2.68,2.68,0,0,0-1-1.08,3,3,0,0,0-2.89,0,2.58,2.58,0,0,0-1,1.05,3.53,3.53,0,0,0-.37,1.65,3.57,3.57,0,0,0,.37,1.64,2.66,2.66,0,0,0,1,1.08,2.82,2.82,0,0,0,1.45.37,2.76,2.76,0,0,0,2.47-1.45,3.41,3.41,0,0,0,.38-1.63A3.34,3.34,0,0,0,89.71,180.85Z" transform="translate(0 0)"/><path class="cls-10" d="M94.58,179.48v4.74a1.36,1.36,0,0,0,.27,1,1.33,1.33,0,0,0,.93.26h.9v.84H95.63a2.17,2.17,0,0,1-1.54-.48,2.11,2.11,0,0,1-.5-1.59v-4.74H92.52v-.83h1.07v-1.92h1v1.92h2.1v.83Z" transform="translate(0 0)"/></g><g class="cls-9"><path class="cls-10" d="M44.32,198.15a3.49,3.49,0,0,1-2.48.77h-2v4.17h-1v-9.78h3a3.48,3.48,0,0,1,2.47.77,2.9,2.9,0,0,1,0,4.07Zm-.18-2a1.89,1.89,0,0,0-.55-1.48,2.51,2.51,0,0,0-1.75-.51h-2v4h2C43.37,198.08,44.14,197.43,44.14,196.12Z" transform="translate(0 0)"/><path class="cls-10" d="M53.67,199.65H47.33a3.1,3.1,0,0,0,.42,1.48,2.46,2.46,0,0,0,1,.93,2.92,2.92,0,0,0,1.35.32,2.68,2.68,0,0,0,1.6-.46,2.21,2.21,0,0,0,.86-1.25h1a3.26,3.26,0,0,1-1.2,1.83,3.67,3.67,0,0,1-2.3.71,3.87,3.87,0,0,1-1.93-.49,3.4,3.4,0,0,1-1.34-1.37,4.79,4.79,0,0,1,0-4.16,3.34,3.34,0,0,1,1.33-1.38,4,4,0,0,1,2-.47,3.81,3.81,0,0,1,1.91.47,3.44,3.44,0,0,1,1.26,1.28,3.74,3.74,0,0,1,.44,1.79A7.37,7.37,0,0,1,53.67,199.65Zm-1.31-2.25a2.24,2.24,0,0,0-1-.91,2.9,2.9,0,0,0-1.34-.31,2.68,2.68,0,0,0-1.87.7,2.8,2.8,0,0,0-.85,2h5.38A2.67,2.67,0,0,0,52.36,197.4Z" transform="translate(0 0)"/><path class="cls-10" d="M57.46,195.7a3.17,3.17,0,0,1,1.63-.39v1h-.27a2.42,2.42,0,0,0-1.7.58,2.45,2.45,0,0,0-.65,1.91v4.27h-1v-7.64h1v1.36A2.43,2.43,0,0,1,57.46,195.7Z" transform="translate(0 0)"/><path class="cls-10" d="M60.59,197.19a3.39,3.39,0,0,1,1.31-1.37,3.8,3.8,0,0,1,1.92-.48,3.71,3.71,0,0,1,2.33.7,3.18,3.18,0,0,1,1.19,1.9h-1a2.15,2.15,0,0,0-.85-1.29,3,3,0,0,0-3-.12,2.41,2.41,0,0,0-1,1,3.79,3.79,0,0,0-.35,1.7,3.86,3.86,0,0,0,.35,1.71,2.38,2.38,0,0,0,1,1.05,2.77,2.77,0,0,0,1.38.35,2.72,2.72,0,0,0,1.62-.47,2.17,2.17,0,0,0,.85-1.31h1a3.21,3.21,0,0,1-1.19,1.89,3.68,3.68,0,0,1-2.33.72,3.81,3.81,0,0,1-1.92-.49,3.39,3.39,0,0,1-1.31-1.37,4.29,4.29,0,0,1-.48-2.08A4.34,4.34,0,0,1,60.59,197.19Z" transform="translate(0 0)"/><path class="cls-10" d="M76,199.65H69.69a3.1,3.1,0,0,0,.42,1.48,2.46,2.46,0,0,0,1,.93,2.92,2.92,0,0,0,1.35.32,2.7,2.7,0,0,0,1.6-.46,2.21,2.21,0,0,0,.86-1.25h1a3.26,3.26,0,0,1-1.2,1.83,3.67,3.67,0,0,1-2.3.71,3.91,3.91,0,0,1-1.94-.49,3.38,3.38,0,0,1-1.33-1.37,4.18,4.18,0,0,1-.49-2.08,4.32,4.32,0,0,1,.48-2.08,3.34,3.34,0,0,1,1.33-1.38,4,4,0,0,1,2-.47,3.83,3.83,0,0,1,1.91.47,3.44,3.44,0,0,1,1.26,1.28,3.74,3.74,0,0,1,.44,1.79A7.37,7.37,0,0,1,76,199.65Zm-1.31-2.25a2.24,2.24,0,0,0-1-.91,2.91,2.91,0,0,0-1.35-.31,2.68,2.68,0,0,0-1.86.7,2.76,2.76,0,0,0-.85,2h5.37A2.67,2.67,0,0,0,74.72,197.4Z" transform="translate(0 0)"/><path class="cls-10" d="M80,195.85a3.41,3.41,0,0,1,1.88-.51,3.67,3.67,0,0,1,1.87.48,3.31,3.31,0,0,1,1.3,1.37,4.79,4.79,0,0,1,0,4.14,3.36,3.36,0,0,1-1.3,1.39,3.67,3.67,0,0,1-1.87.49,3.3,3.3,0,0,1-1.87-.52,3,3,0,0,1-1.16-1.28v5.3h-1V195.45h1v1.68A3.06,3.06,0,0,1,80,195.85Zm4.16,1.76a2.58,2.58,0,0,0-1-1.05,3,3,0,0,0-2.89,0,2.75,2.75,0,0,0-1,1.08,3.37,3.37,0,0,0-.37,1.62,3.41,3.41,0,0,0,.37,1.63,2.79,2.79,0,0,0,1,1.07,2.75,2.75,0,0,0,1.44.38,2.82,2.82,0,0,0,1.45-.37,2.66,2.66,0,0,0,1-1.08,3.84,3.84,0,0,0,0-3.29Z" transform="translate(0 0)"/><path class="cls-10" d="M88.57,196.28V201a1.36,1.36,0,0,0,.27,1,1.31,1.31,0,0,0,.94.26h.89v.84h-1a2.17,2.17,0,0,1-1.54-.48,2.15,2.15,0,0,1-.5-1.59v-4.74H86.52v-.83h1.06v-1.92h1v1.92h2.1v.83Z" transform="translate(0 0)"/><path class="cls-10" d="M92.27,193.8a.7.7,0,0,1-.21-.52.66.66,0,0,1,.21-.51.68.68,0,0,1,.5-.2.69.69,0,0,1,.51.2.66.66,0,0,1,.21.51.72.72,0,0,1-.72.73A.69.69,0,0,1,92.27,193.8Zm1,1.65v7.64h-1v-7.64Z" transform="translate(0 0)"/><path class="cls-10" d="M96.9,202.72a3.45,3.45,0,0,1-1.36-1.37,4.18,4.18,0,0,1-.5-2.08,4.24,4.24,0,0,1,.5-2.08,3.56,3.56,0,0,1,1.38-1.37,3.93,3.93,0,0,1,1.94-.48,4,4,0,0,1,2,.48,3.47,3.47,0,0,1,1.37,1.37,4.24,4.24,0,0,1,.5,2.08,4.07,4.07,0,0,1-.51,2.07,3.42,3.42,0,0,1-1.39,1.38,4,4,0,0,1-2,.49A3.9,3.9,0,0,1,96.9,202.72Zm3.34-.71a2.73,2.73,0,0,0,1-1,3.86,3.86,0,0,0,0-3.4,2.57,2.57,0,0,0-1-1,3,3,0,0,0-2.8,0,2.49,2.49,0,0,0-1,1,4,4,0,0,0,0,3.4,2.62,2.62,0,0,0,1,1,2.89,2.89,0,0,0,1.39.34A2.94,2.94,0,0,0,100.24,202Z" transform="translate(0 0)"/><path class="cls-10" d="M110.3,196.16a3.26,3.26,0,0,1,.87,2.45v4.48h-1v-4.36a2.66,2.66,0,0,0-.62-1.91,2.23,2.23,0,0,0-1.7-.66,2.34,2.34,0,0,0-1.77.7,3,3,0,0,0-.65,2.06v4.17h-1v-7.64h1v1.3a2.52,2.52,0,0,1,1.05-1.07,3.14,3.14,0,0,1,1.55-.37A3,3,0,0,1,110.3,196.16Z" transform="translate(0 0)"/></g></g><rect class="cls-8" x="84.54" y="372.94" width="99.37" height="24.54"/><g class="cls-9"><path class="cls-10" d="M101.17,382.52H96.72l-.86,2.32h-1l3.57-9.66h1.1l3.56,9.66h-1Zm-.3-.82-1.93-5.29L97,381.7Z" transform="translate(0 0)"/><path class="cls-10" d="M104.65,378.94a3.46,3.46,0,0,1,1.31-1.37,3.75,3.75,0,0,1,1.89-.49,3.54,3.54,0,0,1,1.82.49,3.11,3.11,0,0,1,1.19,1.28v-4.37h1v10.36h-1v-1.71a3,3,0,0,1-1.15,1.31,3.41,3.41,0,0,1-1.88.51,3.59,3.59,0,0,1-1.88-.49,3.39,3.39,0,0,1-1.3-1.38,4.79,4.79,0,0,1,0-4.14Zm5.83.45a2.76,2.76,0,0,0-2.47-1.45,2.91,2.91,0,0,0-1.45.36,2.61,2.61,0,0,0-1,1.06,3.39,3.39,0,0,0-.37,1.64,3.46,3.46,0,0,0,.37,1.65,2.66,2.66,0,0,0,1,1.08,2.92,2.92,0,0,0,1.45.37,2.84,2.84,0,0,0,1.44-.38,2.68,2.68,0,0,0,1-1.08,3.66,3.66,0,0,0,0-3.25Z" transform="translate(0 0)"/><path class="cls-10" d="M115.11,386.65a1.79,1.79,0,0,1-.46,1.36,2,2,0,0,1-1.39.44h-.68v-.84h.53a1.07,1.07,0,0,0,.78-.23,1,1,0,0,0,.24-.78v-9.4h1Zm-1-11.11a.74.74,0,0,1,0-1,.73.73,0,0,1,.51-.2.68.68,0,0,1,.49.2.69.69,0,0,1,.2.52.69.69,0,0,1-.2.51.65.65,0,0,1-.49.21A.69.69,0,0,1,114.13,375.54Z" transform="translate(0 0)"/><path class="cls-10" d="M124,377.2v7.64h-1V383.5a2.36,2.36,0,0,1-1,1.09,3.28,3.28,0,0,1-1.57.38,3.09,3.09,0,0,1-2.24-.85,3.28,3.28,0,0,1-.87-2.46V377.2h1v4.35a2.62,2.62,0,0,0,.62,1.9,2.23,2.23,0,0,0,1.7.66,2.27,2.27,0,0,0,1.76-.7,2.88,2.88,0,0,0,.66-2.06V377.2Z" transform="translate(0 0)"/><path class="cls-10" d="M126.7,384.34a2.18,2.18,0,0,1-.93-1.66h1a1.48,1.48,0,0,0,.61,1.05,2.42,2.42,0,0,0,1.45.4,1.9,1.9,0,0,0,1.25-.38,1.16,1.16,0,0,0,.46-.94.84.84,0,0,0-.25-.64,1.79,1.79,0,0,0-.64-.4,9,9,0,0,0-1-.32,10.9,10.9,0,0,1-1.39-.45,2.45,2.45,0,0,1-.9-.66,1.93,1.93,0,0,1,0-2.22,2.31,2.31,0,0,1,1-.76,3.43,3.43,0,0,1,1.4-.28,3,3,0,0,1,2,.63,2.24,2.24,0,0,1,.82,1.71h-1a1.48,1.48,0,0,0-.53-1.08,1.94,1.94,0,0,0-1.32-.42,2,2,0,0,0-1.21.35,1.09,1.09,0,0,0-.46.87,1,1,0,0,0,.27.74,2,2,0,0,0,.68.45c.27.1.64.22,1.1.35a10.38,10.38,0,0,1,1.31.44,2.22,2.22,0,0,1,.84.61,1.67,1.67,0,0,1,.37,1.08,1.91,1.91,0,0,1-.34,1.1,2.23,2.23,0,0,1-.94.76,3.18,3.18,0,0,1-1.38.28A3.51,3.51,0,0,1,126.7,384.34Z" transform="translate(0 0)"/><path class="cls-10" d="M134.63,378v4.75a1.38,1.38,0,0,0,.26,1,1.3,1.3,0,0,0,.94.27h.9v.84h-1a2.15,2.15,0,0,1-1.54-.48,2.12,2.12,0,0,1-.51-1.59V378h-1.06v-.82h1.06v-1.92h1v1.92h2.1V378Z" transform="translate(0 0)"/><path class="cls-10" d="M149.63,377.9a3.37,3.37,0,0,1,.84,2.46v4.48h-1v-4.37a2.72,2.72,0,0,0-.6-1.9,2.11,2.11,0,0,0-1.64-.66,2.22,2.22,0,0,0-1.72.71,3,3,0,0,0-.65,2.08v4.14h-1v-4.37a2.68,2.68,0,0,0-.61-1.9,2.12,2.12,0,0,0-1.65-.66,2.22,2.22,0,0,0-1.72.71,3,3,0,0,0-.64,2.08v4.14h-1V377.2h1v1.31a2.45,2.45,0,0,1,1-1.08,3,3,0,0,1,1.5-.37,3.15,3.15,0,0,1,1.74.47,2.75,2.75,0,0,1,1.09,1.4,2.57,2.57,0,0,1,1.06-1.39,3,3,0,0,1,1.7-.48A3,3,0,0,1,149.63,377.9Z" transform="translate(0 0)"/><path class="cls-10" d="M159.53,381.4h-6.34a3.13,3.13,0,0,0,.42,1.48,2.46,2.46,0,0,0,1,.93,3,3,0,0,0,1.35.32,2.68,2.68,0,0,0,1.6-.47,2.11,2.11,0,0,0,.86-1.24h1a3.29,3.29,0,0,1-1.2,1.83,3.66,3.66,0,0,1-2.3.7,3.86,3.86,0,0,1-1.93-.48,3.4,3.4,0,0,1-1.34-1.37,4.81,4.81,0,0,1,0-4.17,3.32,3.32,0,0,1,1.33-1.37,3.91,3.91,0,0,1,1.95-.48,3.71,3.71,0,0,1,1.91.48,3.23,3.23,0,0,1,1.26,1.28,3.71,3.71,0,0,1,.44,1.79A7.51,7.51,0,0,1,159.53,381.4Zm-1.31-2.26a2.3,2.3,0,0,0-1-.91,3,3,0,0,0-1.34-.31,2.73,2.73,0,0,0-1.87.7,2.84,2.84,0,0,0-.85,2h5.38A2.7,2.7,0,0,0,158.22,379.14Z" transform="translate(0 0)"/><path class="cls-10" d="M167.18,377.9a3.33,3.33,0,0,1,.86,2.46v4.48h-1v-4.37a2.68,2.68,0,0,0-.62-1.9,2.25,2.25,0,0,0-1.71-.66,2.3,2.3,0,0,0-1.76.7,2.9,2.9,0,0,0-.66,2.06v4.17h-1V377.2h1v1.3a2.47,2.47,0,0,1,1-1.07,3.21,3.21,0,0,1,1.56-.37A3.1,3.1,0,0,1,167.18,377.9Z" transform="translate(0 0)"/><path class="cls-10" d="M171.49,378v4.75a1.38,1.38,0,0,0,.26,1,1.3,1.3,0,0,0,.94.27h.9v.84h-1.05a2.15,2.15,0,0,1-1.54-.48,2.12,2.12,0,0,1-.51-1.59V378h-1.06v-.82h1.06v-1.92h1v1.92h2.1V378Z" transform="translate(0 0)"/></g><rect class="cls-8" x="200.11" y="60" width="64.66" height="32.93"/><g class="cls-9"><g class="cls-9"><path class="cls-10" d="M210,62.7a4.23,4.23,0,0,1,1.78,1.7,5.33,5.33,0,0,1,.61,2.63,5.25,5.25,0,0,1-.61,2.61A4.19,4.19,0,0,1,210,71.32a6.18,6.18,0,0,1-2.79.58h-2.9V62.12h2.9A6.18,6.18,0,0,1,210,62.7Zm.33,7.32a4.05,4.05,0,0,0,1.07-3,4.14,4.14,0,0,0-1.07-3,4.22,4.22,0,0,0-3.12-1.08h-1.92v8.16h1.92A4.26,4.26,0,0,0,210.29,70Z" transform="translate(0 0)"/><path class="cls-10" d="M221,68.46H214.7a3.1,3.1,0,0,0,.42,1.48,2.55,2.55,0,0,0,1,.93,2.91,2.91,0,0,0,1.34.32,2.73,2.73,0,0,0,1.6-.46,2.12,2.12,0,0,0,.86-1.25h1a3.21,3.21,0,0,1-1.2,1.83,3.66,3.66,0,0,1-2.3.7,3.86,3.86,0,0,1-1.93-.48,3.4,3.4,0,0,1-1.34-1.37,4.32,4.32,0,0,1-.48-2.08,4.5,4.5,0,0,1,.47-2.09,3.44,3.44,0,0,1,1.33-1.37,3.91,3.91,0,0,1,2-.47,3.68,3.68,0,0,1,1.91.47,3.29,3.29,0,0,1,1.26,1.28,3.6,3.6,0,0,1,.44,1.79A7.51,7.51,0,0,1,221,68.46Zm-1.3-2.26a2.39,2.39,0,0,0-1-.91,3,3,0,0,0-1.34-.3,2.64,2.64,0,0,0-1.86.7,2.77,2.77,0,0,0-.86,2h5.38A2.79,2.79,0,0,0,219.74,66.2Z" transform="translate(0 0)"/><path class="cls-10" d="M222.89,66a3.42,3.42,0,0,1,1.32-1.37,3.8,3.8,0,0,1,1.92-.48,3.71,3.71,0,0,1,2.33.7,3.16,3.16,0,0,1,1.18,1.9h-1a2.16,2.16,0,0,0-.85-1.3,3,3,0,0,0-3-.11,2.45,2.45,0,0,0-1,1,3.65,3.65,0,0,0-.36,1.7,3.72,3.72,0,0,0,.36,1.71,2.53,2.53,0,0,0,1,1,2.79,2.79,0,0,0,1.39.35,2.69,2.69,0,0,0,1.61-.47,2.13,2.13,0,0,0,.85-1.31h1a3.22,3.22,0,0,1-1.19,1.89,3.66,3.66,0,0,1-2.32.71,3.8,3.8,0,0,1-1.92-.48,3.42,3.42,0,0,1-1.32-1.37,4.84,4.84,0,0,1,0-4.16Z" transform="translate(0 0)"/><path class="cls-10" d="M231.43,62.61a.72.72,0,0,1-.21-.52.66.66,0,0,1,.21-.51.71.71,0,0,1,1,0,.66.66,0,0,1,.21.51.72.72,0,0,1-.21.52.71.71,0,0,1-1,0Zm1,1.65V71.9h-1V64.26Z" transform="translate(0 0)"/><path class="cls-10" d="M235.14,71.4a2.2,2.2,0,0,1-.94-1.65h1a1.46,1.46,0,0,0,.61,1,2.35,2.35,0,0,0,1.45.4,1.9,1.9,0,0,0,1.25-.38,1.15,1.15,0,0,0,.46-.94.9.9,0,0,0-.25-.64,1.79,1.79,0,0,0-.64-.4c-.26-.1-.6-.2-1-.32a10.56,10.56,0,0,1-1.39-.44,2.39,2.39,0,0,1-.9-.67,1.76,1.76,0,0,1-.37-1.18,1.78,1.78,0,0,1,.33-1,2.24,2.24,0,0,1,.95-.75,3.3,3.3,0,0,1,1.4-.28,3,3,0,0,1,2,.62,2.21,2.21,0,0,1,.81,1.71h-1a1.46,1.46,0,0,0-.52-1.08,1.93,1.93,0,0,0-1.32-.41,1.91,1.91,0,0,0-1.21.35,1.08,1.08,0,0,0-.19,1.6,2,2,0,0,0,.68.45c.27.1.64.22,1.09.35a10.61,10.61,0,0,1,1.32.44,2.22,2.22,0,0,1,.84.61,1.62,1.62,0,0,1,.36,1.08,1.9,1.9,0,0,1-.33,1.1,2.3,2.3,0,0,1-.94.76,3.19,3.19,0,0,1-1.39.28A3.5,3.5,0,0,1,235.14,71.4Z" transform="translate(0 0)"/><path class="cls-10" d="M241.78,62.61a.72.72,0,0,1-.21-.52.66.66,0,0,1,.21-.51.71.71,0,0,1,1,0,.66.66,0,0,1,.21.51.72.72,0,0,1-.21.52.71.71,0,0,1-1,0Zm1,1.65V71.9h-1V64.26Z" transform="translate(0 0)"/><path class="cls-10" d="M246.41,71.53a3.45,3.45,0,0,1-1.36-1.37,4.58,4.58,0,0,1,0-4.16,3.56,3.56,0,0,1,1.38-1.37,3.9,3.9,0,0,1,1.94-.48,4,4,0,0,1,2,.48A3.47,3.47,0,0,1,251.7,66a4.21,4.21,0,0,1,.49,2.08,4.12,4.12,0,0,1-.5,2.07,3.48,3.48,0,0,1-1.39,1.38,4,4,0,0,1-2,.48A3.86,3.86,0,0,1,246.41,71.53Zm3.33-.71a2.69,2.69,0,0,0,1-1,3.42,3.42,0,0,0,.4-1.7,3.32,3.32,0,0,0-.4-1.7,2.58,2.58,0,0,0-1-1,3.05,3.05,0,0,0-2.8,0,2.58,2.58,0,0,0-1,1,3.9,3.9,0,0,0,0,3.4,2.62,2.62,0,0,0,1,1,3,3,0,0,0,2.79,0Z" transform="translate(0 0)"/><path class="cls-10" d="M259.81,65a3.26,3.26,0,0,1,.87,2.45V71.9h-1V67.53a2.68,2.68,0,0,0-.62-1.9,2.23,2.23,0,0,0-1.7-.66,2.34,2.34,0,0,0-1.77.7,2.94,2.94,0,0,0-.65,2.06V71.9h-1V64.26h1v1.3a2.47,2.47,0,0,1,1-1.07,3.14,3.14,0,0,1,1.55-.37A3,3,0,0,1,259.81,65Z" transform="translate(0 0)"/></g><g class="cls-9"><path class="cls-10" d="M218.39,79V88.7h-1V81L214,88.7h-.71L209.8,81V88.7h-1V79h1l3.74,8.37L217.33,79Z" transform="translate(0 0)"/><path class="cls-10" d="M220.63,82.8a3.37,3.37,0,0,1,1.3-1.37,3.74,3.74,0,0,1,1.89-.48,3.39,3.39,0,0,1,1.88.5,2.93,2.93,0,0,1,1.14,1.29V81.06h1V88.7h-1V87a3.09,3.09,0,0,1-1.15,1.29,3.42,3.42,0,0,1-1.89.51,3.6,3.6,0,0,1-1.87-.49,3.4,3.4,0,0,1-1.3-1.38,4.45,4.45,0,0,1-.47-2.07A4.39,4.39,0,0,1,220.63,82.8Zm5.83.46a2.62,2.62,0,0,0-1-1.08A2.81,2.81,0,0,0,224,81.8a3,3,0,0,0-1.46.36,2.65,2.65,0,0,0-1,1.06,3.41,3.41,0,0,0-.37,1.65,3.45,3.45,0,0,0,.37,1.64,2.64,2.64,0,0,0,1,1.08A2.86,2.86,0,0,0,224,88a2.81,2.81,0,0,0,1.43-.38,2.62,2.62,0,0,0,1-1.08,3.64,3.64,0,0,0,0-3.24Z" transform="translate(0 0)"/><path class="cls-10" d="M234.19,88.7,231,85.27V88.7h-1V78.34h1v6.13l3.08-3.41h1.37l-3.62,3.81,3.65,3.83Z" transform="translate(0 0)"/><path class="cls-10" d="M236.77,79.41a.72.72,0,0,1-.21-.52.66.66,0,0,1,.21-.51.7.7,0,0,1,1,0,.66.66,0,0,1,.21.51.72.72,0,0,1-.21.52.7.7,0,0,1-1,0Zm1,1.65V88.7h-1V81.06Z" transform="translate(0 0)"/><path class="cls-10" d="M245.81,81.77a3.26,3.26,0,0,1,.87,2.45V88.7h-1V84.33a2.68,2.68,0,0,0-.62-1.9,2.23,2.23,0,0,0-1.7-.66,2.34,2.34,0,0,0-1.77.7,2.94,2.94,0,0,0-.65,2.06V88.7h-1V81.06h1v1.3A2.47,2.47,0,0,1,242,81.29a3.14,3.14,0,0,1,1.55-.37A3,3,0,0,1,245.81,81.77Z" transform="translate(0 0)"/><path class="cls-10" d="M253.93,81.45a3,3,0,0,1,1.15,1.27V81.06h1V88.9a3.67,3.67,0,0,1-.46,1.86A3.1,3.1,0,0,1,254.34,92a3.78,3.78,0,0,1-1.85.44,4.08,4.08,0,0,1-2.45-.7,3,3,0,0,1-1.21-1.9h1a2.34,2.34,0,0,0,1,1.27,3,3,0,0,0,1.73.48,2.78,2.78,0,0,0,1.33-.32,2.23,2.23,0,0,0,.92-.93,2.91,2.91,0,0,0,.34-1.45V87a3,3,0,0,1-1.16,1.29,3.36,3.36,0,0,1-1.87.51,3.61,3.61,0,0,1-1.88-.49,3.4,3.4,0,0,1-1.3-1.38,4.45,4.45,0,0,1-.47-2.07,4.39,4.39,0,0,1,.47-2.07,3.37,3.37,0,0,1,1.3-1.37,3.7,3.7,0,0,1,1.88-.48A3.41,3.41,0,0,1,253.93,81.45Zm.77,1.81a2.62,2.62,0,0,0-1-1.08,2.81,2.81,0,0,0-1.43-.38,3,3,0,0,0-1.46.36,2.58,2.58,0,0,0-1,1.06,3.41,3.41,0,0,0-.38,1.65,3.45,3.45,0,0,0,.38,1.64,2.58,2.58,0,0,0,1,1.08,2.86,2.86,0,0,0,1.46.37,2.81,2.81,0,0,0,1.43-.38,2.62,2.62,0,0,0,1-1.08,3.64,3.64,0,0,0,0-3.24Z" transform="translate(0 0)"/></g></g><rect class="cls-8" x="183.91" y="227.28" width="97.06" height="32.18"/><g class="cls-9"><g class="cls-9"><path class="cls-10" d="M222.14,229.42V231h-2.6v8.19h-2V231H215v-1.58Z" transform="translate(0 0)"/><path class="cls-10" d="M225,238.82a3.54,3.54,0,0,1-1.41-1.41,4.24,4.24,0,0,1-.51-2.1,4.15,4.15,0,0,1,.53-2.1A3.66,3.66,0,0,1,225,231.8a4.2,4.2,0,0,1,2-.49,4.15,4.15,0,0,1,2,.49,3.62,3.62,0,0,1,1.44,1.41,4.14,4.14,0,0,1,.52,2.1,4.05,4.05,0,0,1-.54,2.1,3.71,3.71,0,0,1-1.45,1.41,4.25,4.25,0,0,1-2,.49A4.11,4.11,0,0,1,225,238.82Zm3-1.47a1.89,1.89,0,0,0,.75-.78,2.67,2.67,0,0,0,.28-1.26,2.33,2.33,0,0,0-.59-1.7A1.88,1.88,0,0,0,227,233a1.84,1.84,0,0,0-1.4.59,2.86,2.86,0,0,0,0,3.4,1.83,1.83,0,0,0,1.4.6A2.1,2.1,0,0,0,228,237.35Z" transform="translate(0 0)"/><path class="cls-10" d="M234.79,233v3.75a.75.75,0,0,0,.18.57.92.92,0,0,0,.64.18h.91v1.65h-1.23a2.16,2.16,0,0,1-2.48-2.41V233h-.92v-1.61h.92v-1.91h2v1.91h1.73V233Z" transform="translate(0 0)"/><path class="cls-10" d="M237.9,233.2a3.35,3.35,0,0,1,3.07-1.89,3.08,3.08,0,0,1,1.52.35,3,3,0,0,1,1,.88v-1.11h2v7.76h-2v-1.14a2.93,2.93,0,0,1-1,.91,3.14,3.14,0,0,1-1.53.35,3.29,3.29,0,0,1-1.79-.5,3.58,3.58,0,0,1-1.27-1.42,4.59,4.59,0,0,1-.47-2.11A4.49,4.49,0,0,1,237.9,233.2Zm5.36.89a2,2,0,0,0-.76-.79,2.08,2.08,0,0,0-2,0,2,2,0,0,0-.75.78,2.46,2.46,0,0,0-.29,1.21,2.54,2.54,0,0,0,.29,1.23,2,2,0,0,0,.76.8,1.87,1.87,0,0,0,1,.28,2,2,0,0,0,1-.27,2,2,0,0,0,.76-.78,2.82,2.82,0,0,0,0-2.45Z" transform="translate(0 0)"/><path class="cls-10" d="M249.39,228.83v10.36h-2V228.83Z" transform="translate(0 0)"/></g><g class="cls-9"><path class="cls-10" d="M202.51,256l-2.15-3.81h-.93V256h-2v-9.77h3.67a4.2,4.2,0,0,1,1.93.4,2.68,2.68,0,0,1,1.2,1.07,2.89,2.89,0,0,1-1.83,4.34l2.34,4Zm-3.08-5.28h1.64a1.67,1.67,0,0,0,1.19-.38,1.46,1.46,0,0,0,.39-1.08,1.38,1.38,0,0,0-.39-1,1.66,1.66,0,0,0-1.19-.37h-1.64Z" transform="translate(0 0)"/><path class="cls-10" d="M213.6,252.7h-5.67a1.94,1.94,0,0,0,.59,1.32,1.85,1.85,0,0,0,1.27.47,1.6,1.6,0,0,0,1.56-.94h2.11a3.47,3.47,0,0,1-1.29,1.84,3.68,3.68,0,0,1-2.33.73,4,4,0,0,1-2-.5,3.43,3.43,0,0,1-1.39-1.41,4.35,4.35,0,0,1-.5-2.1,4.44,4.44,0,0,1,.49-2.11,3.39,3.39,0,0,1,1.38-1.4,4,4,0,0,1,2-.49,4.19,4.19,0,0,1,2,.47,3.37,3.37,0,0,1,1.35,1.35,4,4,0,0,1,.49,2A4.34,4.34,0,0,1,213.6,252.7Zm-2-1.32a1.56,1.56,0,0,0-.55-1.21,1.94,1.94,0,0,0-1.3-.45,1.73,1.73,0,0,0-1.22.44,1.86,1.86,0,0,0-.61,1.22Z" transform="translate(0 0)"/><path class="cls-10" d="M216.35,255.77a3,3,0,0,1-1.2-.93,2.23,2.23,0,0,1-.48-1.3h2a1.07,1.07,0,0,0,.44.74,1.53,1.53,0,0,0,1,.3,1.51,1.51,0,0,0,.88-.23.7.7,0,0,0,.31-.57.62.62,0,0,0-.38-.57,7.19,7.19,0,0,0-1.23-.41,10.18,10.18,0,0,1-1.42-.44,2.38,2.38,0,0,1-.95-.68,1.84,1.84,0,0,1-.4-1.25,2,2,0,0,1,.37-1.18,2.48,2.48,0,0,1,1.06-.83,4,4,0,0,1,1.63-.31,3.35,3.35,0,0,1,2.22.69,2.59,2.59,0,0,1,.91,1.87h-1.88a1,1,0,0,0-.39-.74,1.41,1.41,0,0,0-.91-.27,1.44,1.44,0,0,0-.82.2.62.62,0,0,0-.29.54.64.64,0,0,0,.39.6,6.77,6.77,0,0,0,1.22.41,10.52,10.52,0,0,1,1.39.44,2.44,2.44,0,0,1,.94.69,1.87,1.87,0,0,1,.42,1.24,2.08,2.08,0,0,1-.37,1.2,2.44,2.44,0,0,1-1.07.83,4.34,4.34,0,0,1-3.32,0Z" transform="translate(0 0)"/><path class="cls-10" d="M222.85,247a1.16,1.16,0,0,1,0-1.64,1.29,1.29,0,0,1,1.72,0,1.16,1.16,0,0,1,0,1.64,1.29,1.29,0,0,1-1.72,0Zm1.83,1.25V256h-2v-7.76Z" transform="translate(0 0)"/><path class="cls-10" d="M228.57,245.63V256h-2V245.63Z" transform="translate(0 0)"/><path class="cls-10" d="M230.63,247a1.16,1.16,0,0,1,0-1.64,1.2,1.2,0,0,1,.86-.33,1.17,1.17,0,0,1,.86.33,1.14,1.14,0,0,1,0,1.64,1.17,1.17,0,0,1-.86.33A1.2,1.2,0,0,1,230.63,247Zm1.83,1.25V256h-2v-7.76Z" transform="translate(0 0)"/><path class="cls-10" d="M241.55,252.7h-5.67a1.93,1.93,0,0,0,.58,1.32,1.85,1.85,0,0,0,1.28.47,1.59,1.59,0,0,0,1.55-.94h2.12a3.58,3.58,0,0,1-1.29,1.84,3.73,3.73,0,0,1-2.34.73,4,4,0,0,1-2-.5,3.56,3.56,0,0,1-1.39-1.41,4.77,4.77,0,0,1,0-4.21,3.31,3.31,0,0,1,1.37-1.4,4.07,4.07,0,0,1,2-.49,4.14,4.14,0,0,1,2,.47,3.4,3.4,0,0,1,1.36,1.35,4.15,4.15,0,0,1,.48,2A5.7,5.7,0,0,1,241.55,252.7Zm-2-1.32a1.58,1.58,0,0,0-.54-1.21,2,2,0,0,0-1.31-.45,1.74,1.74,0,0,0-1.22.44,1.91,1.91,0,0,0-.61,1.22Z" transform="translate(0 0)"/><path class="cls-10" d="M249.57,249a3.33,3.33,0,0,1,.85,2.44V256h-2v-4.28a2,2,0,0,0-.46-1.43,1.64,1.64,0,0,0-1.26-.49,1.67,1.67,0,0,0-1.28.49,2,2,0,0,0-.47,1.43V256h-2v-7.76h2v1a2.61,2.61,0,0,1,1-.79,3.13,3.13,0,0,1,1.34-.29A3,3,0,0,1,249.57,249Z" transform="translate(0 0)"/><path class="cls-10" d="M252.27,250a3.59,3.59,0,0,1,1.36-1.4,3.94,3.94,0,0,1,2-.49,3.81,3.81,0,0,1,2.38.72,3.52,3.52,0,0,1,1.27,2h-2.11a1.65,1.65,0,0,0-.57-.79,1.68,1.68,0,0,0-1-.29,1.64,1.64,0,0,0-1.33.61,3.28,3.28,0,0,0,0,3.45,1.64,1.64,0,0,0,1.33.61,1.51,1.51,0,0,0,1.56-1.07h2.11a3.6,3.6,0,0,1-1.27,2,3.74,3.74,0,0,1-2.38.75,4,4,0,0,1-2-.5,3.52,3.52,0,0,1-1.36-1.4,4.79,4.79,0,0,1,0-4.22Z" transform="translate(0 0)"/><path class="cls-10" d="M267.87,252.7H262.2a1.93,1.93,0,0,0,.58,1.32,1.85,1.85,0,0,0,1.28.47,1.59,1.59,0,0,0,1.55-.94h2.12a3.58,3.58,0,0,1-1.29,1.84,3.73,3.73,0,0,1-2.34.73,4,4,0,0,1-2-.5,3.56,3.56,0,0,1-1.39-1.41,4.77,4.77,0,0,1,0-4.21,3.31,3.31,0,0,1,1.37-1.4,4.07,4.07,0,0,1,2-.49,4.14,4.14,0,0,1,2,.47,3.4,3.4,0,0,1,1.36,1.35,4.15,4.15,0,0,1,.48,2A5.7,5.7,0,0,1,267.87,252.7Zm-2-1.32a1.58,1.58,0,0,0-.54-1.21,2,2,0,0,0-1.31-.45,1.74,1.74,0,0,0-1.22.44,1.91,1.91,0,0,0-.61,1.22Z" transform="translate(0 0)"/></g></g><rect class="cls-8" x="281.53" y="372.94" width="96.45" height="24.54"/><g class="cls-9"><path class="cls-10" d="M305.68,377.36a4.53,4.53,0,0,1,1.72-1.78,4.69,4.69,0,0,1,2.43-.64,4.93,4.93,0,0,1,2.81.78,4.4,4.4,0,0,1,1.7,2.19h-1.15a3.32,3.32,0,0,0-1.28-1.55,3.65,3.65,0,0,0-2.08-.56,3.77,3.77,0,0,0-1.94.5,3.57,3.57,0,0,0-1.35,1.45,4.77,4.77,0,0,0-.49,2.19,4.7,4.7,0,0,0,.49,2.18,3.57,3.57,0,0,0,1.35,1.45,3.87,3.87,0,0,0,1.94.5,3.73,3.73,0,0,0,2.08-.55,3.29,3.29,0,0,0,1.28-1.54h1.15a4.27,4.27,0,0,1-1.71,2.17,4.92,4.92,0,0,1-2.8.77,4.79,4.79,0,0,1-2.43-.63,4.64,4.64,0,0,1-1.72-1.77,5.6,5.6,0,0,1,0-5.16Z" transform="translate(0 0)"/><path class="cls-10" d="M317.69,384.47a3.49,3.49,0,0,1-1.35-1.37,4.13,4.13,0,0,1-.5-2.08,4.18,4.18,0,0,1,.5-2.08,3.56,3.56,0,0,1,1.38-1.37,3.91,3.91,0,0,1,1.94-.49,4,4,0,0,1,1.95.49,3.43,3.43,0,0,1,1.38,1.37,4.18,4.18,0,0,1,.49,2.08,4.12,4.12,0,0,1-.5,2.07,3.48,3.48,0,0,1-1.39,1.38,4,4,0,0,1-2,.48A4,4,0,0,1,317.69,384.47Zm3.34-.72a2.6,2.6,0,0,0,1.05-1,3.81,3.81,0,0,0,0-3.4,2.52,2.52,0,0,0-1-1,3.05,3.05,0,0,0-2.8,0,2.52,2.52,0,0,0-1,1,3.9,3.9,0,0,0,0,3.4,2.53,2.53,0,0,0,1,1,3,3,0,0,0,2.79,0Z" transform="translate(0 0)"/><path class="cls-10" d="M327.4,377.59a3.37,3.37,0,0,1,1.88-.51,3.7,3.7,0,0,1,1.87.49,3.37,3.37,0,0,1,1.3,1.37,4.38,4.38,0,0,1,.47,2.06,4.46,4.46,0,0,1-.47,2.08,3.46,3.46,0,0,1-1.3,1.38,3.6,3.6,0,0,1-1.87.49,3.44,3.44,0,0,1-1.88-.51,3.08,3.08,0,0,1-1.16-1.28v5.29h-1V377.2h1v1.68A3.11,3.11,0,0,1,327.4,377.59Zm4.15,1.77a2.52,2.52,0,0,0-1-1.06,3,3,0,0,0-1.46-.36,2.71,2.71,0,0,0-1.43.38,2.66,2.66,0,0,0-1,1.07,3.66,3.66,0,0,0,0,3.25,2.62,2.62,0,0,0,1,1.08,2.81,2.81,0,0,0,1.43.38,3,3,0,0,0,1.46-.37,2.58,2.58,0,0,0,1-1.08,3.46,3.46,0,0,0,.38-1.65A3.4,3.4,0,0,0,331.55,379.36Z" transform="translate(0 0)"/><path class="cls-10" d="M334.71,375.54a.74.74,0,0,1,0-1,.74.74,0,0,1,1,0,.74.74,0,0,1,0,1,.71.71,0,0,1-1,0Zm1,1.66v7.64h-1V377.2Z" transform="translate(0 0)"/><path class="cls-10" d="M343.75,377.9a3.3,3.3,0,0,1,.87,2.46v4.48h-1v-4.37a2.64,2.64,0,0,0-.63-1.9,2.21,2.21,0,0,0-1.7-.66,2.3,2.3,0,0,0-1.76.7,2.9,2.9,0,0,0-.66,2.06v4.17h-1V377.2h1v1.3a2.41,2.41,0,0,1,1-1.07,3.21,3.21,0,0,1,1.56-.37A3.06,3.06,0,0,1,343.75,377.9Z" transform="translate(0 0)"/><path class="cls-10" d="M351.88,377.59a2.89,2.89,0,0,1,1.14,1.27V377.2h1V385a3.77,3.77,0,0,1-.45,1.86,3.12,3.12,0,0,1-1.27,1.25,3.75,3.75,0,0,1-1.85.44,4,4,0,0,1-2.44-.7,3,3,0,0,1-1.21-1.9h1a2.31,2.31,0,0,0,.95,1.27,3,3,0,0,0,1.73.48,2.75,2.75,0,0,0,1.33-.32,2.25,2.25,0,0,0,.93-.93A3,3,0,0,0,353,385v-1.89a3,3,0,0,1-1.15,1.29A3.38,3.38,0,0,1,350,385a3.59,3.59,0,0,1-1.88-.49,3.48,3.48,0,0,1-1.31-1.38,4.46,4.46,0,0,1-.47-2.08,4.38,4.38,0,0,1,.47-2.06,3.39,3.39,0,0,1,1.31-1.37,3.68,3.68,0,0,1,1.88-.49A3.44,3.44,0,0,1,351.88,377.59Zm.77,1.8a2.76,2.76,0,0,0-2.47-1.45,3,3,0,0,0-1.46.36,2.65,2.65,0,0,0-1,1.06,3.39,3.39,0,0,0-.37,1.64,3.46,3.46,0,0,0,.37,1.65,2.71,2.71,0,0,0,1,1.08,3,3,0,0,0,1.46.37,2.87,2.87,0,0,0,1.44-.38,2.75,2.75,0,0,0,1-1.08,3.75,3.75,0,0,0,0-3.25Z" transform="translate(0 0)"/></g><rect class="cls-8" x="330.43" y="185.13" width="118.92" height="14.74"/><g class="cls-9"><path class="cls-10" d="M364.44,197,362,192.94h-1.8V197h-1v-9.79h2.94a3.53,3.53,0,0,1,2.48.78,2.67,2.67,0,0,1,.85,2.06,2.78,2.78,0,0,1-.61,1.82,2.93,2.93,0,0,1-1.8,1l2.52,4.16Zm-4.23-4.89h2a2.42,2.42,0,0,0,1.73-.56,2,2,0,0,0,.58-1.5,1.92,1.92,0,0,0-.56-1.49,2.5,2.5,0,0,0-1.76-.52h-2Z" transform="translate(0 0)"/><path class="cls-10" d="M374.33,193.58H368a3.14,3.14,0,0,0,.42,1.49,2.48,2.48,0,0,0,1,.93,2.87,2.87,0,0,0,1.34.31,2.68,2.68,0,0,0,1.6-.46,2.13,2.13,0,0,0,.86-1.25h1a3.26,3.26,0,0,1-1.2,1.83,3.67,3.67,0,0,1-2.3.71,3.77,3.77,0,0,1-1.93-.49,3.34,3.34,0,0,1-1.34-1.37,4.29,4.29,0,0,1-.48-2.08,4.46,4.46,0,0,1,.47-2.08,3.26,3.26,0,0,1,1.33-1.37,3.91,3.91,0,0,1,1.95-.48,3.69,3.69,0,0,1,1.91.48,3.17,3.17,0,0,1,1.26,1.28,3.67,3.67,0,0,1,.44,1.78A7.37,7.37,0,0,1,374.33,193.58Zm-1.3-2.25a2.32,2.32,0,0,0-1-.91,2.9,2.9,0,0,0-1.34-.31,2.64,2.64,0,0,0-1.86.7,2.8,2.8,0,0,0-.86,2h5.38A2.76,2.76,0,0,0,373,191.33Z" transform="translate(0 0)"/><path class="cls-10" d="M376.18,191.12a3.42,3.42,0,0,1,1.32-1.37,3.8,3.8,0,0,1,1.92-.48,3.71,3.71,0,0,1,2.33.7,3.19,3.19,0,0,1,1.18,1.9h-1.05a2.11,2.11,0,0,0-.85-1.29,2.69,2.69,0,0,0-1.61-.47,2.79,2.79,0,0,0-1.39.35,2.39,2.39,0,0,0-1,1,4.22,4.22,0,0,0,0,3.41,2.36,2.36,0,0,0,1,1.05,2.79,2.79,0,0,0,1.39.35,2.62,2.62,0,0,0,1.61-.47,2.13,2.13,0,0,0,.85-1.31h1.05a3.16,3.16,0,0,1-1.19,1.89,3.67,3.67,0,0,1-2.32.72,3.71,3.71,0,0,1-1.92-.49,3.35,3.35,0,0,1-1.32-1.37,4.29,4.29,0,0,1-.47-2.08A4.34,4.34,0,0,1,376.18,191.12Z" transform="translate(0 0)"/><path class="cls-10" d="M386.14,196.65a3.42,3.42,0,0,1-1.35-1.37,4.08,4.08,0,0,1-.5-2.08,4.24,4.24,0,0,1,.5-2.08,3.54,3.54,0,0,1,1.37-1.37,4.2,4.2,0,0,1,3.9,0,3.41,3.41,0,0,1,1.37,1.37,4.13,4.13,0,0,1,.5,2.08,4.24,4.24,0,0,1-.5,2.08,3.52,3.52,0,0,1-1.39,1.37,3.93,3.93,0,0,1-2,.49A3.83,3.83,0,0,1,386.14,196.65Zm3.34-.71a2.62,2.62,0,0,0,1-1,3.39,3.39,0,0,0,.39-1.7,3.45,3.45,0,0,0-.39-1.7,2.61,2.61,0,0,0-1-1,2.94,2.94,0,0,0-1.4-.35,2.88,2.88,0,0,0-1.4.35,2.49,2.49,0,0,0-1,1,3.45,3.45,0,0,0-.39,1.7,3.39,3.39,0,0,0,.39,1.7,2.44,2.44,0,0,0,1,1,2.86,2.86,0,0,0,1.39.34A2.9,2.9,0,0,0,389.48,195.94Z" transform="translate(0 0)"/><path class="cls-10" d="M396.44,196.07l2.58-6.69h1L397,197h-1.11l-3.07-7.65h1.05Z" transform="translate(0 0)"/><path class="cls-10" d="M408.27,193.58h-6.34a3.14,3.14,0,0,0,.42,1.49,2.46,2.46,0,0,0,1,.93,2.91,2.91,0,0,0,1.35.31,2.7,2.7,0,0,0,1.6-.46,2.18,2.18,0,0,0,.86-1.25h1a3.26,3.26,0,0,1-1.2,1.83,3.67,3.67,0,0,1-2.3.71,3.81,3.81,0,0,1-1.94-.49,3.32,3.32,0,0,1-1.33-1.37,4.18,4.18,0,0,1-.49-2.08,4.34,4.34,0,0,1,.48-2.08,3.26,3.26,0,0,1,1.33-1.37,3.91,3.91,0,0,1,1.95-.48,3.74,3.74,0,0,1,1.91.48,3.3,3.3,0,0,1,1.26,1.28,3.67,3.67,0,0,1,.44,1.78A7.37,7.37,0,0,1,408.27,193.58ZM407,191.33a2.3,2.3,0,0,0-1-.91,2.91,2.91,0,0,0-1.35-.31,2.66,2.66,0,0,0-1.86.7,2.8,2.8,0,0,0-.85,2h5.37A2.67,2.67,0,0,0,407,191.33Z" transform="translate(0 0)"/><path class="cls-10" d="M412.06,189.63a3.15,3.15,0,0,1,1.63-.39v1h-.27a2.49,2.49,0,0,0-1.71.58,2.45,2.45,0,0,0-.64,1.92V197h-1v-7.65h1v1.36A2.37,2.37,0,0,1,412.06,189.63Z" transform="translate(0 0)"/><path class="cls-10" d="M421.46,189.38l-4.54,11.24h-1l1.48-3.64-3.13-7.6h1.08l2.6,6.53,2.52-6.53Z" transform="translate(0 0)"/></g></svg>