<svg id="Layer_1" data-name="Layer 1" xmlns="http://www.w3.org/2000/svg" width="422.65" height="458.76" viewBox="0 0 422.65 458.76"><defs><style>.cls-1{fill:#6950a1;}.cls-2{fill:#8b79b8;}.cls-3{fill:#745ea8;}.cls-4{fill:#a80a2e;}.cls-5{fill:#850030;}.cls-6{fill:#a6003d;}.cls-7{fill:#77ada0;}.cls-8{fill:#2e9583;}.cls-9{fill:#008578;}.cls-10{fill:#f17a51;}.cls-11{fill:#ed5930;}.cls-12{fill:#1c5959;}.cls-13{fill:#4d4d4d;}.cls-14{fill:#fdc372;}.cls-15{fill:#fbac34;}.cls-16{fill:#fcb34a;}.cls-17{font-size:12px;fill:#231f20;font-family:MinionPro-Regular, Minion Pro;letter-spacing:-0.18em;}.cls-18{letter-spacing:0em;}.cls-19{fill:#f53864;}.cls-20{fill:#f87493;}.cls-21{fill:#d8365c;}.cls-22{fill:#f64c74;}.cls-23{fill:#e39c16;}.cls-24{fill:#69889d;}.cls-25{fill:#7f99ab;}.cls-26{fill:#2a5673;}.cls-27{fill:#54778f;}.cls-28{fill:#3f6681;}</style></defs><title>colourful-tree</title><polygon class="cls-1" points="157.06 196.6 197.56 168.21 23.18 87.86 66.64 211.9 143.62 184.91 157.06 196.6"/><polygon class="cls-2" points="23.18 87.86 197.56 168.21 101.57 91.69 23.18 87.86"/><polygon class="cls-3" points="101.57 91.69 173.04 72.28 197.56 168.21 101.57 91.69"/><polygon class="cls-4" points="173.01 72.29 216.67 88.68 197.56 168.21 173.01 72.29"/><polygon class="cls-5" points="216.67 88.68 243.57 161.31 197.56 168.21 216.67 88.68"/><polygon class="cls-6" points="197.56 168.21 157.06 196.6 186.69 194.26 223.35 202.74 243.57 161.31 197.56 168.21"/><polygon class="cls-7" points="0 212.56 99.1 242.64 154.93 183.54 126.59 180 0 212.56"/><polygon class="cls-8" points="96.93 302.32 119.09 279.64 90.83 267.08 99.1 242.64 0 212.56 96.93 302.32"/><polygon class="cls-7" points="96.93 302.32 93.44 325.21 155.88 295.99 119.09 279.64 96.93 302.32"/><polygon class="cls-8" points="93.44 325.21 152.93 344.22 168.13 301.43 155.88 295.99 93.44 325.21"/><polygon class="cls-9" points="152.93 344.22 198.87 315.1 168.13 301.43 152.93 344.22"/><polygon class="cls-10" points="254.08 108.38 353.36 23.36 310.55 153.05 240.73 133.63 254.08 108.38"/><polygon class="cls-11" points="353.36 23.36 371.29 154.25 340 159.39 311.82 176.37 311.5 151.02 353.36 23.36"/><polygon class="cls-10" points="371.29 154.25 392.05 164.52 332.29 198.9 311.42 164.2 371.29 154.25"/><polygon class="cls-11" points="392.05 164.52 373.49 224.15 329.73 212.06 332.29 198.9 392.05 164.52"/><polygon class="cls-12" points="373.49 224.15 323.29 245.08 329.73 212.06 373.49 224.15"/><polygon class="cls-13" points="205.81 307.06 204.03 340.23 165.43 312.86 164.56 315.31 203.07 358.04 199.81 418.74 179.2 452.19 80.08 458.76 349.01 458.76 251.48 452.49 239.39 381.89 284.82 330.5 282.98 328.5 234.44 363.88 221.6 298.16 215.69 296.79 205.81 307.06"/><polygon class="cls-14" points="162.02 0 247.92 196.89 266.9 59.53 162.02 0"/><polygon class="cls-15" points="266.9 59.53 247.92 196.89 286.85 248.06 295.52 168.83 266.9 59.53"/><polygon class="cls-15" points="162.02 0 131.55 166.89 247.92 196.89 162.02 0"/><polygon class="cls-16" points="247.92 196.89 78.08 264.75 131.9 166.89 247.92 196.89"/><polygon class="cls-14" points="78.08 264.75 243.01 278.22 257.64 252.34 286.85 248.06 247.92 196.89 78.08 264.75"/><text class="cls-17" transform="translate(245.08 206.61)"><tspan xml:space="preserve">    </tspan><tspan class="cls-18" x="2.06" y="0"> </tspan></text><polygon class="cls-14" points="266.9 59.53 336.71 179.63 295.52 168.83 266.9 59.53"/><polygon class="cls-19" points="286.85 248.06 257.64 252.34 258.53 301.8 422.65 202.16 295.52 168.83 286.85 248.06"/><polygon class="cls-20" points="258.53 301.8 375.65 265.01 422.65 202.16 258.53 301.8"/><polygon class="cls-19" points="375.65 265.01 369.14 341.8 258.53 301.8 375.65 265.01"/><polygon class="cls-20" points="369.14 341.8 313.78 362.12 258.53 301.8 369.14 341.8"/><polygon class="cls-21" points="313.78 362.12 238.52 343.8 258.53 301.8 313.78 362.12"/><polygon class="cls-22" points="258.53 301.8 257.64 252.34 243.01 278.22 215.48 303.87 238.52 343.8 258.53 301.8"/><polygon class="cls-23" points="78.08 264.75 243.01 278.22 215.48 303.87 221.06 313.55 209.98 323.37 78.08 264.75"/><polygon class="cls-15" points="78.08 264.75 243.01 278.22 221.6 298.16 78.08 264.75"/><polygon class="cls-24" points="222.88 372.31 215.69 296.79 221.6 298.16 234.44 363.88 222.88 372.31"/><polygon class="cls-25" points="222.88 372.31 282.98 328.5 227.93 381.19 222.88 372.31"/><polygon class="cls-26" points="227.93 381.19 239.39 381.89 284.82 330.5 282.98 328.5 227.93 381.19"/><polygon class="cls-24" points="197.66 458.76 232.59 458.76 227.93 381.19 197.66 458.76"/><polygon class="cls-27" points="197.66 458.76 222.88 372.31 215.69 296.79 197.66 458.76"/><polygon class="cls-24" points="232.59 458.76 349.01 458.76 251.48 452.49 232.59 458.76"/><polygon class="cls-26" points="205.81 307.06 197.66 458.76 215.69 296.79 205.81 307.06"/><polygon class="cls-26" points="203.07 358.04 164.56 315.31 165.43 312.86 203.66 347.11 203.07 358.04"/><polygon class="cls-28" points="203.66 347.11 204.03 340.23 165.43 312.86 203.66 347.11"/><polygon class="cls-28" points="179.2 452.19 197.66 458.76 199.81 418.74 179.2 452.19"/><polygon class="cls-27" points="80.08 458.76 197.66 458.76 179.2 452.19 80.08 458.76"/><polygon class="cls-25" points="232.59 458.76 251.48 452.49 227.93 381.19 232.59 458.76"/><polygon class="cls-28" points="197.66 458.76 227.93 381.19 222.88 372.31 197.66 458.76"/><polygon class="cls-24" points="239.39 381.89 251.48 452.49 227.93 381.19 239.39 381.89"/></svg>
